<svg xmlns="http://www.w3.org/2000/svg" width="42" height="20" fill="#AA81F3" viewBox="0 0 42 20"> <path fill-rule="evenodd" d="M23.7738636,12.5673179 C24.3507488,13.1215105 25.223892,13.8906807 26.3666716,14.8193344 C27.5131147,15.7337395 28.9895205,16.760883 30.7888062,17.5563005 C31.6912577,17.9327614 32.68774,18.226481 33.7125537,18.2712263 C34.2215412,18.274476 34.7383443,18.254978 35.2297469,18.1114929 C35.4817983,18.0632479 35.7147993,17.9502596 35.9556159,17.8612689 C36.1844649,17.7405314 36.4179544,17.628543 36.6304396,17.4693095 C37.059562,17.1640912 37.4647493,16.7966293 37.8047256,16.3394267 C38.1459231,15.8849738 38.4390062,15.3692773 38.6820208,14.8105853 C39.1516864,13.6834522 39.4371981,12.3973356 39.4821375,11.062474 C39.5409984,9.73086214 39.3717429,8.34825554 38.9589843,7.06388876 C38.5301061,5.7927706 37.8367205,4.61789246 36.8758966,3.90671622 C35.9241095,3.19404014 34.7346808,2.94031645 33.4202034,3.15204449 C32.766384,3.26978228 32.0942469,3.44751385 31.4272387,3.74423307 C31.0921471,3.86972006 30.7619402,4.05620071 30.4268486,4.20693508 C30.0988398,4.39366571 29.7661906,4.56914751 29.4398915,4.76987669 C28.1320084,5.57279341 26.8824977,6.57118986 25.6705994,7.64207879 C25.0744196,8.19402154 24.4735994,8.74246466 23.9001336,9.33290342 C23.6082717,9.62087355 23.3188522,9.91234332 23.0399349,10.2180616 L22.1741187,11.1424657 C21.0428182,12.3623392 19.7491008,13.6639542 18.4434159,14.8218341 C17.1225883,15.9912128 15.7013798,17.0653514 14.1570765,17.9875058 C12.61375,18.901411 10.8994585,19.653583 8.98831286,19.9198053 C8.03847958,20.058291 7.02172567,20.0200449 6.03916479,19.7845694 C5.05440578,19.5505936 4.11605159,19.075143 3.34353355,18.4452083 C2.5668635,17.8160235 1.95456418,17.0476032 1.48709674,16.2444366 C1.01718693,15.43977 0.687468516,14.5956076 0.455444444,13.7519451 C0.227572382,12.9070327 0.099348553,12.0608705 0.0382895867,11.226957 C-0.0237463229,10.3930435 -0.0108018221,9.56887894 0.0800539196,8.76471235 C0.247355487,7.15712909 0.676233666,5.6172888 1.37816754,4.23843181 C1.73890391,3.55325288 2.16778209,2.91106949 2.66944256,2.33837889 C3.17110303,1.76543831 3.76606159,1.27898877 4.40644803,0.905527501 C5.04390364,0.523067169 5.74608175,0.284091956 6.43336147,0.16285453 C7.12308356,0.0236189718 7.8023035,0.0478664568 8.44049181,0.115359456 C9.71637997,0.29359097 10.8149529,0.749293705 11.7689382,1.25699105 C13.6656739,2.3073821 15.0338832,3.56375179 16.0936226,4.63164103 C17.1511639,5.70627957 17.896816,6.62168462 18.3982323,7.2476197 C18.8886579,7.88230387 19.1502345,8.22076877 19.1502345,8.22076877 C19.1502345,8.22076877 18.8410319,7.92804913 18.2612159,7.37885609 C17.6862847,6.82791323 16.808501,6.05474343 15.6652329,5.12983936 C14.5168359,4.21868386 13.0384762,3.19529001 11.236504,2.4096215 C10.3325871,2.03915992 9.33537202,1.75368953 8.31153527,1.71844319 C7.2942929,1.69919518 6.25873283,1.92492177 5.39951106,2.54835711 C4.97160982,2.85707509 4.56691099,3.22678674 4.22620196,3.68448927 C3.88500446,4.14044198 3.59118871,4.65638846 3.34670861,5.21483054 C2.8726468,6.34146369 2.58371577,7.62683037 2.53242624,8.960942 C2.46721526,10.291554 2.62938788,11.6746605 3.03848295,12.9580274 C3.46272065,14.2283957 4.15146579,15.4025239 5.1110685,16.105451 C6.06016907,16.8101279 7.2493535,17.0573522 8.56529634,16.8363752 C8.72698048,16.8236265 8.89428205,16.7656325 9.05914126,16.7343857 C9.2242447,16.7008892 9.39008085,16.6608934 9.55689395,16.6006496 L10.0578217,16.4396663 L10.5585052,16.2344376 C10.7267837,16.172944 10.8933526,16.095952 11.0591888,16.0112107 L11.5593838,15.7692358 C11.8886138,15.5855049 12.2195533,15.4030238 12.5468294,15.2057943 C13.8537355,14.3981281 15.1073982,13.405231 16.3185639,12.3308425 C17.5373008,11.2332063 18.6385603,10.1153223 19.818708,8.83695486 L20.7030861,7.90355167 C21.0000769,7.58258496 21.3107449,7.27236713 21.6250765,6.96539897 C22.2400624,6.34046379 22.8946145,5.74777526 23.5445262,5.15433682 C24.8690173,3.98720787 26.2890046,2.91106949 27.8359945,1.990165 C29.3785883,1.07401003 31.1019165,0.332086978 33.0147718,0.0733638123 C33.966559,-0.0593724204 34.9833129,-0.0143770873 35.9636757,0.227847789 C36.9457481,0.469822692 37.8779964,0.950022885 38.6461182,1.5804575 C39.4181477,2.21064213 40.0280047,2.97681267 40.4952279,3.7777296 C40.9651377,4.58014637 41.2946119,5.422559 41.5300553,6.26397172 C41.7593927,7.10738425 41.8925013,7.95179666 41.9569795,8.78496025 C42.0241444,9.61837381 42.0119326,10.4420384 41.9254731,11.2464549 C41.7657429,12.8542882 41.3441918,14.3971282 40.6442118,15.7782349 C40.2849408,16.4646637 39.8565511,17.1083469 39.3534252,17.6812875 C38.8527417,18.2557279 38.2526542,18.7401777 37.6095812,19.1101393 C37.2908534,19.3036193 36.947702,19.440605 36.6113892,19.575841 C36.2645742,19.6785804 35.9241095,19.7955682 35.5758291,19.8375639 C34.8851301,19.9690502 34.2061544,19.942053 33.5701642,19.8643111 C32.2972069,19.6755807 31.2035187,19.2126287 30.2531969,18.7001818 C28.3623228,17.6425415 26.9982655,16.3829222 25.9397473,15.314283 C24.8853811,14.2393945 24.135577,13.3197399 23.6366031,12.6963046 C23.1464217,12.0621203 22.8848451,11.7241554 22.8848451,11.7241554 C22.8848451,11.7241554 23.1940477,12.017375 23.7738636,12.5673179 Z"></path> </svg>