<svg xmlns="http://www.w3.org/2000/svg" fill="white" viewBox="0 0 160 64" role="img"><title>Onfleet Customer Total Wine and More</title><path d="M113,19.44c.17-.45-.07-.65-.25-1.25a2.12,2.12,0,0,0,.65.24h.23a3.08,3.08,0,0,1-2.14-2.58,2.11,2.11,0,0,1-.82.59,3.64,3.64,0,0,1-1.18.19h-.29l0,0a4.8,4.8,0,0,1-2,2.73,2,2,0,0,0,1,1.32,3.38,3.38,0,0,0,2.63.43h0a2.14,2.14,0,0,1,.32-.2,3.7,3.7,0,0,0,1.38-1.13,1.51,1.51,0,0,1,.45-.29.25.25,0,0,0,0-.07,2.55,2.55,0,0,1,.39-.13h-.1A.5.5,0,0,0,113,19.44Zm13.84-9.22.09.1v.1c0,1.61-2,2.39-3.2,2.65.24.77.15,1.3-.27,1.64a2.35,2.35,0,0,1-2,0,4.27,4.27,0,0,1,0,3.5,4.62,4.62,0,0,1-2.13,2.08,4,4,0,0,0-.12.66c-.29,1.69-.56,3.29-3.22,3.47a3.83,3.83,0,0,1-1.33,3,4.9,4.9,0,0,1-3.54,1,3.76,3.76,0,0,1-1.64,2.06,4.14,4.14,0,0,1-3,.66,3.26,3.26,0,0,1-2.65,1.32,2.59,2.59,0,0,1-1.79-.64,2.42,2.42,0,0,1-.77-1.88,2.32,2.32,0,0,1,.49-1.41.86.86,0,0,0-.1-.16c-.45-.77-1.5-2.54,1.08-4.76a2.72,2.72,0,0,1,.18-2.45,1.52,1.52,0,0,0,.24-1.13,3.14,3.14,0,0,1,0-3,2.55,2.55,0,0,0,.19-.55c-1-1-.35-2.58.09-3.4a1.55,1.55,0,0,1-.78-.67,1,1,0,0,1,0-.86,4.5,4.5,0,0,1,1.59-1.35l.14-.09-.55-.46c-.52-.46-.68-.58-.73-.82a.6.6,0,0,1,.15-.5c.57-.65,4-1.31,6.86-1.14a.68.68,0,0,0,.21-.38,3.53,3.53,0,0,1,.14-.56,3.48,3.48,0,0,0,.15-1.81c-.14-.86-.24-2,.41-2.33a.7.7,0,0,1,.91.27l.09.11v.13a2.87,2.87,0,0,0,.82,1.89,8.46,8.46,0,0,1,6.78-3,2.43,2.43,0,0,1,1.93,1,1,1,0,0,1,.08.95,1.74,1.74,0,0,1-.11.18l.73.37c.93.46,1.22.62,1.33.92V5a5.19,5.19,0,0,0,0,.69l.26.07a1.22,1.22,0,0,1,.81.53,1.47,1.47,0,0,1,.06,1A6.43,6.43,0,0,1,126.87,10.22Zm-1.08,0a4.73,4.73,0,0,0-1.91-2.3h0c-.57.38-1.59,1.15-1.77,1.81A27.45,27.45,0,0,0,125.79,10.22Zm-2.26-3.53v0a2.28,2.28,0,0,1-.51-.21l-.08,0a10.69,10.69,0,0,0-3.88,2.46,22.76,22.76,0,0,0,2.45.68,3.25,3.25,0,0,1,1.17-1.54,8.11,8.11,0,0,1,1-.7,1.52,1.52,0,0,0,.12-.59Zm-3.21,6.81.11-.11a19.12,19.12,0,0,1-1.8-4,19.84,19.84,0,0,1-1.88-.76,18,18,0,0,0,1.43,4.22,2.86,2.86,0,0,1,.74.32C119.5,13.5,119.88,13.69,120.32,13.5Zm-4.39,3.74a2.19,2.19,0,0,0,.74-1.67,1.67,1.67,0,0,1-.45-.34,15.34,15.34,0,0,0-1.91-1.59,4.89,4.89,0,0,1-1.84.42v.08a2.81,2.81,0,0,1-.53,1.21c.22,1.8,1.16,2.76,2.45,2.62a2.76,2.76,0,0,0,1.5-.73Zm-1.14,5.92h0a7.21,7.21,0,0,1,.58-1.92l.16-.43c.08-.21.14-.38.2-.51-1.73-1-2.74-.24-2.85-.14a4.12,4.12,0,0,1-1.52,1.26.79.79,0,0,0-.23.14,1.25,1.25,0,0,0-.12,1.77,2.48,2.48,0,0,0,2,.85A2.16,2.16,0,0,0,114.79,23.16Zm-5.08,2.52h0a3.18,3.18,0,0,0,1-1.26c.06-.13.12-.26.21-.42a2.31,2.31,0,0,1-.34-.36,1.74,1.74,0,0,1-.23-1.88H110a4.11,4.11,0,0,1-2.13-.61,3,3,0,0,1-.35-.27,7.4,7.4,0,0,1-.72.66,3.35,3.35,0,0,0-1.35,2,2.43,2.43,0,0,0,1.13,2.26S108.46,26.75,109.71,25.68ZM104,19.73h0a3.27,3.27,0,0,0,2.67-.61,4.45,4.45,0,0,0,2-2.56,1.74,1.74,0,0,1-.82-.49c-.53-.58-.58-.67-.67-1.13v-.1c-.63-.12-1.65.54-3,1.52a2.26,2.26,0,0,1-.27.95,2.23,2.23,0,0,0-.06,2.21v.06Zm4.75-9.83h0a15.56,15.56,0,0,1-1.33,1.21,1.87,1.87,0,0,1,.45,1.21l.23-.2c.48-.42.94-.87,1.37-1.33a5.26,5.26,0,0,0-.25-1.36Zm5.54-2.63h0a6.29,6.29,0,0,1-1.37-1.15c-.23.18-.4.46-.64.67a5.52,5.52,0,0,0-.82.62,30.78,30.78,0,0,1,.65,5.66,3.66,3.66,0,0,0,1.75-.35,1,1,0,0,1,.17-.1C115.39,11,114.63,8.28,114.28,7.27ZM110.54,16h0a3.41,3.41,0,0,0,1.4-1.85v-.1a1.31,1.31,0,0,1-.48-.12.63.63,0,0,1-.34-.59,13.48,13.48,0,0,0-.11-2.46l-.51.09a1.87,1.87,0,0,0-.66.15c-.54.55-.84.86-1.41,1.36l-.59.54a.94.94,0,0,1-.32.19v.58a1.44,1.44,0,0,0,0,.46.81.81,0,0,0,.07.32.45.45,0,0,1,.06.26c.07.38,0,.34.55.9A2.37,2.37,0,0,0,110.54,16Zm.1-7.72h0a8.3,8.3,0,0,0-1,.8,4.45,4.45,0,0,1,.35,1.48l.48-.08.51-.09C110.86,9.61,110.74,8.85,110.64,8.27Zm-3.59,3.16h0a6.11,6.11,0,0,1-2.18,1.19l.71.09a4,4,0,0,0,1.81,0V12.6C107.36,12,107.31,11.63,107.05,11.43Zm-2.62,1.64h.06c-.3.42-1.16,1.94-.49,2.65a.44.44,0,0,1,.08.11,6.07,6.07,0,0,1,3-1.51,1.94,1.94,0,0,1,0-.53v-.5h-.2a8.18,8.18,0,0,1-1.3-.13A5.77,5.77,0,0,0,104.43,13.07Zm11.81,6.45,0,0a2,2,0,0,0,.26-.25,3.4,3.4,0,0,1-.65-1.37,3.11,3.11,0,0,1-1.46.58h-.32a.56.56,0,0,0-.1.73,3.62,3.62,0,0,1,1.94.59A2.13,2.13,0,0,1,116.24,19.52ZM117,13.7h0a2.51,2.51,0,0,1,.38-.65l.15-.12a18.35,18.35,0,0,1-1.46-4.63c-.37-.18-.72-.37-1-.56A8.42,8.42,0,0,1,115.3,9a5.24,5.24,0,0,1-.63,3.77,14.28,14.28,0,0,1,2,1.59C116.79,14.07,116.9,13.86,117,13.7ZM116.59,8h0a16.63,16.63,0,0,0,1.91.78,10.15,10.15,0,0,1,4-2.65,5.61,5.61,0,0,1,0-.58s-4.57.4-5.94,2.4Zm5.18-3.19h0A14.15,14.15,0,0,1,120.26,4l-.3-.22c-.76.17-4,1-5.22,3.1l.05.12a14.07,14.07,0,0,0,1.25.73c1.25-2,5-2.58,6.11-2.72A2.69,2.69,0,0,1,121.77,4.77Zm-2.3-2.36h0c-1.58-.17-4,.52-6.14,3l-.08.08a.14.14,0,0,1,0,.09c0,.18.34.51,1,1a6.93,6.93,0,0,1,3.42-2.71,13.78,13.78,0,0,1,1.64-.56l.26-.06.44-.09h0l.37-.07a1.22,1.22,0,0,0,.24-.1V2.88A1.62,1.62,0,0,0,119.47,2.41Zm-14.71,8.53h0a4.06,4.06,0,0,0-1.19,1,1.57,1.57,0,0,0,.7.3c1.3-.08,2.53-1.11,3.66-2.17a5.47,5.47,0,0,0-1.4.09l-.41.08a.26.26,0,0,1-.24-.22.25.25,0,0,1,.2-.28l.39-.07a7.08,7.08,0,0,1,1.78-.1.33.33,0,0,1,.16.07l.07-.08.82-.75a10.41,10.41,0,0,1,.81-.68,16.41,16.41,0,0,0-5.66.63l.06,0c.81.65,1.22,1,1.07,1.47C105.45,10.51,105.22,10.66,104.76,10.94Zm-1,10.56h0a1.73,1.73,0,0,0,0,2v.06h.17a3.83,3.83,0,0,1,1.07,0v-.13a3.82,3.82,0,0,1,1.51-2.23c.22-.19.46-.4.69-.63a2.33,2.33,0,0,1-.44-.82,4.23,4.23,0,0,1-2.07.64,2.33,2.33,0,0,1-.59-.08A3.42,3.42,0,0,1,103.72,21.5Zm-.14,2.59h0c-2.3,1.81-1.62,3-1.17,3.74a2.32,2.32,0,0,1,.24.47,2.79,2.79,0,0,0,2.53.17,2.82,2.82,0,0,1,.31-.53,4,4,0,0,0,.76-1.78,3.11,3.11,0,0,1-1.3-2.11,3.55,3.55,0,0,0-1-.05h-.2Zm.54,7.32h0a2.28,2.28,0,0,0,1.69-1.12,1.81,1.81,0,0,1-.7-1.24,3.67,3.67,0,0,1-1.1.17,2.9,2.9,0,0,1-1.35-.33.68.68,0,0,1-.17.21,1.27,1.27,0,0,0-.28.81,1.46,1.46,0,0,0,.46,1.15A1.74,1.74,0,0,0,104.12,31.41Zm4.77-1.79h0a2.71,2.71,0,0,0,1.27-1.88l0-.43a6.38,6.38,0,0,0-.33-.82.75.75,0,0,1-.1-.2,2.75,2.75,0,0,1-1.51.42,4.33,4.33,0,0,1-1.55-.31,4.46,4.46,0,0,1-.82,1.83,1.89,1.89,0,0,0-.28.5,1.28,1.28,0,0,0,.59,1.24.19.19,0,0,1,.08.1h0A3.11,3.11,0,0,0,108.89,29.62Zm5-3v0a3,3,0,0,0,1-2.64v-.09a2.55,2.55,0,0,1-1.87.82H113a3.12,3.12,0,0,1-1.58-.43l-.16.34a3.46,3.46,0,0,1-1,1.35,2.56,2.56,0,0,0,.14.31,4.83,4.83,0,0,1,.4,1.06h0A4,4,0,0,0,113.94,26.63Zm1.46-3.18h0c2.3,0,2.45-.88,2.76-2.62,0-.27.09-.54.15-.82H118a1.74,1.74,0,0,1-1.13-.34c-.13.12-.24.2-.32.27-.26.21-.28.21-.57,1l-.18.42a5.93,5.93,0,0,0-.54,2.07Zm5.13-5.74v0a3.63,3.63,0,0,0-.24-3.13,2.81,2.81,0,0,1-1.84-.49c-.12-.06-.26-.18-.36-.18a3.07,3.07,0,0,0-.17.31,9.79,9.79,0,0,1-.69,1.22l-.09.06a.11.11,0,0,1,0,.08,2.67,2.67,0,0,1-.76,2,2.86,2.86,0,0,0,.69,1.59c.42.57,1.46.35,1.79.26A3.6,3.6,0,0,0,120.53,17.71Zm2.32-3.78v0s.08-.27-.24-.91l-.22-.43c-1.23-1.59-1.48-2.2-1.48-2.41-.54-.13-1.06-.28-1.55-.43a14.87,14.87,0,0,0,1.85,3.8.44.44,0,0,1,.15.12C121.6,13.81,122.64,14.11,122.85,13.93Zm.16-1.71v0c.41,0,2.34-.48,2.82-1.33a28.47,28.47,0,0,1-4.31-.6,15.1,15.1,0,0,0,1.34,2ZM38.81,8.58a20.76,20.76,0,0,0-.09-2.73c-1.21,0-3.82.19-5.68.41a6,6,0,0,0,0-2.74c2.83.09,4.22.16,8.07.16s5.24-.07,7.87-.16a6,6,0,0,0,0,2.74,53.52,53.52,0,0,0-5.52-.41c-.06.43-.06,1.55-.06,2.73v7.77c0,3.49.06,5.88.25,8.62a20.64,20.64,0,0,0-5.09,0c.19-2.74.25-5.13.25-8.62Zm16.34.94c4.78,0,7.6,3,7.6,7.61,0,5.07-3.13,8.2-7.6,8.2-3.68,0-7.59-2-7.59-7.56S51.24,9.52,55.15,9.52Zm.07,1.4c-1.9,0-3.08,2.24-3.08,6.92,0,3.49.75,6.13,3,6.13,1.92,0,3-2.46,3-7.31C58.16,13.09,57.26,10.92,55.22,10.92Zm18.35-.84a3.68,3.68,0,0,0-.09.82,3.37,3.37,0,0,0,.09.77l-2.73-.06c-.12,1.86-.22,5.25-.22,6.93,0,4.32.31,5,1.74,5a2.31,2.31,0,0,0,1.43-.31v1.27a7.09,7.09,0,0,1-3.38.82c-2.58,0-3.94-1.64-3.94-4.82,0-2.39.22-6.28.22-8.88H64.51a2.86,2.86,0,0,0,.1-.77,3.23,3.23,0,0,0-.1-.82l2.18.1c0-1.31,0-2.25-.12-3.83,1.42-.59,2.85-1.24,4.24-1.92l.31.21c-.15,1.34-.28,3.64-.28,5.5Zm2.3,1.61a9.4,9.4,0,0,1,5.8-2.17c3.27,0,5.67,1.4,5.67,5.06,0,2.64-.09,4.82-.09,7.06,0,2,.56,2.15,1.83,2.15v.74a5.52,5.52,0,0,1-2.85.82,3,3,0,0,1-2.94-2.27,4.79,4.79,0,0,1-4,2.27c-3.14,0-4.44-2.08-4.44-4.1,0-2.7,1.8-3.85,4.59-4.53,3.47-.82,3.78-1.09,3.78-2.21a2.73,2.73,0,0,0-3-2.71,5.2,5.2,0,0,0-3.72,1.72h-.22Zm7.36,5.2c-1.77,1-4.09.81-4.09,4,0,1.52.69,2.36,1.77,2.36,1.36,0,2.3-1.06,2.3-3.07,0-1.81.07-2.55.07-3.26Zm8.61-4.7c0-4.1-.1-7.24-.25-10.75a15.12,15.12,0,0,0,2.33.15,15.07,15.07,0,0,0,2.32-.15C96.08,5,96,8.12,96,12.19v2c0,4.09.09,7.24.25,10.76a17,17,0,0,0-4.65,0c.15-3.52.25-6.69.25-10.76ZM52.62,35.81c-1.47,4.22-4,10.87-5.31,15.25a13.85,13.85,0,0,0-1.58-.15,15,15,0,0,0-1.63.15c-1.33-5.44-5.77-20.1-6.23-21.43a26,26,0,0,0,2.6.15c.84,0,1.68-.06,2.51-.15,1.27,5.31,2.88,11.34,4.09,15.68h.06c1.83-5.22,4.46-12.8,5.33-15.68a8.08,8.08,0,0,0,3.1,0c.56,2.76,3.78,11.58,4.91,15.68h.06c1.58-5.22,4-13.23,4.59-15.68a7.1,7.1,0,0,0,1.3.15,8.45,8.45,0,0,0,1.42-.15C67,32,62.76,44.2,60.78,51.06a14.24,14.24,0,0,0-1.59-.15,14.73,14.73,0,0,0-1.63.15c-1.34-5.09-3-10.16-4.91-15.25Zm19.16-6.6a2.46,2.46,0,1,1-2.45,2.46A2.46,2.46,0,0,1,71.78,29.21ZM69.71,42.92c0-2.52-.07-4.72-.26-6.89a22.78,22.78,0,0,0,2.33.15A20.25,20.25,0,0,0,74.11,36c-.19,2.17-.25,4.37-.25,6.89v1.25c0,2.51.06,4.72.25,6.89a18.17,18.17,0,0,0-4.66,0c.19-2.17.26-4.38.26-6.89Zm12.38-4.56h.07a5.61,5.61,0,0,1,4.68-2.74c3.1,0,4.84,1.74,4.84,5.73,0,2.12-.13,3.61-.13,5.22,0,1.31.09,2.92.16,4.51a17.24,17.24,0,0,0-4.65,0,80.15,80.15,0,0,0,.34-8.9c0-2.57-.93-3.78-2.54-3.78-1.87,0-2.7,1.71-2.7,4.56v1.25c0,2.51.06,4.72.24,6.9a16.9,16.9,0,0,0-4.64,0c.18-2.18.25-4.39.25-6.9V42.92c0-2.52-.07-4.72-.25-6.89.74.06,1.46.15,2.2.15s1.45-.09,2.26-.15ZM99,43.54c0,3.36,1.3,5.9,4.15,5.9a5.7,5.7,0,0,0,3.81-1.39l.38.28-.69,1.74a7.28,7.28,0,0,1-4.71,1.4c-4,0-7.53-2.46-7.53-7.86s3-8,7.19-8,6.33,2.58,6.33,6.9a8.68,8.68,0,0,1,0,1Zm4.78-1.4c-.07-3.1-.69-5.12-2.3-5.12C99.61,37,99,39.72,99,42.14Zm-32,17.79a10.87,10.87,0,0,1-.74.91l.63.58-1.15,1.19c-.14-.11-.35-.27-.6-.49L69.74,62a4,4,0,0,1-1.15.52,4.68,4.68,0,0,1-1.23.13A3.31,3.31,0,0,1,65.14,62a1.88,1.88,0,0,1-.71-1.47c0-1.07.71-1.87,2.13-2.39a2.8,2.8,0,0,1-.41-1.34,1.58,1.58,0,0,1,.7-1.38,3,3,0,0,1,1.75-.5,2.89,2.89,0,0,1,1.69.47,1.41,1.41,0,0,1,.41,1.94,2.49,2.49,0,0,1-.58.59,7.27,7.27,0,0,1-.89.54l-.23.12.91,1.12.5-.57.11-.14Zm-3.19.87a17.77,17.77,0,0,1-1.25-1.48q-.9.47-.9,1a1,1,0,0,0,.09.42,1,1,0,0,0,.31.35,1.06,1.06,0,0,0,.52.13,2.29,2.29,0,0,0,1.25-.47Zm-.35-3.35A2.36,2.36,0,0,0,69,57a.76.76,0,0,0,.24-.47.4.4,0,0,0-.17-.32.6.6,0,0,0-.43-.14.69.69,0,0,0-.51.21.68.68,0,0,0-.2.49,1.63,1.63,0,0,0,.33.72ZM86,55.06l-1.63,7.42H82.42l1.37-5.67L81,62.48H79.35L79,56.85,78,62.48h-1.9l1.58-7.42h2.78l.28,4.71,2.35-4.71Zm4.82-.14a3.19,3.19,0,0,1,2.45.91,3.35,3.35,0,0,1,.82,2.24,5.68,5.68,0,0,1-.15,1.17,4.79,4.79,0,0,1-.57,1.36A4.35,4.35,0,0,1,91,62.45a5.28,5.28,0,0,1-1.31.16,3.61,3.61,0,0,1-2.46-.82,2.93,2.93,0,0,1-.88-2.26,5.29,5.29,0,0,1,.21-1.48,4.79,4.79,0,0,1,.67-1.36A3.88,3.88,0,0,1,89.52,55,6.56,6.56,0,0,1,90.78,54.92Zm-1,6a1.45,1.45,0,0,0,1.13-.5,3,3,0,0,0,.67-1.26,5,5,0,0,0,.21-1.09A1.52,1.52,0,0,0,91.44,57a1.26,1.26,0,0,0-.92-.36,1.42,1.42,0,0,0-1.07.46,2.94,2.94,0,0,0-.68,1.22,5.2,5.2,0,0,0-.22,1.3,1.43,1.43,0,0,0,.33.95,1.14,1.14,0,0,0,.89.36ZM96,55.06h4.21a1.83,1.83,0,0,1,1.5.48,1.86,1.86,0,0,1,.6,1.47,2.3,2.3,0,0,1-.54,1.52,2.62,2.62,0,0,1-1.71.82,8.46,8.46,0,0,1,1.67,3.11H99.24c-.21-.53-.44-1.12-.71-1.75a3.37,3.37,0,0,0-.62-1.11.72.72,0,0,0-.49-.15h-.11l-.64,3h-2.3Zm1.63,3H98a6,6,0,0,0,1.4-.1.85.85,0,0,0,.49-.34,1,1,0,0,0,.15-.47.53.53,0,0,0-.19-.44,1.27,1.27,0,0,0-.81-.16H98Zm12.42-3-.33,1.59h-3.76l-.26,1.18h3.63L109,59.34h-3.61L105,60.79h4.08l-.36,1.69h-6.35L104,55.06Z"></path></svg>