<svg xmlns="http://www.w3.org/2000/svg" fill="white" viewBox="0 0 160 64" role="img"><title>Onfleet Customer United Supermarkets</title><path d="M14.113,49.294c-1.613-1.059-3.656-.977-3.656-2.236,0-.8.644-1.12,1.5-1.12.285,0,.586.052.868.07v1.126c0,.256.062.313.313.313H14.7c.258,0,.3-.057.3-.313v-2.32c0-.728-1.949-1.032-3.133-1.032a3.707,3.707,0,0,0-4.032,3.665,2.869,2.869,0,0,0,1.34,2.538c1.512,1,3.729,1,3.729,2.293,0,.824-.636,1.141-1.381,1.141A4.554,4.554,0,0,1,9.912,53.1V52c0-.322-.018-.406-.322-.406H8.047c-.254,0-.326.067-.326.309v2.461c0,.737,2.692,1.3,4.028,1.3a3.57,3.57,0,0,0,3.888-3.633A3.113,3.113,0,0,0,14.113,49.294Z"></path><path d="M28.781,53.193h-.955a5.544,5.544,0,0,1-.228-1.925V44.475c0-.242-.042-.309-.318-.309H23.544c-.268,0-.313.067-.313.309v1.463c0,.249.045.315.313.315H24.7v6.236a2.915,2.915,0,0,1-1.944.93c-1.158,0-1.285-1.155-1.285-2V44.475c0-.242-.044-.309-.321-.309H17.431c-.27,0-.318.067-.318.309v1.463c0,.249.048.315.318.315h1.152V52.1c0,1.959.555,3.567,2.962,3.567a4.25,4.25,0,0,0,3.478-1.44c.173.484.184,1.056.728,1.056h3.03c.275,0,.318-.068.318-.326V53.5C29.1,53.279,29.056,53.193,28.781,53.193Z"></path><path d="M37.564,43.782a4.891,4.891,0,0,0-3.017,1.136c-.144-.411-.144-.752-.616-.752H30.767c-.273,0-.322.067-.322.309v1.463c0,.249.049.315.322.315h1.068c.224.246.224.724.224,1.957v9.527H30.905c-.277,0-.321.075-.321.311v1.468c0,.249.044.306.321.306h5.208c.273,0,.322-.057.322-.306V58.048c0-.236-.049-.311-.322-.311H34.95V55.073a4.217,4.217,0,0,0,2.364.6c2.968,0,4.184-2.208,4.184-6.158C41.5,45.734,40.084,43.782,37.564,43.782Zm-.947,9.637a2.82,2.82,0,0,1-1.667-.435v-6.1a2.542,2.542,0,0,1,1.824-.858c1.412,0,1.837,1.288,1.837,3.595C38.611,52.278,38.205,53.419,36.617,53.419Z"></path><path d="M48.443,43.782c-3.039,0-4.978,2.471-4.978,6.057,0,4.139,2.095,5.832,5.1,5.832,1.783,0,4.062-.747,4.062-1.336a.618.618,0,0,0-.062-.242L52,52.743a.3.3,0,0,0-.241-.191,8.36,8.36,0,0,1-2.9.746c-2.135,0-2.511-1.555-2.511-2.807h6.124c.437,0,.527-.138.527-.563C53,47.187,52.315,43.782,48.443,43.782Zm1.5,4.626H46.329l.014-.135c.076-.715.253-2.412,1.935-2.412,1.663,0,1.663,1.771,1.663,2.533Z"></path><path d="M123.644,43.782c-3.054,0-4.984,2.471-4.984,6.057,0,4.139,2.087,5.832,5.1,5.832,1.793,0,4.059-.747,4.059-1.336a.769.769,0,0,0-.062-.242l-.568-1.35a.311.311,0,0,0-.26-.191,7.975,7.975,0,0,1-2.892.746c-2.126,0-2.488-1.555-2.488-2.807h6.108c.447,0,.537-.138.537-.563C128.193,47.187,127.506,43.782,123.644,43.782Zm1.5,4.626h-3.616l0-.135c.073-.715.25-2.412,1.94-2.412,1.673,0,1.673,1.771,1.673,2.533Z"></path><path d="M62.076,43.782a3.693,3.693,0,0,0-2.811,1.775c-.167-.572-.256-1.391-.847-1.391H55.464c-.276,0-.321.067-.321.309v1.463c0,.249.045.315.321.315h1.092a6.111,6.111,0,0,1,.224,1.913v5.027H55.629c-.275,0-.324.055-.324.306v1.462c0,.258.049.326.324.326h5.262c.285,0,.327-.068.327-.326V53.5c0-.251-.042-.306-.327-.306H59.666V47.447c.3-.313,1.029-1.081,1.73-1.081a4.166,4.166,0,0,1,1.077.255c.089,0,.153-.144.179-.2l.707-1.9A.518.518,0,0,0,63.4,44.3C63.4,44,62.733,43.782,62.076,43.782Z"></path><path d="M82.4,53.193H81.246V47.335c0-1.973-.5-3.553-2.642-3.553a4.9,4.9,0,0,0-3.481,1.552,2.415,2.415,0,0,0-2.317-1.552,4.949,4.949,0,0,0-3.477,1.552c-.117-.506-.179-1.168-.732-1.168h-3.16c-.273,0-.318.067-.318.309v1.463c0,.222.045.315.318.315h1.095a5.712,5.712,0,0,1,.223,1.913v5.027H65.6c-.279,0-.319.055-.319.306v1.462c0,.258.04.326.319.326h5.215c.268,0,.312-.068.312-.326V53.5c0-.251-.044-.306-.312-.306H69.642V47.058a3.05,3.05,0,0,1,1.967-.916c.858,0,.948,1.033.948,1.892v6.927c0,.258.053.326.321.326h3.729c.276,0,.329-.068.329-.326V53.5c0-.251-.053-.306-.329-.306H75.449V47.058a3.01,3.01,0,0,1,1.952-.916c.863,0,.952,1.033.952,1.892v6.927c0,.258.045.326.327.326H82.4c.279,0,.332-.068.332-.326V53.5C82.729,53.248,82.676,53.193,82.4,53.193Z"></path><path d="M94.185,53.193h-.971A6.146,6.146,0,0,1,92.99,51.3V47.4c0-2.339-1.072-3.617-3.913-3.617-1.753,0-4.006.532-4.006,1.046a1.281,1.281,0,0,0,.071.282l.449,1.367c.035.1.114.233.226.233a11.6,11.6,0,0,1,2.825-.685c1.436,0,1.614.657,1.614,1.667v.7c-1.788,0-5.932,0-5.932,3.8a3.213,3.213,0,0,0,3.412,3.478,3.773,3.773,0,0,0,2.931-1.363c.1.407.143.979.679.979h2.839c.28,0,.326-.068.326-.326V53.5C94.511,53.248,94.44,53.193,94.185,53.193Zm-3.907-.476a2.451,2.451,0,0,1-1.721.867,1.483,1.483,0,0,1-1.524-1.546c0-1.2.952-1.824,2.83-1.824h.415Z"></path><path d="M103.074,43.782a3.662,3.662,0,0,0-2.815,1.775c-.16-.572-.256-1.391-.845-1.391H96.451c-.268,0-.312.067-.312.309v1.463c0,.249.044.315.312.315h1.1a6.327,6.327,0,0,1,.225,1.913v5.027H96.61c-.267,0-.317.055-.317.306v1.462c0,.258.05.326.317.326h5.276c.285,0,.32-.068.32-.326V53.5c0-.251-.035-.306-.32-.306h-1.225V47.447c.294-.313,1.031-1.081,1.734-1.081a4.453,4.453,0,0,1,1.068.255c.09,0,.156-.144.178-.2l.7-1.9a.6.6,0,0,0,.044-.228C104.388,44,103.731,43.782,103.074,43.782Z"></path><path d="M117.152,53.193h-1.094L112.5,48.949l3.213-2.7h1.178c.261,0,.307-.066.307-.315V44.475c0-.242-.046-.309-.307-.309h-5.025c-.273,0-.318.067-.318.309v1.463c0,.249.045.315.318.315h.936V46.3l-2.845,2.3V39.464c0-.264-.044-.322-.326-.322h-3.706c-.26,0-.317.058-.317.322v1.459c0,.241.057.325.317.325h1.136V53.193h-1.153c-.277,0-.322.055-.322.306v1.462c0,.258.045.326.322.326h5.211c.268,0,.3-.068.3-.326V53.5c0-.251-.036-.306-.3-.306h-1.162v-3.4h.036l3.924,5.26c.149.234.179.234.425.234h2.81c.3,0,.332-.068.332-.326V53.5C117.484,53.248,117.449,53.193,117.152,53.193Z"></path><path d="M137.176,52.783a.166.166,0,0,0-.178-.137,7.664,7.664,0,0,1-1.8.437c-.768,0-.768-.666-.768-1.381V46.253h2.2c.242,0,.367-.018.44-.315l.311-1.328a.559.559,0,0,0,.045-.22c0-.184-.178-.224-.4-.224h-2.592V41.008c0-.275-.019-.381-.242-.381-.129,0-.218.012-.281.012l-2,.284c-.331.038-.377.111-.377.4v2.841h-1.617c-.268,0-.316.067-.316.309v1.463c0,.249.048.315.316.315h1.617v5.073c0,2.071,0,4.345,2.941,4.345,1.548,0,3.205-.425,3.205-.836a.784.784,0,0,0-.044-.2Z"></path><path d="M145.786,49.294c-1.609-1.059-3.652-.977-3.652-2.236,0-.8.639-1.12,1.5-1.12.3,0,.59.052.868.07v1.126c0,.256.07.313.322.313h1.567c.245,0,.3-.057.3-.313v-2.32c0-.728-1.967-1.032-3.155-1.032a3.7,3.7,0,0,0-4.014,3.665,2.847,2.847,0,0,0,1.342,2.538c1.5,1,3.723,1,3.723,2.293,0,.824-.632,1.141-1.391,1.141a4.487,4.487,0,0,1-1.61-.317V52c0-.322-.027-.406-.322-.406h-1.546c-.25,0-.312.067-.312.309v2.461c0,.737,2.682,1.3,4.031,1.3a3.566,3.566,0,0,0,3.88-3.633A3.092,3.092,0,0,0,145.786,49.294Z"></path><path d="M22.051,37.015c4.933,0,8.644-1.63,10.949-3.8,3.765-3.581,3.765-8.332,3.765-12V4.178H26.574V24.161a4.859,4.859,0,0,1-1.221,3.885,4.615,4.615,0,0,1-3.221,1.148,4.372,4.372,0,0,1-3.21-1.18,4.9,4.9,0,0,1-1.18-3.853V4.178H7.6V23.2c.09,3.36.135,6.935,3.3,10.011C13.255,35.477,17.327,37.015,22.051,37.015Z"></path><path d="M55.6,12.117c-5.162,0-6.924,2.617-7.691,3.7V12.7H39.074V36.162H48.4V23.656c0-1.269.1-3.838,3.4-3.838,3.129,0,3.178,2.351,3.178,3.522V36.162H64.3V21.35c0-1.765-.125-4.9-2.351-7.066C61.176,13.564,59.325,12.117,55.6,12.117Z"></path><path d="M106.7,37.109c5.618,0,9.685-2.221,12.447-6.426l-7.7-3.214c-.948,1.9-2.12,3.024-4.246,3.024a3.74,3.74,0,0,1-2.817-1.095,4.424,4.424,0,0,1-1.135-3.288h16.4c-.094-3.586-.139-7.477-3.585-10.876a13.392,13.392,0,0,0-9.408-3.485c-7.617,0-12.917,4.93-12.917,12.586C93.742,30.851,98.006,37.109,106.7,37.109Zm-3.817-16.032c.24-1.109.848-3.869,4-3.869a3.633,3.633,0,0,1,3.585,2.76,4.87,4.87,0,0,1,.107.806c.009.115.027.223.027.333l.071.532h-7.906Z"></path><path d="M131.714,36.748a9.96,9.96,0,0,0,3.54-.586,5.078,5.078,0,0,0,2.4-1.72v1.72h9.071V4.178h-9.341v10.15a7.777,7.777,0,0,0-5.98-2.306c-5.118,0-10.235,3.669-10.235,11.862C121.167,31.268,125.02,36.748,131.714,36.748Zm-1.081-15.127c.811-2.944,3.04-2.944,3.366-2.944a3.5,3.5,0,0,1,3.25,2.713,9.1,9.1,0,0,1,.367,2.945c0,1.18,0,3.351-1.226,4.617A3.447,3.447,0,0,1,134.031,30a3.218,3.218,0,0,1-2.353-1c-.633-.676-1.313-1.946-1.313-4.614A13.48,13.48,0,0,1,130.633,21.621Z"></path><path d="M75.98,4.178a34.6,34.6,0,0,0-4.668,0,33.77,33.77,0,0,1-4.668,0v6.208H75.98Z"></path><path d="M75.98,29l-4.505,2.443,2.18-6.015L68.623,20.6H75l2.861-6.712,1.882,4.429h.04v.095l.934,2.188h6.37L82.059,25.43l2.181,6.015-4.586-2.482v.721a6.49,6.49,0,0,0,1.574,4.846c1.859,1.9,5.166,1.949,6.167,1.949a45.578,45.578,0,0,0,5.892-.5V29.583a9.425,9.425,0,0,1-1.681.187c-2.485,0-2.538-1.546-2.538-2.436l.1-9.019h4.064V12.7H89.21V5.859H79.841l0,6.842H66.644V36.162H75.98Z"></path><path d="M151.8,43.139A2.076,2.076,0,1,0,152.4,44.6,2,2,0,0,0,151.8,43.139Zm-.206,2.737a1.782,1.782,0,0,1-2.524,0,1.809,1.809,0,0,1,0-2.533,1.779,1.779,0,0,1,3.039,1.262A1.744,1.744,0,0,1,151.591,45.876Z"></path><path d="M151.233,45.587c0-.059-.006-.115-.006-.169v-.165a.647.647,0,0,0-.123-.354.561.561,0,0,0-.392-.221.888.888,0,0,0,.33-.112.5.5,0,0,0,.221-.448.564.564,0,0,0-.352-.577,1.731,1.731,0,0,0-.621-.082h-.8v2.274h.4V44.84h.316a.983.983,0,0,1,.447.073.554.554,0,0,1,.214.52v.18l.008.073.006.026,0,.021h.376l-.014-.028A.367.367,0,0,1,151.233,45.587Zm-.595-1.081a1.08,1.08,0,0,1-.382.052h-.362v-.827h.343a1.059,1.059,0,0,1,.485.085.41.41,0,0,1-.084.69Z"></path></svg>