<svg xmlns="http://www.w3.org/2000/svg" fill="white" viewBox="0 0 160 64" role="img"><title>Onfleet Customer Urbanstems</title><path d="M27.86,25.4a6.67,6.67,0,0,1,.71-.08l.68,0,.71,0a6.38,6.38,0,0,1,.71.08v7.82a8.05,8.05,0,0,0,.25,2.21,3,3,0,0,0,.77,1.38,2.75,2.75,0,0,0,1.25.7,6.69,6.69,0,0,0,1.7.19,8.75,8.75,0,0,0,2.46-.3v-12a6.47,6.47,0,0,1,.7-.08l.69,0,.7,0a6,6,0,0,1,.69.08V39.24a23.32,23.32,0,0,1-2.36.52,15.65,15.65,0,0,1-2.85.26,13.72,13.72,0,0,1-2.62-.24,5,5,0,0,1-2.17-1,4.85,4.85,0,0,1-1.48-2,9.45,9.45,0,0,1-.53-3.46ZM42,25.4c.21,0,.41-.06.6-.08a5.54,5.54,0,0,1,.59,0q.31,0,.63,0a4.89,4.89,0,0,1,.57.08c.06.28.11.64.17,1.1a8.91,8.91,0,0,1,.08,1.16A5.88,5.88,0,0,1,46.25,26a4.25,4.25,0,0,1,2.51-.69h.47l.41,0a4.21,4.21,0,0,1,.08.53,5.22,5.22,0,0,1,0,.58,5.69,5.69,0,0,1,0,.7c0,.24-.06.47-.1.69a1.78,1.78,0,0,0-.47-.06h-.38A5,5,0,0,0,47.3,28a3.08,3.08,0,0,0-1.25.74,3.61,3.61,0,0,0-.88,1.45,7.11,7.11,0,0,0-.32,2.36v7.1a6.32,6.32,0,0,1-.7.09c-.25,0-.48,0-.69,0s-.44,0-.7,0-.49,0-.72-.09Zm9.38-6.12a6.65,6.65,0,0,1,.7-.09c.26,0,.48,0,.69,0s.45,0,.71,0a6.22,6.22,0,0,1,.71.09v7.85a4.26,4.26,0,0,1,1.59-1.45,5.19,5.19,0,0,1,2.61-.61,6.69,6.69,0,0,1,2.4.42,4.77,4.77,0,0,1,1.9,1.29A6.14,6.14,0,0,1,64,29a10.43,10.43,0,0,1,.43,3.19,7.68,7.68,0,0,1-2.11,5.74A8.29,8.29,0,0,1,56.2,40a14.3,14.3,0,0,1-2.57-.24,13.9,13.9,0,0,1-2.22-.54Zm2.81,18.1a5.26,5.26,0,0,0,1.09.23,9.49,9.49,0,0,0,1.21.07,5.85,5.85,0,0,0,1.94-.31,4.14,4.14,0,0,0,1.54-1,4.73,4.73,0,0,0,1-1.67,6.74,6.74,0,0,0,.38-2.41,6.6,6.6,0,0,0-.82-3.59,3,3,0,0,0-2.72-1.28,4.45,4.45,0,0,0-1.29.2,3.67,3.67,0,0,0-1.18.67,3.43,3.43,0,0,0-.86,1.23,4.65,4.65,0,0,0-.32,1.85Zm19.36-7.1A2.67,2.67,0,0,0,72.73,28a4,4,0,0,0-2.47-.64,10.83,10.83,0,0,0-1.85.15,15.43,15.43,0,0,0-1.69.41,4.27,4.27,0,0,1-.53-2.2,14.76,14.76,0,0,1,2.12-.48,16,16,0,0,1,2.24-.16,6.5,6.5,0,0,1,4.31,1.26,5.09,5.09,0,0,1,1.47,4.05v8.94c-.66.15-1.46.3-2.41.46A17.17,17.17,0,0,1,71,40a11.35,11.35,0,0,1-2.51-.25,5.13,5.13,0,0,1-1.9-.81,3.72,3.72,0,0,1-1.2-1.41A4.64,4.64,0,0,1,65,35.46a4.29,4.29,0,0,1,.5-2.1,4.39,4.39,0,0,1,1.34-1.5,6,6,0,0,1,2-.89,8.78,8.78,0,0,1,2.32-.3c.6,0,1.1,0,1.49,0s.71.06,1,.1Zm0,2.7c-.28,0-.64-.08-1.08-.11s-.8-.06-1.1-.06a4.77,4.77,0,0,0-2.69.63,2.23,2.23,0,0,0-.92,2,2.33,2.33,0,0,0,.32,1.31,2,2,0,0,0,.78.72,2.69,2.69,0,0,0,1,.31,10.19,10.19,0,0,0,1.08.06,12.28,12.28,0,0,0,1.34-.07,8.68,8.68,0,0,0,1.23-.21Zm5.27-7.58c.2,0,.41-.06.61-.08a6.08,6.08,0,0,1,.61,0,5.35,5.35,0,0,1,.58,0c.18,0,.37,0,.58.08.06.28.11.66.17,1.13a9.7,9.7,0,0,1,.09,1.18,6,6,0,0,1,.72-.95,5.23,5.23,0,0,1,1-.85,4.88,4.88,0,0,1,1.3-.61,5.2,5.2,0,0,1,1.62-.24,4.54,4.54,0,0,1,3.68,1.41A6.24,6.24,0,0,1,91,30.63v9.05a6.18,6.18,0,0,1-.7.08l-.71,0-.7,0a6,6,0,0,1-.69-.08V31.39a5.38,5.38,0,0,0-.62-2.91,2.23,2.23,0,0,0-2-.93,4,4,0,0,0-1.5.28,3.45,3.45,0,0,0-1.25.87A4.31,4.31,0,0,0,82,30.21a6.82,6.82,0,0,0-.32,2.25v7.23a6.32,6.32,0,0,1-.7.09c-.25,0-.49,0-.69,0s-.45,0-.71,0a6.52,6.52,0,0,1-.71-.09ZM93.28,37.1a8.83,8.83,0,0,0,1.69.49,10.3,10.3,0,0,0,1.82.18A5.63,5.63,0,0,0,98,37.63a3.41,3.41,0,0,0,1-.41,2.34,2.34,0,0,0,.71-.69,1.56,1.56,0,0,0,.27-.9,1.82,1.82,0,0,0-.21-.92,1.84,1.84,0,0,0-.57-.61,3.73,3.73,0,0,0-.82-.43c-.31-.12-.65-.23-1-.35l-1-.36a7.25,7.25,0,0,1-2.64-1.51A3,3,0,0,1,93,29.2a3.68,3.68,0,0,1,1.38-3,6.3,6.3,0,0,1,4-1.11,11.24,11.24,0,0,1,2.17.21,12.9,12.9,0,0,1,1.85.49,6.2,6.2,0,0,1-.21,1.11,6.9,6.9,0,0,1-.38,1c-.42-.15-.92-.29-1.49-.43a8.48,8.48,0,0,0-1.86-.2,4.52,4.52,0,0,0-1.85.36,1.29,1.29,0,0,0-.81,1.28,1.57,1.57,0,0,0,.2.81,1.83,1.83,0,0,0,.54.57,3.17,3.17,0,0,0,.78.4l1,.33,1.24.42a10.56,10.56,0,0,1,1.29.53,4.07,4.07,0,0,1,1,.77,3.29,3.29,0,0,1,.7,1.11,4.42,4.42,0,0,1-.15,3.45,4.19,4.19,0,0,1-1.2,1.45,5.86,5.86,0,0,1-1.89.93,8.45,8.45,0,0,1-2.43.33,13.94,13.94,0,0,1-2.39-.18,11.72,11.72,0,0,1-1.9-.49,5.6,5.6,0,0,1,.24-1.12Q93.06,37.66,93.28,37.1Zm12.38-9.49h-2.22l-.11-.39,4.87-5.36h.23V25.4h3.69a4.93,4.93,0,0,1,.11,1.06c0,.21,0,.4,0,.59s0,.37-.08.56h-3.69v6.51a13.34,13.34,0,0,0,.1,1.87,2.64,2.64,0,0,0,.34,1.07,1.09,1.09,0,0,0,.65.5,3.73,3.73,0,0,0,1,.12,5.17,5.17,0,0,0,.91-.07c.28,0,.54-.1.77-.15a4.46,4.46,0,0,1,.24,1.14c0,.39,0,.74,0,1a10.69,10.69,0,0,1-1.2.21c-.41,0-.86.07-1.33.07a4.79,4.79,0,0,1-3.19-1,4,4,0,0,1-1.14-3.23V27.61Zm10.57,5.62a4.66,4.66,0,0,0,1.23,3.43,5,5,0,0,0,3.47,1.08,10.66,10.66,0,0,0,3.83-.69,4.37,4.37,0,0,1,.37,1,7,7,0,0,1,.17,1.18,9.62,9.62,0,0,1-2,.59,14.54,14.54,0,0,1-2.48.19,9.61,9.61,0,0,1-3.41-.54A6.09,6.09,0,0,1,115,37.94a5.81,5.81,0,0,1-1.35-2.34,9.53,9.53,0,0,1-.43-3,10.5,10.5,0,0,1,.41-3,6.92,6.92,0,0,1,1.26-2.39,6,6,0,0,1,2.14-1.61,7.14,7.14,0,0,1,3-.6,6.58,6.58,0,0,1,2.64.5,5.3,5.3,0,0,1,1.9,1.38A5.83,5.83,0,0,1,125.8,29a8.2,8.2,0,0,1,.4,2.63c0,.26,0,.53,0,.82s0,.53-.06.73Zm7.2-2.06a5.59,5.59,0,0,0-.21-1.49,3.82,3.82,0,0,0-.63-1.24,2.94,2.94,0,0,0-1-.85,3.23,3.23,0,0,0-1.51-.32,3.37,3.37,0,0,0-2.65,1,5,5,0,0,0-1.12,2.87Zm4.37-5.77c.2,0,.41-.06.61-.08a5.88,5.88,0,0,1,.6,0,5.54,5.54,0,0,1,.59,0c.18,0,.37,0,.58.08.06.28.11.64.17,1.1a9.14,9.14,0,0,1,.09,1.16,5.73,5.73,0,0,1,.63-1,4.46,4.46,0,0,1,.91-.81,4.6,4.6,0,0,1,2.71-.81,4.39,4.39,0,0,1,2.62.68,4.26,4.26,0,0,1,1.4,1.91,6.41,6.41,0,0,1,.7-.95,4.83,4.83,0,0,1,.92-.83,4.36,4.36,0,0,1,1.16-.59,4.56,4.56,0,0,1,1.48-.22,4.49,4.49,0,0,1,3.67,1.39,6.33,6.33,0,0,1,1.15,4.12v9.11a7,7,0,0,1-.71.08l-.71,0-.7,0a6.26,6.26,0,0,1-.69-.08v-8.3a5.52,5.52,0,0,0-.6-2.88,2.1,2.1,0,0,0-1.95-1,3,3,0,0,0-2.34,1,4.56,4.56,0,0,0-.89,3v8.08a6.26,6.26,0,0,1-.69.08l-.7,0-.69,0a6.47,6.47,0,0,1-.7-.08v-8.5a5.44,5.44,0,0,0-.57-2.79,1.94,1.94,0,0,0-1.81-.93,3,3,0,0,0-1.33.3,3.18,3.18,0,0,0-1.09.92,4.47,4.47,0,0,0-.74,1.55,7.77,7.77,0,0,0-.27,2.16v7.29a6.32,6.32,0,0,1-.7.09c-.25,0-.48,0-.69,0s-.44,0-.71,0a6.52,6.52,0,0,1-.71-.09Zm22.47,11.7a8.83,8.83,0,0,0,1.69.49,9.44,9.44,0,0,0,1.82.18,5.63,5.63,0,0,0,1.25-.14,3.41,3.41,0,0,0,1-.41,2.34,2.34,0,0,0,.71-.69,1.56,1.56,0,0,0,.27-.9,1.82,1.82,0,0,0-.21-.92,1.84,1.84,0,0,0-.57-.61,3.73,3.73,0,0,0-.82-.43c-.31-.12-.65-.23-1-.35l-1-.36a7.25,7.25,0,0,1-2.64-1.51A3.08,3.08,0,0,1,150,29.2a3.68,3.68,0,0,1,1.38-3,6.3,6.3,0,0,1,4-1.11,11.24,11.24,0,0,1,2.17.21,12.55,12.55,0,0,1,1.85.49,6.2,6.2,0,0,1-.21,1.11,6.9,6.9,0,0,1-.38,1c-.42-.15-.92-.29-1.49-.43a8.48,8.48,0,0,0-1.86-.2,4.49,4.49,0,0,0-1.85.36,1.29,1.29,0,0,0-.81,1.28,1.57,1.57,0,0,0,.2.81,1.83,1.83,0,0,0,.54.57,3.17,3.17,0,0,0,.78.4l.94.33,1.25.42a10.56,10.56,0,0,1,1.29.53,4.07,4.07,0,0,1,1.05.77,3.29,3.29,0,0,1,.7,1.11,4.42,4.42,0,0,1-.15,3.45,4.19,4.19,0,0,1-1.2,1.45,5.86,5.86,0,0,1-1.89.93,8.47,8.47,0,0,1-2.44.33,13.9,13.9,0,0,1-2.38-.18,11.72,11.72,0,0,1-1.9-.49,5.6,5.6,0,0,1,.24-1.12Q150,37.66,150.27,37.1ZM14.12,21.75l-2.63-2.58L8.85,21.75a9.06,9.06,0,0,1,2.64,3.77A9,9,0,0,1,14.12,21.75ZM22.34,35V20.36c-1.18,0-10.11.51-10.11,9.16V45S22.34,45,22.34,35ZM.61,20.36H.43V35c0,4.45,1.91,6.92,4.29,8.29V40l1.43.47v3.63a14,14,0,0,0,4.58.93V29.52C10.73,20.4.92,20.36.61,20.36ZM3.29,37.13l-1.43-.47V34l1.43.47Zm0-5-1.43-.47V29l1.43.47Zm0-5-1.43-.47V24l1.43.46ZM6.15,38.07,4.72,37.6V34.93l1.43.47Zm0-5L4.72,32.6V29.93l1.43.47Zm0-5-1.43-.47V24.93l1.43.47ZM9,39l-1.43-.47V35.82L9,36.29Zm0-5L7.57,33.5V30.82L9,31.3Zm0-5L7.57,28.5V25.83L9,26.3Z"></path></svg>