<svg xmlns="http://www.w3.org/2000/svg" fill="white" viewBox="0 0 160 64" role="img"> <title>Onfleet Customer Corodata</title> <path d="M105.4,21.4c0-0.2,0-0.3,0-0.5c0-2.2,0-4.5,0-6.7c0-0.1,0-0.2,0-0.4c0-0.2,0-0.3,0.3-0.3c1.3,0,2.6,0,3.9,0
		c0.2,0,0.3,0,0.3,0.3c0,0.1,0,0.2,0,0.4c0,7.2,0,14.4,0,21.6c0,0,0,0.1,0,0.1c0,0.5,0,0.5-0.5,0.5c-1.1,0-2.3,0-3.4,0
		c-0.4,0-0.4,0-0.4-0.4c0-0.5,0-1.1,0-1.7c-0.2,0.1-0.3,0.3-0.4,0.4c-0.8,1.1-1.9,1.8-3.2,2.1c-2.8,0.5-5.1-0.4-6.9-2.7
		c-1-1.3-1.4-2.8-1.6-4.4c-0.2-1.9,0-3.7,0.6-5.5c0.4-1.2,1-2.3,2-3.2c1.1-1.1,2.4-1.6,4-1.8c1.2-0.1,2.3,0,3.4,0.6
		c0.6,0.4,1.2,0.8,1.6,1.4C105.2,21.2,105.2,21.3,105.4,21.4z M105.6,28.1c0-1-0.1-1.9-0.5-2.9c-0.7-1.6-2-2.5-3.7-2.3
		c-1,0.1-1.8,0.5-2.3,1.4c-0.3,0.4-0.5,0.9-0.6,1.3c-0.4,1.2-0.4,2.4-0.2,3.7c0.1,0.8,0.3,1.6,0.8,2.3c0.4,0.7,0.9,1.1,1.7,1.4
		c1.5,0.4,3.4,0.2,4.4-1.9C105.4,30.1,105.5,29.1,105.6,28.1z"></path> <path d="M122.9,34.4c-0.4,0.3-0.7,0.6-1,0.8c-1.6,1.3-3.5,1.8-5.5,1.5c-2.4-0.4-3.9-2.1-4.1-4.5c0-0.6,0-1.2,0.2-1.9
		c0.3-1.5,1.2-2.6,2.6-3.3c1.1-0.5,2.3-0.7,3.6-0.9c0.9-0.1,1.7-0.2,2.6-0.4c0.2-0.1,0.4-0.1,0.6-0.2c0.6-0.3,0.9-0.7,0.9-1.3
		c0-0.7-0.3-1.2-1-1.4c-1-0.3-2-0.4-3-0.1c-0.7,0.2-1.1,0.6-1.3,1.2c-0.1,0.2-0.2,0.5-0.2,0.7c0,0.2-0.1,0.2-0.3,0.2
		c-1.3,0-2.6,0-4,0c0-0.6,0.1-1.2,0.2-1.7c0.5-1.9,1.8-3.1,3.6-3.7c2.7-0.8,5.4-0.6,8,0.5c1.4,0.6,2.1,1.7,2.3,3.2
		c0.1,0.4,0.1,0.8,0.1,1.3c0,3,0,6.1,0,9.1c0,0.3,0,0.7,0.1,1c0.1,0.4,0.3,0.7,0.6,0.9c0.2,0.2,0.3,0.4,0.2,0.7
		c0,0.2-0.2,0.1-0.3,0.1c-0.5,0-1,0-1.6,0c-0.8,0-1.7,0-2.5,0c-0.4,0-0.4,0-0.6-0.4C123.1,35.4,123,34.9,122.9,34.4z M122.8,28.1
		c-1.1,0.7-2.4,0.7-3.5,1c-0.3,0.1-0.6,0.1-0.9,0.2c-1.1,0.4-1.6,1.1-1.6,2.3c0.1,1.1,0.7,1.8,1.8,1.9c1,0.1,1.8-0.1,2.7-0.6
		c0.7-0.4,1.1-1,1.4-1.7C122.9,30.2,122.8,29.2,122.8,28.1z"></path> <path d="M140.2,24.9c0.2-3.1,1.8-4.8,3.9-5.4c2.6-0.7,5.2-0.6,7.7,0.4c1.7,0.7,2.5,1.9,2.6,3.7c0,0.3,0,0.5,0,0.8
		c0,3.1,0,6.1,0,9.2c0,0.3,0,0.6,0.1,1c0,0.4,0.2,0.8,0.6,1c0.3,0.1,0.3,0.3,0.3,0.6c0,0.2-0.1,0.3-0.3,0.3c-0.1,0-0.2,0-0.4,0
		c-1.3,0-2.5,0-3.8,0c-0.3,0-0.4-0.1-0.5-0.4c-0.2-0.5-0.2-1-0.3-1.5c-0.2,0.2-0.3,0.3-0.5,0.4c-1.1,1-2.3,1.7-3.8,1.9
		c-1.3,0.2-2.6,0.1-3.8-0.6c-1.5-0.8-2.3-2.1-2.4-3.8c-0.1-0.7,0-1.5,0.1-2.2c0.4-1.5,1.2-2.5,2.6-3.2c0.9-0.4,1.9-0.7,2.9-0.8
		c1-0.1,1.9-0.3,2.9-0.4c0.3,0,0.6-0.1,0.8-0.2c0.7-0.3,1.1-0.7,1-1.4c0-0.8-0.4-1.3-1.1-1.5c-0.4-0.1-0.7-0.2-1.1-0.2
		c-0.5-0.1-1.1,0-1.6,0.1c-0.7,0.2-1.3,0.6-1.6,1.3c-0.1,0.2-0.1,0.4-0.2,0.6c0,0.3-0.2,0.4-0.4,0.3c-0.6,0-1.2,0-1.9,0
		C141.6,24.9,140.9,24.9,140.2,24.9z M150.1,28.1c-1,0.6-2.1,0.7-3.2,0.9c-0.5,0.1-1,0.2-1.4,0.4c-0.9,0.3-1.4,1-1.4,1.9
		c-0.1,1.3,0.5,2.1,1.9,2.3c0.8,0.1,1.6-0.1,2.4-0.5c0.9-0.4,1.4-1.1,1.6-2.1C150.1,30.1,150.1,29.1,150.1,28.1z"></path> <path d="M52.6,18.9c1.1,0,2.4,0.2,3.6,0.6c1.1,0.5,2.1,1.2,2.8,2.1c1.6,2,2.2,4.4,2,6.9c-0.1,1.9-0.7,3.6-1.7,5.1
		c-1,1.4-2.3,2.3-3.9,2.7c-1.9,0.5-3.9,0.5-5.8,0c-2.2-0.6-3.8-2-4.7-4.1c-0.9-1.9-1.1-3.8-0.9-5.9c0.2-1.6,0.7-3,1.6-4.4
		c1.2-1.8,2.9-2.7,5-3.1C51.2,19,51.8,18.9,52.6,18.9z M56.4,27.8c0-0.4,0-1-0.1-1.5c-0.1-0.4-0.1-0.7-0.3-1.1
		c-0.7-2.1-2.3-2.9-4.5-2.5c-1.4,0.2-2.2,1.2-2.7,2.5c-0.4,1.2-0.5,2.5-0.4,3.7c0.1,0.8,0.2,1.5,0.6,2.2c0.4,0.8,1,1.4,1.8,1.8
		c2.2,0.9,4.4-0.1,5.2-2.3C56.3,29.7,56.4,28.8,56.4,27.8z"></path> <path d="M74.7,28c0-2.1,0.5-4,1.6-5.7c1.1-1.7,2.6-2.7,4.6-3.1c1.7-0.3,3.4-0.3,5,0c2,0.5,3.5,1.6,4.6,3.4c0.9,1.5,1.3,3.2,1.4,5
		c0,2.2-0.5,4.2-1.7,6.1c-1,1.5-2.5,2.4-4.2,2.8c-1.7,0.4-3.4,0.4-5.1,0c-2.5-0.5-4.1-2-5.2-4.2C74.9,30.9,74.6,29.4,74.7,28z
			M87.2,27.9c0-1.1-0.1-2.2-0.6-3.2c-0.5-1.1-1.3-1.8-2.5-2c-0.4-0.1-0.9-0.1-1.4-0.1c-1.1,0.1-2,0.6-2.6,1.5
		c-0.3,0.4-0.5,0.9-0.6,1.4c-0.4,1.6-0.4,3.2,0,4.7c0.6,2.2,2.4,3.3,4.6,2.8c1.4-0.3,2.2-1.2,2.6-2.4
		C87.1,29.8,87.2,28.8,87.2,27.9z"></path> <path d="M40,25.4c-0.6,0-1.3,0-1.9,0c-0.2,0-0.4-0.1-0.4-0.3c0-0.3-0.2-0.7-0.3-1c-0.4-0.9-1.1-1.3-2.1-1.4
		c-1.8-0.2-3,0.6-3.5,2.3c0,0,0,0.1-0.1,0.1c-0.4,1.8-0.5,3.6,0,5.5c0.1,0.4,0.2,0.7,0.4,1c0.5,0.9,1.3,1.4,2.3,1.5
		c0.3,0,0.5,0,0.8,0c1.1-0.1,1.8-0.6,2.2-1.6c0.1-0.4,0.2-0.7,0.3-1.1c0-0.2,0.1-0.3,0.3-0.3c1.3,0,2.7,0,4,0
		c0.2,0,0.2,0.1,0.2,0.3c-0.1,0.6-0.2,1.2-0.5,1.8c-1.2,2.9-3.4,4.4-6.6,4.6c-1,0-2.1,0-3.1-0.3c-1.9-0.5-3.3-1.6-4.2-3.4
		c-0.6-1.1-0.9-2.2-1-3.4c-0.2-1.7-0.1-3.4,0.4-5.1c0.9-3.4,3.4-5.4,6.9-5.5c1.2-0.1,2.3,0,3.5,0.3c2.5,0.6,4.1,2.2,4.5,4.8
		c0,0.2,0.1,0.5,0.1,0.7c0.1,0.5,0.1,0.5-0.5,0.5C41.2,25.4,40.6,25.4,40,25.4z"></path> <path d="M4.5,27.7c0-3,0-6,0-9.1c0-0.1,0-0.2,0-0.4c0-0.2,0.1-0.3,0.3-0.3c0.1,0,0.2,0,0.3,0c2.9,0,5.8,0,8.7,0c0.1,0,0.1,0,0.2,0
		c0.4,0,0.4,0,0.4,0.4c0,1.4,0,2.8,0,4.1c0,0.4,0,0.4-0.4,0.4c-1.2,0-2.3,0-3.5,0c-0.4,0-0.4,0-0.4,0.4c-0.1,2.7-0.1,5.5-0.2,8.2
		c0,0.7,0,0.6,0.6,0.6c1.2,0,2.4,0,3.5,0c0.4,0,0.4,0,0.4,0.4c0,1.5,0,2.9,0,4.4c0,0.4,0,0.4-0.4,0.4c-3,0-6,0-9.1,0
		c-0.4,0-0.4,0-0.4-0.5C4.5,33.9,4.5,30.8,4.5,27.7z"></path> <path d="M24.7,27.8c0,3,0,6,0,9c0,0.1,0,0.2,0,0.3c0,0.3-0.1,0.3-0.4,0.3c-2.9,0-5.9,0-8.8,0c-0.3,0-0.4-0.1-0.4-0.3
		c0-1.5,0-3,0-4.6c0-0.3,0.1-0.3,0.4-0.3c1.1,0,2.2,0,3.3,0c0.1,0,0.2,0,0.4,0c0.2,0,0.3-0.1,0.3-0.3c0-0.1,0-0.2,0-0.3
		c0-2.7,0-5.4,0-8c0,0,0,0,0-0.1c0-0.6,0-0.5-0.5-0.5c-1.1,0-2.2,0-3.2,0c-0.1,0-0.2,0-0.4,0c-0.1,0-0.2-0.1-0.2-0.2
		c0-0.1,0-0.2,0-0.3c0-1.4,0-2.7,0-4.1c0-0.4,0-0.4,0.4-0.4c2.9,0,5.8,0,8.7,0c0.4,0,0.4,0,0.4,0.5C24.7,21.6,24.7,24.7,24.7,27.8z
		"></path> <path d="M131.3,28.2c0-1.7,0-3.3,0-5c0-0.6,0.1-0.5-0.6-0.5c-0.5,0-1,0-1.5,0c-0.2,0-0.3-0.1-0.3-0.3c0-0.8,0-1.7,0-2.5
		c0-0.2,0.1-0.3,0.3-0.3c0.6,0,1.1,0,1.7,0c0.4,0,0.4,0,0.4-0.4c0-1.2,0-2.4,0-3.6c0-0.1,0-0.2,0-0.4c0-0.4,0-0.4,0.4-0.4
		c0.7,0,1.4,0,2.1,0c0.5,0,0.9,0,1.4,0c0.5,0,0.5,0,0.5,0.5c0,1.2,0,2.5,0,3.7c0,0.1,0,0.2,0,0.3c0,0.2,0.1,0.3,0.3,0.3
		c0.6,0,1.2,0,1.9,0c0.1,0,0.2,0,0.4,0c0.2,0,0.2,0.1,0.2,0.2c0,0.4,0,0.7,0,1.1c0,0.5,0,0.9,0,1.4c0,0.3-0.1,0.3-0.4,0.3
		c-0.7,0-1.3,0-2,0c-0.4,0-0.4,0-0.4,0.4c0,2.8,0,5.7,0,8.5c0,0.3,0,0.6,0.1,0.9c0.1,0.3,0.2,0.5,0.5,0.5c0.6,0.1,1.2,0.1,1.8,0.1
		c0.3,0,0.3,0,0.3,0.3c0,0.9,0,1.8,0,2.6c0,0.2,0,0.3-0.3,0.3c-1.3,0.1-2.6,0.2-3.9,0c-0.4-0.1-0.8-0.2-1.2-0.3
		c-1.2-0.5-1.7-1.5-1.7-2.8C131.3,31.6,131.3,29.9,131.3,28.2z"></path> <path d="M68,22.1c0.2-0.1,0.3-0.3,0.3-0.4c0.3-0.4,0.5-0.8,0.8-1.1c1.1-1.3,2.5-1.7,4.1-1.6c0.2,0,0.3,0.1,0.3,0.3
		c0,1.3,0,2.6,0,3.9c0,0.2-0.1,0.3-0.3,0.3c-0.4,0-0.8,0-1.2,0c-0.3,0-0.7,0-1,0.1c-1.6,0.3-2.5,1.3-2.8,2.9
		c-0.1,0.6-0.1,1.1-0.1,1.7c0,2.4,0,4.9,0,7.3c0,0.1,0,0.2,0,0.3c0,0.4,0,0.4-0.4,0.4c-1.2,0-2.4,0-3.6,0c-0.4,0-0.4,0-0.4-0.4
		c0-1.7,0-3.4,0-5.1c0-3.6,0-7.2,0-10.7c0-0.1,0-0.2,0-0.4c0-0.2,0.1-0.3,0.3-0.3c1.2,0,2.5,0,3.7,0c0.2,0,0.3,0.1,0.3,0.3
		c0,0.6,0,1.2,0,1.8C68,21.7,68,21.9,68,22.1z"></path> <path d="M14.8,24.2c1.1,0,2.3,0,3.4,0c0.4,0,0.4,0,0.4,0.4c0,2,0,4,0,6c0,0.3,0,0.4-0.4,0.4c-2.3,0-4.5,0-6.8,0
		c-0.4,0-0.4,0-0.4-0.4c0-2,0-4,0-6c0-0.4,0-0.4,0.4-0.4C12.6,24.2,13.7,24.2,14.8,24.2z"></path> <path d="M7.2,48.7c-0.1,0-0.3,0-0.4,0c-1.2-0.1-2.1-0.9-2.1-2.1c-0.1-1.6,0.4-3,1.6-4c1.1-0.9,2.3-1.1,3.6-0.7
		c0.9,0.3,1.4,0.9,1.4,1.8c0.1,1.7-0.4,3.1-1.7,4.2C8.9,48.4,8.1,48.7,7.2,48.7z M8.6,42.5C8,42.4,7.5,42.6,7,43
		c-1,0.8-1.7,2.5-1.3,3.8c0.1,0.5,0.4,0.9,1,1c1.1,0.3,2.1,0,2.8-0.9c0.6-0.8,0.9-1.6,0.9-2.6C10.5,43.1,9.7,42.4,8.6,42.5z"></path> <path d="M55.4,48.4c0.2-1,0.4-2,0.6-3c0-0.1,0.1-0.3,0.1-0.4c0-0.4-0.2-0.7-0.6-0.6c-0.6,0-1,0.3-1.3,0.8c-0.2,0.3-0.2,0.6-0.3,1
		c-0.1,0.7-0.3,1.3-0.4,2c-0.1,0.4-0.1,0.4-0.5,0.4c-0.1,0-0.3,0-0.4-0.1c0.3-1.5,0.6-2.9,0.9-4.4c0.1-0.2,0.2-0.4,0.4-0.3
		c0.1,0,0.3,0,0.4,0c0.1,0.1-0.1,0.3,0.1,0.5c0.4-0.3,0.8-0.6,1.4-0.6c0.5,0,1,0.1,1.2,0.6c0.2,0,0.3-0.2,0.4-0.3
		c0.5-0.4,1.1-0.4,1.6-0.3c0.5,0.1,0.7,0.4,0.8,0.8c0.1,0.3,0,0.6-0.1,1c-0.2,0.9-0.4,1.7-0.6,2.6c-0.1,0.5-0.1,0.5-0.6,0.5
		c-0.1,0-0.2,0-0.3-0.1c0.2-0.7,0.3-1.5,0.5-2.3c0.1-0.3,0.2-0.7,0.2-1c0.1-0.5-0.1-0.8-0.7-0.8c-0.6,0-1.1,0.4-1.3,1
		c-0.1,0.4-0.2,0.8-0.3,1.2c-0.1,0.5-0.2,1-0.3,1.5c-0.1,0.4-0.1,0.4-0.5,0.4C55.7,48.5,55.6,48.5,55.4,48.4z"></path> <path d="M125.9,43.7c-0.1,0.6-0.2,1.1-0.3,1.7c-0.2,1-0.4,1.9-0.6,2.9c0,0.2-0.1,0.3-0.1,0.5c-0.5,1.5-1.7,1.9-3.1,1.7
		c-0.7-0.1-1.1-0.5-1.1-1.1c0-0.2,0.1-0.3,0.3-0.3c0.1,0,0.2,0,0.3,0c0.2,0,0.2,0,0.3,0.2c0.1,0.4,0.3,0.5,0.7,0.5
		c1.1,0.1,1.9-0.6,1.9-1.8c-0.4,0.2-0.7,0.5-1.1,0.5c-0.3,0-0.6,0-0.9-0.1c-0.6-0.2-0.9-0.6-1-1.2c-0.1-1,0.2-1.9,0.8-2.8
		c0.3-0.4,0.7-0.7,1.1-0.8c0.7-0.3,1.4-0.2,2,0.4c0.2-0.1,0.1-0.4,0.3-0.4C125.4,43.6,125.6,43.7,125.9,43.7z M124.7,45.6
		c0.1-1-0.5-1.6-1.5-1.2c-0.3,0.1-0.5,0.3-0.7,0.6c-0.4,0.6-0.5,1.2-0.6,1.9c0,0.1,0,0.3,0.1,0.4c0.1,0.4,0.4,0.6,0.8,0.6
		c0.6,0,1-0.2,1.4-0.7C124.5,46.6,124.7,46,124.7,45.6z"></path> <path d="M16.9,41.8c0,0.2,0,0.3-0.1,0.4c0,0.2-0.1,0.3-0.3,0.3c-0.4,0-0.6,0.2-0.7,0.5c0,0.1,0,0.1,0,0.2
		c-0.1,0.4-0.1,0.4,0.3,0.4c0.1,0,0.2,0,0.3,0.1c0.1,0.1,0,0.2,0,0.3c0,0.2-0.1,0.3-0.4,0.3c-0.5,0-0.5,0-0.6,0.5
		c-0.2,1-0.4,2.1-0.7,3.1c-0.1,0.5-0.1,0.5-0.7,0.5c-0.1,0-0.1,0-0.3,0c0.3-1.4,0.6-2.7,0.9-4.1c-0.4,0-0.8,0-1.2,0
		c-0.2,0-0.3,0.1-0.4,0.3c-0.2,0.8-0.3,1.6-0.5,2.5c-0.1,0.3-0.2,0.7-0.2,1c0,0.3-0.2,0.4-0.4,0.3c-0.1,0-0.3,0-0.4-0.1
		c0.3-1.3,0.6-2.7,0.9-4.1c-0.2,0-0.4,0-0.6,0c-0.1-0.1,0-0.2,0-0.3c0-0.3,0.1-0.4,0.4-0.3c0.3,0,0.4-0.1,0.4-0.3
		c0-0.2,0.1-0.4,0.1-0.5c0.2-0.6,0.5-0.9,1.2-1c0.2,0,0.4,0,0.6,0c0.1,0.2,0,0.3,0,0.4c0,0.2-0.1,0.3-0.3,0.3c-0.4,0-0.8,0.6-0.7,1
		c0,0.1,0.1,0.1,0.2,0.1c0.3,0,0.7,0,1,0c0.2,0,0.2-0.1,0.3-0.3c0-0.2,0.1-0.4,0.1-0.6c0.2-0.7,0.6-1,1.3-1c0.1,0,0.2,0,0.3,0
		C16.7,41.8,16.8,41.8,16.9,41.8z"></path> <path d="M134.8,48.1c-0.2,0.7-0.3,1.4-0.4,2c0,0.3-0.2,0.4-0.4,0.3c-0.1,0-0.3,0-0.4,0c-0.1-0.1,0-0.2,0-0.3c0.4-2,0.8-4,1.3-5.9
		c0-0.1,0-0.4,0.2-0.4c0.2,0,0.4-0.1,0.6,0c0.2,0,0,0.3,0.1,0.4c0.1,0,0.2-0.1,0.3-0.2c0.5-0.3,1.1-0.4,1.7-0.3
		c0.6,0.1,1,0.5,1,1.1c0.2,1.3-0.2,2.4-1.1,3.3c-0.2,0.2-0.5,0.4-0.7,0.5C136.1,48.7,135.4,48.7,134.8,48.1z M137.9,45.4
		c0-0.4-0.1-0.9-0.5-1.1c-0.5-0.2-0.9-0.1-1.3,0.2c-0.2,0.1-0.3,0.3-0.4,0.4c-0.4,0.6-0.5,1.2-0.6,1.9c0,0.2,0,0.3,0.1,0.4
		c0.1,0.4,0.4,0.6,0.8,0.7c0.6,0,1.1-0.3,1.4-0.8C137.7,46.6,137.8,46,137.9,45.4z"></path> <path d="M60.9,45.1c0.2-0.9,0.7-1.3,1.5-1.5c0.5-0.1,1.1-0.1,1.6,0.1c0.6,0.2,0.8,0.6,0.7,1.2c-0.2,0.8-0.3,1.6-0.5,2.4
		c0,0.1,0,0.2-0.1,0.3c0,0.1,0,0.2,0.2,0.3c0.1,0,0.3,0,0.2,0.2c0,0.2-0.1,0.4-0.3,0.4c-0.6,0.1-0.8,0-1-0.6
		c-0.2,0.1-0.4,0.2-0.6,0.3c-0.5,0.3-1,0.4-1.6,0.3c-0.6-0.1-1-0.6-0.9-1.2c0.1-0.9,0.7-1.5,1.7-1.7c0.5-0.1,1-0.1,1.5-0.2
		c0.4-0.1,0.6-0.3,0.6-0.6c0-0.3-0.1-0.5-0.3-0.6c-0.5-0.2-1.5-0.2-1.8,0.6c-0.1,0.2-0.2,0.2-0.3,0.2
		C61.2,45.1,61.1,45.1,60.9,45.1z M63.6,46.1c-0.6,0.2-1.2,0.2-1.7,0.3c-0.4,0.1-0.6,0.3-0.8,0.6c-0.2,0.5,0,0.8,0.6,0.9
		c0.9,0.1,1.7-0.5,1.9-1.3C63.6,46.5,63.6,46.3,63.6,46.1z"></path> <path d="M85,48c-0.2,0-0.3,0.2-0.4,0.2c-0.3,0.2-0.7,0.3-1.1,0.4c-0.7,0.1-1.2-0.1-1.5-0.5c-0.3-0.5-0.1-1.2,0.3-1.7
		c0.4-0.4,0.8-0.6,1.3-0.7c0.5-0.1,0.9-0.1,1.4-0.2c0.4-0.1,0.6-0.3,0.6-0.7c0-0.3-0.1-0.5-0.3-0.6c-0.5-0.2-1.5-0.2-1.8,0.6
		c-0.1,0.2-0.1,0.2-0.3,0.2c-0.2,0-0.3,0-0.5,0c0.1-0.5,0.3-0.9,0.8-1.2c0.7-0.4,1.5-0.4,2.3-0.2c0.6,0.2,0.9,0.6,0.7,1.2
		c-0.2,0.8-0.3,1.6-0.5,2.4c0,0.1,0,0.2-0.1,0.3c0,0.1,0,0.2,0.2,0.2c0.1,0,0.3,0,0.2,0.2c0,0.2,0,0.4-0.3,0.4
		C85.5,48.7,85.2,48.5,85,48z M85.4,46.1c-0.5,0.1-0.9,0.2-1.4,0.2c-0.3,0-0.6,0.1-0.9,0.3c-0.2,0.2-0.4,0.6-0.3,0.9
		c0.1,0.3,0.4,0.4,0.8,0.4c0.1,0,0.2,0,0.3,0C84.9,47.7,85.2,47.2,85.4,46.1z"></path> <path d="M130.3,47c-0.5,1.2-1.7,1.9-2.9,1.6c-0.7-0.1-1.2-0.7-1.3-1.4c-0.1-1.2,0.3-2.2,1.2-2.9c0.6-0.5,1.2-0.7,2-0.6
		c0.9,0.1,1.4,0.6,1.4,1.5c0,0,0,0.1,0,0.1c0,0.4,0.1,0.8-0.2,1.1c-0.2,0.2-0.6,0.1-1,0.1c-0.7,0-1.5,0-2.2,0
		c-0.2,0-0.4,0.1-0.3,0.3c0,0.2,0,0.4,0,0.6c0.1,0.5,0.4,0.7,0.8,0.8c0.6,0.1,1.1-0.1,1.4-0.6C129.5,46.9,129.9,46.9,130.3,47z
			M127.3,45.7c0.8,0,1.6,0,2.3,0c0.3,0,0.3-0.1,0.3-0.3c0-0.8-0.4-1.2-1.2-1.1C128,44.3,127.4,44.9,127.3,45.7z"></path> <path d="M32.2,47c-0.6,1.5-2.1,1.9-3.1,1.6C28.5,48.4,28,47.8,28,47c0-1.2,0.4-2.2,1.4-3c0.6-0.4,1.2-0.5,1.9-0.4
		c0.8,0.1,1.3,0.7,1.3,1.5c0,0.3,0,0.5-0.1,0.8c-0.1,0.5,0,0.5-0.6,0.5c-0.9,0-1.8,0-2.6,0c-0.4,0-0.5,0-0.5,0.4
		c0,0.9,0.5,1.3,1.3,1.1c0.4-0.1,0.7-0.3,1-0.6C31.6,46.9,31.6,46.9,32.2,47z M29.1,45.6c0.2,0.1,0.3,0.1,0.4,0.1c0.7,0,1.3,0,2,0
		c0.2,0,0.2-0.1,0.2-0.2c0.1-0.8-0.5-1.4-1.3-1.2C29.8,44.4,29.4,44.9,29.1,45.6z"></path> <path d="M93.7,47.4c0.2-0.2,0.2-0.3,0.3-0.5c0.5-0.9,1-1.9,1.5-2.8c0.2-0.4,0.4-0.5,0.8-0.5c0.1,0,0.2,0,0.3,0.1c0,0,0,0.1,0,0.1
		c-1,1.7-2,3.5-3,5.2c-0.2,0.3-0.4,0.6-0.6,0.8c-0.4,0.5-0.9,0.6-1.4,0.6c-0.2,0-0.3-0.1-0.2-0.3c0-0.1,0-0.2,0.1-0.3
		c0-0.1,0.1-0.2,0.3-0.2c0.5,0.1,0.8-0.2,1-0.5c0.3-0.4,0.3-0.7,0.2-1.2c-0.2-1.4-0.4-2.8-0.6-4.2c0.1-0.1,0.1-0.1,0.2-0.1
		c0.8,0,0.7-0.1,0.8,0.7c0.1,0.9,0.2,1.8,0.3,2.7C93.6,47.1,93.7,47.2,93.7,47.4z"></path> <path d="M46.6,48.6c-1.2,0-1.9-0.6-1.9-1.7c0-1,0.3-1.8,1-2.5c0.6-0.6,1.3-0.9,2.2-0.9c0.9,0.1,1.6,0.7,1.6,1.6
		c0,1.1-0.4,2.1-1.2,2.9C47.7,48.4,47.1,48.6,46.6,48.6z M48.5,45.5c0-0.8-0.2-1.2-0.7-1.3c-0.5-0.1-1.1-0.1-1.5,0.4
		c-0.7,0.7-0.9,1.6-0.8,2.5c0,0.4,0.3,0.7,0.7,0.8c0.6,0.1,1.1,0,1.5-0.5C48.3,46.8,48.5,46.1,48.5,45.5z"></path> <path d="M152.8,48.6c-0.3,0-0.6,0-0.8-0.1c-0.5-0.2-0.9-0.8-0.8-1.4c0-0.1,0.1-0.2,0.2-0.2c0.1,0,0.2,0,0.4,0c0.2,0,0.2,0,0.3,0.2
		c0.1,0.6,0.3,0.7,0.8,0.8c0.3,0,0.7,0,1-0.2c0.2-0.1,0.3-0.2,0.4-0.4c0.2-0.4,0.1-0.7-0.3-0.8c-0.3-0.1-0.7-0.2-1.1-0.3
		c-0.2-0.1-0.4-0.1-0.6-0.2c-0.5-0.2-0.7-0.6-0.5-1.2c0.2-0.7,0.7-1.1,1.4-1.3c0.5-0.2,1.1-0.2,1.6,0c0.5,0.2,0.8,0.6,0.8,1.1
		c0,0.2-0.1,0.3-0.3,0.3c-0.2,0-0.3,0-0.4,0c-0.1-0.1-0.1-0.2-0.1-0.4c-0.1-0.3-0.5-0.5-1.1-0.5c-0.5,0-0.8,0.3-0.9,0.6
		c-0.1,0.2,0,0.4,0.2,0.6c0.2,0.1,0.4,0.2,0.7,0.2c0.4,0.1,0.8,0.2,1.1,0.3c0.4,0.2,0.6,0.5,0.5,0.9c0,0.9-0.8,1.7-1.9,1.8
		C153.2,48.7,153,48.6,152.8,48.6z"></path> <path d="M20.7,48.6c-0.2,0-0.5,0-0.7,0c-0.7-0.2-1-0.7-0.9-1.4c0-0.2,0.1-0.3,0.2-0.2c0.1,0,0.2,0,0.4,0c0.1,0,0.2,0.1,0.2,0.2
		c0.1,0.6,0.3,0.7,0.9,0.8c0.3,0,0.6,0,0.9-0.1c0.2-0.1,0.4-0.2,0.5-0.4c0.2-0.4,0.1-0.6-0.3-0.7c-0.3-0.1-0.7-0.2-1.1-0.3
		c-0.2-0.1-0.4-0.1-0.6-0.2c-0.6-0.3-0.8-0.7-0.6-1.3c0.2-0.7,0.8-1.1,1.5-1.3c0.4-0.1,0.8-0.1,1.2,0c0.6,0.1,1,0.6,1,1.2
		c0,0.2-0.1,0.3-0.3,0.3c-0.4,0-0.4,0-0.6-0.4c-0.1-0.4-0.5-0.5-1.1-0.5c-0.5,0-0.8,0.3-0.9,0.6c-0.1,0.3,0,0.5,0.3,0.6
		c0.2,0.1,0.4,0.1,0.6,0.2c0.3,0.1,0.7,0.2,1,0.3c0.6,0.2,0.8,0.6,0.6,1.3c-0.2,0.8-0.9,1.4-1.8,1.5C21,48.7,20.8,48.6,20.7,48.6z"></path> <path d="M101,45.4c-0.1,0.8-0.4,1.7-1.1,2.4c-0.7,0.7-1.6,0.9-2.5,0.7c-0.6-0.1-1-0.7-1.1-1.3c-0.1-1.1,0.2-2.1,1-2.9
		c0.5-0.6,1.2-0.8,1.9-0.8C100.4,43.5,101,44.2,101,45.4z M98.3,47.9c0.5,0,1-0.2,1.3-0.7c0.4-0.6,0.6-1.2,0.6-1.9
		c0-0.2,0-0.4-0.1-0.6c-0.1-0.3-0.3-0.5-0.6-0.6c-0.5-0.1-1-0.1-1.4,0.3c-0.7,0.7-1,1.6-0.9,2.6C97.3,47.7,97.6,47.9,98.3,47.9z"></path> <path d="M74.3,45.4c-0.1,0.8-0.4,1.7-1.1,2.4c-0.7,0.7-1.6,0.9-2.5,0.7c-0.6-0.1-1-0.7-1.1-1.3c-0.1-1.1,0.2-2.1,1-3
		c0.5-0.5,1.2-0.8,1.9-0.8C73.6,43.5,74.3,44.2,74.3,45.4z M71.6,47.9c0.5,0,0.9-0.2,1.2-0.6c0.4-0.6,0.6-1.2,0.7-1.9
		c0-0.2,0-0.4-0.1-0.6c-0.1-0.3-0.3-0.5-0.6-0.6c-0.5-0.1-1-0.1-1.4,0.3c-0.7,0.7-1,1.6-0.9,2.5C70.6,47.7,70.9,47.9,71.6,47.9z"></path> <path d="M106.1,43.7c-0.3,1.3-0.5,2.6-0.8,3.9c0,0.1,0,0.1,0,0.2c-0.1,0.7-0.1,0.7-0.9,0.6c-0.1-0.1,0.1-0.3,0-0.4
		c0,0-0.1,0-0.1,0c-0.6,0.5-1.2,0.7-2,0.5c-0.5-0.1-0.8-0.4-0.8-1c0-0.5,0.1-0.9,0.2-1.3c0.1-0.7,0.3-1.5,0.5-2.2
		c0.1-0.4,0.1-0.4,0.5-0.4c0.1,0,0.3,0,0.4,0.1c-0.2,0.8-0.3,1.6-0.5,2.4c-0.1,0.3-0.2,0.7-0.2,1c0,0.5,0.2,0.7,0.7,0.7
		c0.6,0,1-0.2,1.3-0.6c0.3-0.4,0.4-0.9,0.5-1.3c0.1-0.6,0.3-1.3,0.4-1.9c0-0.3,0.2-0.4,0.4-0.3C105.8,43.7,105.9,43.6,106.1,43.7z"></path> <path d="M116,48.4c0.3-1.5,0.6-3,0.9-4.4c0-0.1,0-0.3,0.2-0.3c0.2,0,0.4,0,0.6,0c0,0,0,0,0,0.1c0,0.1-0.1,0.2,0,0.3
		c0.1,0.1,0.2-0.1,0.4-0.1c0.5-0.3,1-0.4,1.5-0.3c0.6,0.1,0.9,0.4,1,1c0,0.3,0,0.6-0.1,0.9c-0.2,0.8-0.3,1.7-0.5,2.5
		c-0.1,0.5-0.1,0.4-0.6,0.4c-0.1,0-0.2,0-0.3,0c0-0.5,0.2-0.9,0.2-1.3c0.1-0.5,0.2-1.1,0.3-1.6c0-0.1,0-0.2,0.1-0.4
		c0.1-0.7-0.2-1-0.9-0.9c-0.7,0.1-1.2,0.6-1.4,1.3c-0.2,0.6-0.3,1.3-0.4,1.9c0,0.1,0,0.2-0.1,0.2C116.8,48.5,116.8,48.5,116,48.4z
			M117.8,44.1C117.7,44.1,117.7,44.1,117.8,44.1C117.7,44.2,117.8,44.2,117.8,44.1C117.8,44.2,117.8,44.1,117.8,44.1
		C117.8,44.1,117.8,44.1,117.8,44.1z"></path> <path d="M77.6,48.5c0.2-1,0.4-1.9,0.6-2.8c0-0.2,0.1-0.4,0.1-0.5c0-0.6-0.2-0.8-0.8-0.8c-0.7,0-1.3,0.5-1.5,1.1
		c-0.2,0.5-0.3,1.1-0.4,1.6c-0.1,0.3-0.1,0.7-0.2,1c-0.1,0.4-0.1,0.4-0.5,0.4c-0.1,0-0.3,0-0.4,0c0.2-1,0.4-2.1,0.6-3.1
		c0.1-0.5,0.2-1,0.3-1.4c0-0.1,0-0.3,0.2-0.3c0.2,0,0.4-0.1,0.6,0c0.1,0.1-0.1,0.3,0.1,0.4c0.2,0,0.2-0.1,0.3-0.2
		c0.5-0.3,1-0.4,1.6-0.3c0.6,0.1,0.9,0.4,0.9,1c0,0.5-0.1,1-0.2,1.4c-0.1,0.7-0.3,1.4-0.4,2c-0.1,0.5-0.1,0.4-0.5,0.4
		C77.9,48.5,77.8,48.5,77.6,48.5z M76.3,44.1C76.3,44.1,76.3,44.1,76.3,44.1C76.2,44.1,76.2,44.1,76.3,44.1
		C76.2,44.1,76.2,44.2,76.3,44.1C76.3,44.2,76.3,44.1,76.3,44.1z"></path> <path d="M146.9,48.4c0.2-1,0.4-2,0.6-2.9c0.1-0.4,0.2-0.7-0.2-1c-0.3-0.3-0.7-0.2-1.1-0.1c-0.5,0.2-0.9,0.6-1,1.1
		c-0.2,0.8-0.3,1.5-0.5,2.3c-0.1,0.7-0.1,0.7-0.8,0.6c0,0-0.1,0-0.1,0c0-0.6,0.2-1.1,0.3-1.7c0.2-0.9,0.4-1.7,0.6-2.6
		c0.1-0.5,0.1-0.5,0.6-0.5c0.1,0,0.1,0,0.2,0c0.1,0.1,0,0.3,0,0.4c0.1,0.1,0.1,0,0.2,0c0.5-0.4,1-0.6,1.6-0.5
		c0.8,0.1,1.2,0.5,1.1,1.3c-0.1,0.5-0.2,1-0.3,1.5c-0.1,0.6-0.3,1.2-0.4,1.8c-0.1,0.4-0.1,0.4-0.5,0.4
		C147.2,48.5,147.1,48.5,146.9,48.4z"></path> <path d="M37.3,48.4c0.1-0.6,0.2-1.2,0.4-1.8c0.2-0.9,0.4-1.8,0.6-2.7c0-0.1,0-0.3,0.2-0.3c0.2,0,0.4-0.1,0.6,0
		c0.2,0.1,0,0.3,0.1,0.4c0.1,0,0.2-0.1,0.3-0.2c0.4-0.3,0.9-0.4,1.5-0.4c0.8,0,1.2,0.5,1.1,1.3c0,0.3-0.1,0.6-0.2,0.9
		c-0.2,0.8-0.4,1.6-0.5,2.4c-0.1,0.3-0.2,0.4-0.4,0.3c-0.1,0-0.3,0-0.5-0.1c0.2-1,0.4-1.9,0.6-2.9c0,0,0,0,0,0
		c0.2-0.9-0.3-1.3-1.2-1.1c-0.6,0.2-1,0.6-1.1,1.1c-0.2,0.8-0.3,1.5-0.5,2.3C38.1,48.5,38.1,48.5,37.3,48.4z"></path> <path d="M114.4,43.6c0.1,0.2,0,0.3,0,0.4c0,0.2-0.1,0.2-0.3,0.2c-0.1,0-0.1,0-0.2,0c-0.3,0-0.4,0.1-0.4,0.4
		c-0.2,1.1-0.5,2.2-0.7,3.3c-0.1,0.5-0.1,0.5-0.6,0.5c-0.1,0-0.2,0-0.3,0c0.3-1.4,0.6-2.7,0.9-4.1c-0.2,0-0.4,0-0.6,0
		c-0.1-0.1,0-0.2,0-0.3c0-0.3,0.1-0.4,0.4-0.4c0.2,0,0.3-0.1,0.4-0.3c0-0.2,0.1-0.4,0.1-0.6c0.2-0.6,0.5-0.9,1.2-1
		c0.2,0,0.4,0,0.6,0c0,0.2,0,0.3-0.1,0.4c0,0.2-0.1,0.3-0.3,0.3c-0.4,0-0.8,0.6-0.7,1c0,0.1,0.1,0.1,0.2,0.1
		C114.1,43.7,114.2,43.6,114.4,43.6z"></path> <path d="M45.4,41.8c0,0.2,0,0.4-0.1,0.6c0,0.1-0.1,0.2-0.2,0.2c-0.5,0-0.7,0.3-0.8,0.7c-0.1,0.5-0.1,0.5,0.4,0.5
		c0.1,0,0.2,0,0.2,0.1c0.1,0.1,0,0.2,0,0.3c0,0.2-0.1,0.3-0.4,0.3c-0.5,0-0.5,0-0.6,0.6c-0.2,1.1-0.4,2.1-0.7,3.2
		c-0.1,0.4-0.1,0.4-0.5,0.4c-0.1,0-0.2,0-0.4,0c0.2-1.4,0.6-2.7,0.8-4.1c-0.2-0.1-0.4,0-0.6-0.1c-0.1-0.1,0-0.3,0-0.4
		c0-0.2,0.1-0.2,0.3-0.2c0.4,0,0.4,0,0.5-0.4c0-0.1,0-0.2,0.1-0.2c0.2-0.9,0.6-1.2,1.5-1.2C45.2,41.8,45.3,41.8,45.4,41.8z"></path> <path d="M151.5,43.7c0.1,0.1,0,0.2,0,0.3c0,0.2-0.1,0.3-0.4,0.3c-0.5,0-0.5,0-0.6,0.5c-0.2,0.8-0.3,1.6-0.5,2.5
		c-0.1,0.5-0.1,0.6,0.5,0.6c0,0,0.1,0,0.1,0c0.1,0.1,0,0.2,0,0.3c0,0.3-0.2,0.3-0.4,0.3c-1,0.1-1.2-0.2-1-1.2c0.2-1,0.4-2,0.6-3
		c-0.2-0.1-0.4,0-0.6-0.1c-0.1-0.1,0-0.2,0-0.3c0-0.2,0.1-0.4,0.4-0.3c0.3,0,0.4-0.1,0.4-0.4c0-0.1,0.1-0.2,0.1-0.3
		c0.2-0.7,0.2-0.7,0.9-0.5c-0.1,0.3-0.1,0.6-0.2,0.9c-0.1,0.3,0,0.3,0.3,0.3C151.2,43.7,151.4,43.6,151.5,43.7z"></path> <path d="M87.9,44.3c-0.2,0-0.3,0-0.5,0c-0.1-0.1,0-0.2,0-0.4c0-0.2,0.1-0.3,0.3-0.3c0.3,0.1,0.4-0.1,0.5-0.4c0-0.1,0-0.2,0.1-0.2
		c0.2-0.7,0.2-0.7,0.9-0.7c0,0.3-0.1,0.6-0.2,0.9c-0.1,0.3-0.1,0.3,0.3,0.4c0.1,0,0.3-0.1,0.3,0.2c0,0.3-0.1,0.5-0.4,0.5
		c-0.1,0-0.1,0-0.2,0c-0.2,0-0.3,0.1-0.4,0.3c-0.2,0.9-0.4,1.7-0.6,2.6c-0.1,0.6-0.1,0.6,0.5,0.6c0,0,0.1,0,0.1,0
		c0,0.1,0,0.3-0.1,0.4c0,0.1-0.1,0.2-0.2,0.2c-0.3,0-0.6,0.1-0.9,0c-0.3-0.1-0.4-0.3-0.4-0.6c0-0.3,0.1-0.5,0.1-0.7
		c0.2-0.8,0.4-1.7,0.5-2.5C87.9,44.5,88,44.4,87.9,44.3z"></path> <path d="M66.1,44.3c-0.2-0.1-0.4,0-0.5-0.1c-0.1-0.1,0-0.2,0-0.3c0-0.2,0.1-0.3,0.3-0.3c0.3,0.1,0.4-0.1,0.5-0.4
		c0-0.1,0-0.2,0.1-0.2c0.2-0.7,0.2-0.7,0.9-0.7c0,0.3-0.1,0.6-0.1,0.9c-0.1,0.4-0.1,0.4,0.3,0.4c0.1,0,0.3-0.1,0.3,0.2
		c0,0.3-0.1,0.5-0.4,0.5c-0.1,0-0.1,0-0.2,0c-0.2,0-0.3,0.1-0.4,0.3c-0.2,0.9-0.4,1.7-0.6,2.6c-0.1,0.5-0.1,0.6,0.5,0.6
		c0,0,0.1,0,0.1,0c0,0.1,0,0.3-0.1,0.4c0,0.1-0.1,0.2-0.2,0.2c-0.3,0-0.6,0.1-0.9,0c-0.3-0.1-0.4-0.3-0.4-0.7
		c0-0.3,0.1-0.5,0.1-0.7c0.2-0.8,0.4-1.7,0.5-2.5C66.2,44.5,66.2,44.4,66.1,44.3z"></path> <path d="M28.2,43.7c0,0.2,0,0.3,0,0.4c0,0.2-0.1,0.2-0.3,0.2c-0.1,0-0.2,0-0.3,0c-0.2,0-0.3,0.1-0.4,0.3c-0.2,0.9-0.4,1.8-0.6,2.7
		c-0.1,0.5-0.1,0.5,0.4,0.6c0.1,0,0.1,0,0.2,0c-0.1,0.7-0.1,0.7-0.7,0.7c-0.7,0-0.9-0.3-0.8-1c0.2-1,0.4-1.9,0.6-2.9
		c0-0.1,0-0.2,0.1-0.3c-0.2-0.2-0.4,0-0.6-0.1c0-0.1,0-0.2,0-0.3c0-0.2,0.1-0.3,0.3-0.3c0.3,0.1,0.4-0.1,0.5-0.4
		c0-0.1,0-0.2,0.1-0.2c0.2-0.7,0.2-0.7,0.9-0.7c0,0.3-0.1,0.7-0.2,1c0,0.2,0,0.3,0.2,0.3C27.9,43.7,28,43.6,28.2,43.7z"></path> <path d="M49.7,48.5c0.3-1.5,0.6-3,0.9-4.5c0.1-0.3,0.2-0.4,0.4-0.3c0.1,0,0.3,0,0.4,0.1c0,0.2-0.1,0.3,0,0.6
		c0.5-0.4,0.9-0.8,1.6-0.7c0.1,0.1,0,0.2,0,0.3c-0.1,0.5-0.1,0.5-0.5,0.5c-0.7,0.1-1.2,0.6-1.4,1.3c-0.2,0.8-0.3,1.5-0.5,2.3
		c-0.1,0.4-0.1,0.4-0.5,0.4C50,48.5,49.9,48.5,49.7,48.5z"></path> <path d="M108.1,43.7c0,0.2-0.1,0.4,0,0.6c0.5-0.4,0.9-0.9,1.6-0.7c0,0.1,0,0.2,0,0.3c-0.1,0.5-0.1,0.5-0.6,0.6
		c-0.7,0.1-1.2,0.6-1.3,1.3c-0.2,0.8-0.3,1.5-0.5,2.3c-0.1,0.4-0.1,0.4-0.5,0.4c-0.1,0-0.2,0-0.4,0c0.1-0.6,0.2-1.1,0.3-1.6
		c0.2-0.9,0.4-1.8,0.6-2.7c0.1-0.5,0.1-0.5,0.7-0.5C107.9,43.7,108,43.7,108.1,43.7z"></path> <path d="M132.8,43.7c0.1,0.3-0.1,0.4,0,0.6c0.5-0.4,0.9-0.8,1.6-0.7c0.1,0.2,0,0.3,0,0.5c0,0.3-0.1,0.4-0.4,0.4
		c-0.7,0-1.3,0.5-1.5,1.3c-0.2,0.8-0.3,1.5-0.5,2.3c-0.1,0.4-0.1,0.4-0.5,0.4c-0.1,0-0.2,0-0.4-0.1c0.2-1.1,0.5-2.2,0.7-3.4
		c0.1-0.3,0.2-0.7,0.2-1c0-0.3,0.1-0.3,0.4-0.3C132.5,43.7,132.6,43.7,132.8,43.7z"></path> <path d="M140.7,43.7c0.1,0.2-0.1,0.3,0,0.6c0.2-0.2,0.4-0.4,0.7-0.5c0.3-0.2,0.6-0.2,0.9-0.2c0.1,0.1,0,0.3,0,0.4
		c-0.1,0.4-0.1,0.4-0.5,0.5c-0.7,0.1-1.2,0.6-1.4,1.3c-0.2,0.8-0.3,1.5-0.5,2.3c-0.1,0.4-0.1,0.4-0.6,0.4c-0.1,0-0.2,0-0.3,0
		c0.1-0.6,0.3-1.2,0.4-1.8c0.2-0.9,0.4-1.7,0.5-2.6c0.1-0.4,0.1-0.4,0.5-0.4C140.4,43.7,140.5,43.7,140.7,43.7
		C140.6,43.7,140.6,43.7,140.7,43.7z"></path> <path d="M23.5,48.4c0.3-1.3,0.6-2.6,0.8-4c0,0,0,0,0,0c0.2-0.7,0.2-0.7,0.9-0.7c0.1,0.1,0,0.2,0,0.3c-0.3,1.4-0.6,2.7-0.9,4.1
		c-0.1,0.4-0.1,0.4-0.5,0.4C23.8,48.5,23.7,48.5,23.5,48.4z"></path> <path d="M69.4,43.7c-0.2,0.9-0.4,1.8-0.6,2.7c-0.1,0.6-0.2,1.1-0.4,1.7c-0.1,0.4-0.1,0.4-0.5,0.4c-0.1,0-0.3,0-0.4-0.1
		c0.1-0.7,0.3-1.4,0.4-2c0.2-0.7,0.3-1.4,0.5-2.2c0.1-0.5,0.1-0.5,0.6-0.5C69.2,43.7,69.3,43.7,69.4,43.7z"></path> <path d="M114.1,48.4c0.3-1.4,0.6-2.8,0.9-4.3c0.1-0.5,0.1-0.5,0.6-0.5c0.1,0,0.2,0,0.3,0c0.1,0.1,0,0.2,0,0.3
		c-0.3,1.3-0.6,2.7-0.8,4c-0.1,0.5-0.1,0.4-0.6,0.5C114.3,48.5,114.2,48.5,114.1,48.4z"></path> <path d="M143.7,43.7c-0.3,1.5-0.6,3-0.9,4.4c0,0.2-0.1,0.4-0.4,0.3c-0.1,0-0.3,0-0.4,0c-0.1-0.1,0-0.2,0-0.3
		c0.3-1.3,0.6-2.7,0.9-4c0.1-0.5,0.1-0.5,0.6-0.5C143.5,43.7,143.6,43.7,143.7,43.7z"></path> <path d="M37.2,43.8c-0.2,1-0.4,1.9-0.6,2.9c-0.1,0.5-0.2,1-0.3,1.4c0,0.3-0.2,0.4-0.4,0.3c-0.1,0-0.3,0-0.4,0
		c-0.1-0.1-0.1-0.2,0-0.4c0.3-1.3,0.6-2.7,0.8-4c0.1-0.5,0.1-0.4,0.6-0.4C36.9,43.7,37,43.6,37.2,43.8z"></path> <path d="M16.4,46.3C16.4,46.2,16.4,46.2,16.4,46.3c0.1-0.8,0.1-0.8,0.8-0.8c0.5,0,1,0,1.5,0c0,0.1,0,0.1,0,0.1
		c-0.2,0.9,0,0.7-0.8,0.7C17.4,46.3,16.9,46.3,16.4,46.3z"></path> <path d="M115.3,42.7c0-0.1,0-0.2,0-0.2c0.2-0.7,0.2-0.7,0.9-0.6c0,0.1,0,0.2,0,0.2C116.1,42.9,116.1,42.9,115.3,42.7z"></path> <path d="M69.8,41.9c0,0.1,0,0.2,0,0.2c-0.1,0.7-0.1,0.7-0.9,0.6c0-0.1,0-0.2,0-0.2C69,41.8,69,41.8,69.8,41.9z"></path> <path d="M25.7,41.9c0,0.1,0,0.2,0,0.2c-0.1,0.7-0.1,0.7-0.9,0.6c0-0.1,0-0.2,0-0.2C25,41.8,25,41.8,25.7,41.9z"></path> <path d="M143.1,42.7c0,0,0-0.1,0-0.1c0.2-0.9,0-0.7,0.9-0.7c0.1,0.1,0,0.2,0,0.2C143.9,42.8,144.1,42.9,143.1,42.7z"></path> <path d="M37.5,41.9c0,0.1,0,0.2,0,0.2c-0.1,0.7-0.2,0.7-0.9,0.6c0,0,0-0.1,0-0.1C36.8,41.8,36.6,41.8,37.5,41.9z"></path> </svg>