<svg xmlns="http://www.w3.org/2000/svg" viewBox="0 0 160 64" role="img" fill="#93A3B7"> <title>Onfleet Customer Drizly</title> <path id="Fill-1" d="M95,25.5l-6.8,1.6l0.1-14.2l2.3-0.5l-0.1,12.4l4.5-1.1L95,25.5z M84.9,15.3l-5.7,12l5.6-1.3l0,1.8l-8.1,1.9
		l0-1.6l5.7-12l-5.1,1.2l0-1.9l7.7-1.8L84.9,15.3z M73.1,30.6l-2.3,0.5l0.1-14.2l2.3-0.5L73.1,30.6z M64.9,32.5l-2.1-5l-1.5,0.4
		l-0.1,5.5l-2.3,0.5l0.1-14.2l3.4-0.8c2.9-0.7,4.6,0.2,4.6,3.2c0,1.6-0.6,3.2-2.2,4.4l2.4,5.5L64.9,32.5z M108.7,9.2
		c-0.9-0.3-2-1.2-2.4-1.7c-0.4-0.6-2.1-2.4-3.4-2.9c-1.3-0.5-3.1-0.5-3.9-0.5c-0.7,0-2.6,0-3.3-0.3c-0.7-0.3-1.7-2.5-2.7-2.2
		c0,0-1.7,0.1-2.7,2.4c-1.1,2.3-0.8,2.6-5,3.5C81.1,8.4,76.6,8.1,74.8,9c-1.8,1-3.8,4.3-8.7,4.5c-4.9,0.2-6.6-0.3-12,3.1
		c-3.7,2.3-5.2,4.2-5.9,5.6l1.9-0.4c3.6-0.8,5.6,0.3,5.6,5.8c-0.1,5.5-2.2,7.6-5.7,8.4l-3.1,0.7l0.1-12.2
		c-0.9,1.6-2.4,4.5-2.6,7.3c-0.3,3.3,0.9,8.7,1.1,10.5c0.2,1.8,0.8,4,0.8,5.3c-0.1,1.3-0.7,4.6,0,5.3c0.7,0.7,4.6,2.7,7.2,1.3
		c2.7-1.4,1.4-2.3,0.9-2.7c-0.5-0.4-1.3-1.5-1.7-2c-0.4-0.5-0.2-1-0.1-1.3c0.2-0.3,0.8-2.7,1-3.1c0.2-0.4,2.9-4.3,3.1-5.1
		c0.2-0.7,2.4-0.5,2.8-0.1c0.5,0.4,1.3,3,1.4,4.2c0.1,1.2,0.1,4.3,1.1,5.3c1,1,5,1.1,5.8,1.2c1.2,0,2.4-0.8,1.7-1.6
		c-0.8-0.8-2.6-2.5-2.9-2.9c-0.3-0.4,0.3-2.2,0.8-2.9c0.5-0.7,0.9-0.9,1.3-0.1c0.3,0.8,2,5.4,2.4,8.1c0.4,2.8,0.4,6.6,0.7,7.3
		c0.2,0.7,3.7,4,5.5,4c1.8,0,7.7-1.1,4.9-4.4c-2.8-3.3-3.1-2.2-3.2-5.1c-0.1-2.9,0.4-8.5,0.6-10.1c0.2-1.6,0.2-1.8,0.6-1
		c0.4,0.8,1.1,7.1,1.6,9.1c0.5,2,0.8,4.4,3,5.2c2.1,0.8,8,1.8,9.4,0.8c0.9-0.6-0.5-1.7-2-2.8c-1.4-1.1-3.7-2.4-3.8-3.9
		c-0.1-1.6,1.1-7.5,1.8-9.2c0.7-1.7,1.1-3.6,1.3-6.2c0.2-2.6,0.5-6.8,0.9-7c0.3-0.2,3.4-1.6,6.4-3.3l0.1-5.2l-3.3-8.1l2.3-0.5
		l2.2,6l2.4-7.1l2.2-0.5l-3.5,9.7l0,4.4c3.4-2.2,4.5-2.6,5.2-3.1c0.7-0.5,3-0.3,5-1.5c2-1.2,1.9-2.1,1.9-2.1s1.1-0.9,1.4-2
		c0.3-1.2,1.2-1.7,1.2-3.1c0-1.4-0.2-1.7-1.5-1.8C113,9.4,109.6,9.6,108.7,9.2z"></path> <path id="Fill-4" d="M62.4,20.7L61.3,21l-0.1,5.1l1.2-0.3c1.7-0.4,2.3-1.2,2.4-3.2C64.8,20.8,64.2,20.3,62.4,20.7"></path> <path id="Fill-5" d="M53.2,28.1c0-3.8-0.7-5.1-3-4.5l-1,0.2l-0.1,10.6l1.1-0.2C52.4,33.6,53.2,31.9,53.2,28.1"></path> </svg>