<svg xmlns="http://www.w3.org/2000/svg" fill="#5C6D82" viewBox="0 0 160 64" role="img"><title>Onfleet Customer Firehouse Subs</title><path d="M124.7,27.44a1.24,1.24,0,0,0,.22-.71c0-.29-.22-.51-.67-.65a10.87,10.87,0,0,0-1.69-.38l-2.18-.34a12,12,0,0,1-2.19-.57,4.67,4.67,0,0,1-1.64-1,2.27,2.27,0,0,1-.68-1.72,3.18,3.18,0,0,1,.39-1.54,1.74,1.74,0,0,1,.11-.18,3.51,3.51,0,0,1,.89-1.07,5.49,5.49,0,0,1,1.64-.82,7.83,7.83,0,0,1,2.2-.29,13.4,13.4,0,0,1,2.1.15c.65.11,1.22.23,1.72.36s.93.24,1.26.35a3.16,3.16,0,0,0,.74.16.53.53,0,0,0,.34-.11.85.85,0,0,0,.24-.26l.25.11v0l.1,0-1.52,3.32-.27-.16h0l-.09-.06v-.25a.43.43,0,0,0-.19-.31l-.15-.09a4.82,4.82,0,0,0-1.09-.42,10.88,10.88,0,0,0-1.48-.33,12.19,12.19,0,0,0-1.59-.14,4.09,4.09,0,0,0-2,.31c-.38.22-.58.46-.58.72a.66.66,0,0,0,.22.48l.1,0a3.34,3.34,0,0,0,1,.32c.43.08.92.14,1.45.2s1.11.13,1.69.23a11.64,11.64,0,0,1,1.65.39,4.89,4.89,0,0,1,1.46.69l.09.07A3.37,3.37,0,0,1,128,26.9a4.21,4.21,0,0,1-.3,1.57,3.07,3.07,0,0,1-1,1.32,4.71,4.71,0,0,1-1.92.83,10.4,10.4,0,0,1-3,.09,15.63,15.63,0,0,1-4.11-.83,11.26,11.26,0,0,1-1.1-.44,2.27,2.27,0,0,0-.62-.21.32.32,0,0,0-.23.07l-.27.25-.26-.08,0-.11-.07,0,1.36-3,.31-.73h0l0-.07.22.12a1.93,1.93,0,0,0,0,.48c0,.15.13.33.41.53a5.26,5.26,0,0,0,1.06.6,9.77,9.77,0,0,0,1.49.53,8.79,8.79,0,0,0,1.69.29,5.19,5.19,0,0,0,2.47-.25A1.15,1.15,0,0,0,124.7,27.44ZM143.36,16H16.66l-2.58,2.3V31.86l2.71,2.73h1.39V36h-2L12.7,32.43V17.7l3.43-3.07H143.87l3.43,3.06V32.43L143.78,36h-.84V34.59h.28l2.7-2.73V18.32ZM128.78,34.59a.61.61,0,0,0,.46.25l9,1.12H122.52l.11,4-2.27,3.63L80,49.37,39.72,43.63,37.44,40v-.43l.1-3.68H23.71a.55.55,0,0,0-.38-.23h-.19V34.59H38.91l-.15,5,1.72,2.73L80,48l39.5-5.62,1.71-2.73-.15-5ZM33.55,30.65a1.09,1.09,0,0,0,.58-.28.8.8,0,0,0,.11-.4V19.54a.71.71,0,0,0-.11-.4.9.9,0,0,0-.58-.23v-.42h5.06v.41a.59.59,0,0,0-.69.6V29.67a.66.66,0,0,0,.12.38c.07.1.26.16.57.17v.41l-5.06.43ZM67.93,17.88h.28V21.5h-.28a1.07,1.07,0,0,0-.14-.47.33.33,0,0,0-.28-.11h-7.4v1.73h4.32a.67.67,0,0,0,.49-.14.66.66,0,0,0,.2-.34h.28v3.25h-.28a.5.5,0,0,0-.2-.34.67.67,0,0,0-.49-.14H60.07v1.94h7.4a.33.33,0,0,0,.28-.12,1.15,1.15,0,0,0,.14-.51h.28v3.56h-.28a.58.58,0,0,0-.14-.33.45.45,0,0,0-.28-.07H55.94v-.25a1.06,1.06,0,0,0,.55-.13.28.28,0,0,0,.1-.24V19.1a.28.28,0,0,0-.1-.24,1.18,1.18,0,0,0-.55-.14v-.25H67.51a.3.3,0,0,0,.28-.12A1,1,0,0,0,67.93,17.88Zm2.69,10.58a1,1,0,0,0,.51-.13.23.23,0,0,0,.1-.22V19a.26.26,0,0,0-.1-.23,1.17,1.17,0,0,0-.51-.13v-.23h4.53v.23a1.18,1.18,0,0,0-.52.13.29.29,0,0,0-.1.23v3.1h5.76V19a.26.26,0,0,0-.1-.23,1.14,1.14,0,0,0-.52-.13v-.23h4.54v.23a1,1,0,0,0-.51.13.3.3,0,0,0-.11.23v9.11a.27.27,0,0,0,.11.22,1,1,0,0,0,.51.13v.23H79.67v-.23a1,1,0,0,0,.52-.13.26.26,0,0,0,.1-.22V24.49H74.53v3.62a.29.29,0,0,0,.1.22,1.06,1.06,0,0,0,.52.13v.23H70.62Zm29.8-10H105v.25a1,1,0,0,0-.53.15.35.35,0,0,0-.1.24v5.69a2.06,2.06,0,0,0,.74,1.77,4.28,4.28,0,0,0,4.11,0,2.05,2.05,0,0,0,.73-1.77V19.1a.35.35,0,0,0-.1-.24c-.06-.08-.24-.12-.52-.15v-.25h4.55v.25a.93.93,0,0,0-.52.15.31.31,0,0,0-.1.24v5.69a5.08,5.08,0,0,1-.48,2.36,3.92,3.92,0,0,1-1.3,1.53,5.08,5.08,0,0,1-1.94.83,13.08,13.08,0,0,1-4.75,0,5.21,5.21,0,0,1-1.94-.83,4.1,4.1,0,0,1-1.3-1.53,5.34,5.34,0,0,1-.48-2.36V19.1a.3.3,0,0,0-.09-.24,1,1,0,0,0-.52-.15Zm-69.3-.37.29.06V24h-.29a2.3,2.3,0,0,0-.15-.64.32.32,0,0,0-.3-.17H22.55v3l5.7-.34a.31.31,0,0,0,.29-.15,1.72,1.72,0,0,0,.16-.63H29V30.7H28.7a2,2,0,0,0-.16-.73.32.32,0,0,0-.29-.18l-5.7.35v5.61a.89.89,0,0,0,0,.23.55.55,0,0,0,.08.15.89.89,0,0,0,.58.22v.4l-5.14.75v-.4c.31-.05.51-.12.57-.22a.67.67,0,0,0,.12-.39V20.08a.61.61,0,0,0-.11-.39.69.69,0,0,0-.57-.22v-.41H30.67a.31.31,0,0,0,.3-.18A2.38,2.38,0,0,0,31.12,18.13Zm22.1,10.78a.75.75,0,0,0,.59.34v.25l-4.54.25v-.26c.33,0,.49-.17.49-.41a1.12,1.12,0,0,0-.19-.29c-.1-.17-.26-.36-.42-.6s-.36-.49-.57-.76l-.6-.78c-.2-.25-.36-.47-.51-.67a3.51,3.51,0,0,1-.27-.4l-2.13.07v3.68a.34.34,0,0,0,.09.24,1,1,0,0,0,.51.12V30l-4.49.26V30a1.2,1.2,0,0,0,.52-.18.44.44,0,0,0,.1-.26L42,19.18a.38.38,0,0,0-.09-.25.92.92,0,0,0-.51-.15v-.26h7.88a5.57,5.57,0,0,1,3.46.83A3.09,3.09,0,0,1,53.76,22a3,3,0,0,1-.87,2.29,5.5,5.5,0,0,1-2.23,1.26Zm-3.14-6a1.2,1.2,0,0,0,.33-.78,1.08,1.08,0,0,0-.36-.83,1.84,1.84,0,0,0-1.31-.33H45.13v2.4l3.64-.08A2,2,0,0,0,50.08,22.88Zm49.18-1.57h0a5.3,5.3,0,0,1,0,4.75,5.23,5.23,0,0,1-1.51,1.73,6.54,6.54,0,0,1-2.21,1,11.13,11.13,0,0,1-5.38,0,6.5,6.5,0,0,1-2.22-1,5.2,5.2,0,0,1-1.5-1.73,5.36,5.36,0,0,1,0-4.75A5.07,5.07,0,0,1,88,19.59a7,7,0,0,1,2.22-1.06,10.23,10.23,0,0,1,5.38,0,7,7,0,0,1,2.2,1.06A5.1,5.1,0,0,1,99.26,21.31ZM96.51,23.7h0a3.08,3.08,0,0,0-.07-.68,2.61,2.61,0,0,0-.22-.61,3.18,3.18,0,0,0-.17-.27,1.5,1.5,0,0,0-.19-.25,2.3,2.3,0,0,0-.46-.42l-.13-.09a3.21,3.21,0,0,0-.7-.39l-.32-.11a4.14,4.14,0,0,0-1-.19h-.72a4.14,4.14,0,0,0-1,.19l-.31.11a3.6,3.6,0,0,0-.72.39l-.12.09a2.61,2.61,0,0,0-.46.42,2.71,2.71,0,0,0-.19.25,3.32,3.32,0,0,0-.39.88,3.08,3.08,0,0,0-.07.68V24a2.4,2.4,0,0,0,.29.94,2.65,2.65,0,0,0,.82.94,3.39,3.39,0,0,0,.53.34,3.66,3.66,0,0,0,.62.25l.17,0a4.92,4.92,0,0,0,2.47,0l.18,0a3.56,3.56,0,0,0,.61-.25,3.06,3.06,0,0,0,.54-.34,2.75,2.75,0,0,0,.82-.94,2.56,2.56,0,0,0,.28-.94Zm45.83,10.89h0v1.95H142a1.3,1.3,0,0,0-.11-.51v0a.49.49,0,0,0-.3-.14l-9.75-1.2-2.53-.31V34a.84.84,0,0,0,.58-.14.45.45,0,0,0,.11-.34V19.12a.51.51,0,0,0-.11-.35.92.92,0,0,0-.58-.21v-.37l12.28.08a.34.34,0,0,0,.3-.18,2.21,2.21,0,0,0,.13-.62v-.14h.3v5.8H142a2.43,2.43,0,0,0-.14-.76.37.37,0,0,0-.3-.19l-7.9-.26v2.64l4.58.23a.58.58,0,0,0,.53-.19,1.16,1.16,0,0,0,.21-.53h.3v5.14H139a1.19,1.19,0,0,0-.21-.55.64.64,0,0,0-.53-.26l-4.58-.35V31l7.9.76a.28.28,0,0,0,.3-.16,2.63,2.63,0,0,0,.14-.83h.3ZM41.79,37.37c0-4,17-7.24,38.07-7.24s38.07,3.24,38.07,7.24-17.05,7.24-38.07,7.24S41.79,41.37,41.79,37.37Zm70.6-.88v1.93l1.65,1,1.64-1V36.51l-1.64-1Zm-13-4.34c-3,0-4.54,1.15-4.51,2.59,0,2.62,5.67,3,5.67,5,0,.74-.73,1.4-2.37,1.4a7.58,7.58,0,0,1-2.66-.52V42a8.26,8.26,0,0,0,3,.48c3,0,4.76-1.26,4.76-2.61s-1-2-2.88-2.94l-2-1.11c-.53-.34-.75-.64-.75-1.08,0-.7.91-1.29,2.4-1.29a6.3,6.3,0,0,1,2.27.42V32.48A10.41,10.41,0,0,0,99.36,32.15Zm-15.79.13v10h3.22c3.74,0,5.11-.9,5.11-2.74,0-1.11-.54-2-2.85-2.35C91.2,36.9,91.61,36,91.61,35c0-1.69-1-2.69-4.68-2.69Zm-13.29,0v6.91c0,1.81.37,3.24,4.65,3.24,4.64,0,4.64-1.73,4.64-3V32.28H76.89v7.49c0,.82-.19,1.41-2,1.41-1.06,0-1.88-.26-1.88-1.55V32.28Zm-7.22-.13c-3,0-4.54,1.15-4.52,2.59,0,2.62,5.67,3,5.67,5,0,.74-.72,1.4-2.37,1.4a7.48,7.48,0,0,1-2.65-.52V42a8.19,8.19,0,0,0,3,.48c3,0,4.76-1.26,4.76-2.61s-1.05-2-2.88-2.94l-2-1.11c-.54-.34-.75-.64-.75-1.08,0-.7.91-1.29,2.39-1.29a6.41,6.41,0,0,1,2.29.42V32.48A10.53,10.53,0,0,0,63.06,32.15ZM44,36.49v1.93l1.65,1,1.64-1V36.51l-1.64-1ZM89,34.91c0,1.06-.35,1.83-2.85,1.82V33.41h.46C88.44,33.4,89,34.08,89,34.91Zm.08,4.61c0,1.12-.6,1.7-2.93,1.65V37.75C88.59,37.73,89.05,38.42,89.05,39.52Z"></path></svg>