<svg xmlns="http://www.w3.org/2000/svg" fill="#5C6D82" viewBox="0 0 160 64" role="img"> <title>Onfleet Customer Gap</title> <g> <path d="M38.8,47.1c-2.6,0-5.2,0-7.7,0c0,0.6,0,1.2,0,1.8c1.4,0,1.4,0,1.4,1.5c0,2,0,4.1,0,6.1c0,1.1,0,1.1-1.1,1.1
		c-0.1,0-0.2,0-0.3,0c0,0.6,0,1.2,0,1.8c0.2-0.2,0.5-0.1,0.8-0.1c1.3,0,2.6,0,3.9,0c0.6,0,0.6-0.4,0.5-0.7c-0.1-0.3,0.4-0.9-0.4-1
		c-1.1-0.1-1.1-0.1-1.1-1.2c0-0.4,0-0.9,0-1.3c-0.1-0.6,0.2-0.7,0.7-0.7c0.9,0,1.7,0,2.6,0c0.2,0,0.5,0.1,0.6-0.3
		c0.3-1,0-1.6-1.1-1.6c-0.5,0-1,0-1.5,0c-1.3,0-1.3,0-1.3-1.2c0-2.2,0-2.2,2.2-2.2c0.6,0,0.9,0.2,0.7,0.8c-0.1,0.4,0.1,0.5,0.5,0.5
		c0.2,0,0.5,0,0.7,0c0.6,0.1,0.8-0.1,0.7-0.7c0-0.5-0.1-1.1,0-1.6C39.8,47.2,39.5,47.1,38.8,47.1z"></path> <path d="M70.8,37.1c0.5,0.4,1.2,0.6,1.4,1.3c1.1,0.1,1.8,0.8,2.8,1.1c1.6,0.5,3.1,1,4.8,0.8c-0.1-0.5,0.1-1.1-0.1-1.6
		c0.2,0.5,0.1,1.1,0.1,1.6c2.2,0.1,4.3-0.5,6.2-1.5c0.3-0.1,0.5-0.2,0.8-0.4c0.2-0.2,0.4-0.3,0.6-0.5c4.6-3.4,6.8-8,5.9-13.6
		C92.5,18.3,88.1,14,82,12.9c-0.3-0.1-0.7,0.1-0.7-0.4c0-0.5,0.3-0.5,0.6-0.7c3.5-1.5,4.4-5.8,2-8.7C83.1,2.2,82,1.8,81,1.3
		c-0.8,0-1.5,0-2.3,0c-0.1,0.2-0.3,0.2-0.5,0.2c-2.3,0.8-3.8,2.8-3.9,5.2c0,2.3,1.4,4.3,3.7,5.2c0,0,0,0,0,0c0.4,0.6,0.3,0.9-0.5,1
		c-3.6,0.6-6.4,2.4-8.6,5.2c-2.3,3-3.3,6.4-2.8,10.2C66.6,31.8,68.1,34.7,70.8,37.1z M75.5,7.9c-0.6-2.2,0.6-4.5,2.7-5.3
		c2.3-0.8,4.6,0.1,5.7,2.3c1,2,0.2,4.6-1.8,5.7c-0.2,0.1-0.5,0.4-0.7,0.3c-0.3-0.2-0.1-0.5-0.1-0.8c0-0.4,0.2-0.4,0.5-0.4
		c0.4,0,0.5-0.3,0.5-0.6c0-0.7,0-1.4,0-2.1c0-0.4-0.2-0.6-0.6-0.6c-0.6,0-1.2,0-1.9,0c0,0,0,0,0,0c-0.5-0.2-1-0.2-1.5-0.1
		c-0.6,0-1,0.2-0.9,1c0.1,0.5,0.1,1,0,1.5c-0.1,0.8,0.2,1,1,0.9c0,0.4,0,0.9,0,1.3C76.8,10.5,75.9,9.3,75.5,7.9z M78.3,11.2
		c0-0.1,0-0.2,0-0.3c0,0,0,0,0,0C78.3,11,78.3,11.1,78.3,11.2z M70.4,19.8c2.3-3.2,5.5-4.7,9.4-4.8c6,0.1,10.2,4.3,11.3,9.1
		c1.6,7.2-4.1,14.3-11.5,14c-0.2,0-0.4,0-0.6,0C69.8,37.2,65.1,27.2,70.4,19.8z"></path> <path d="M65.7,55.3c-0.5,0-0.7,0.1-0.7,0.6c0.1,0.7-0.4,1-0.9,1.2c-2.9,1-5.6-0.8-5.8-3.9c-0.1-3.1,2.3-5,5.3-4.2
		c0.7,0.2,1.3,0.5,1.2,1.4C64.8,50.8,65,51,65.4,51c0.4,0,0.8,0,1.1,0c0.2,0,0.3-0.1,0.4-0.3c0.4-1.3-0.2-2.5-1.4-3.1
		c-0.7-0.4-1.5-0.5-2.3-0.6c-3.8-0.6-7.2,2.2-7.2,6.1c0,0.4,0,0.7,0.1,1c0.9,5.1,6.2,6.3,10,4.4c0.7-0.3,1-0.9,1-1.7
		C67.1,55.1,67.3,55.4,65.7,55.3z"></path> <path d="M54.9,51c0.1-0.4-0.2-0.5-0.6-0.5c-1,0-2,0-3,0c-0.3,0-0.7-0.1-0.6,0.4c0.1,0.4-0.5,1.2,0.5,1.2c0.2,0,0.5,0,0.4,0.3
		c-0.5,1.5-1.1,3-1.6,4.6c-0.6-1.7-1.2-3.2-1.8-4.9c0.2,0,0.3,0,0.3,0c0.9,0.1,0.6-0.6,0.7-1c0.1-0.6-0.2-0.7-0.7-0.7
		c-1,0-2,0-2.9,0c-0.3,0-0.8-0.1-0.7,0.5c0.1,0.4-0.5,1.2,0.6,1.2c0.4,0,0.5,0.2,0.6,0.5c0.9,2.1,1.7,4.3,2.6,6.4
		c0.1,0.3,0.1,0.6,0,0.8c-0.5,0.9-1.3,1.3-2.3,0.9c-1-0.4-0.8,0.6-1.1,0.9c-0.4,0.5,0.1,0.6,0.4,0.8c2.1,0.8,4.1-0.1,4.9-2.2
		c1-2.5,2-5,2.9-7.5c0.1-0.4,0.3-0.6,0.8-0.6C55.3,52.1,54.7,51.4,54.9,51z"></path> <path d="M103.4,57.5c-0.6,0.1-0.7-0.2-0.7-0.8c0-1.3,0-2.6,0-3.9c-0.1-1.6-1.1-2.5-2.6-2.5c-1.4,0-2.4,0.5-3.3,1.7
		c-0.2-1.3-0.4-1.5-1.6-1.5c-0.4,0-0.8,0-1.2,0c-0.5,0-0.7,0.2-0.6,0.7c0.1,0.4-0.3,1.1,0.6,1c0.5-0.1,0.7,0.2,0.7,0.7
		c0,1.3,0,2.6,0,3.9c0,0.5-0.1,0.8-0.7,0.8c-0.8-0.1-0.4,0.6-0.5,1c-0.1,0.4,0.1,0.6,0.6,0.6c1.2,0,2.4,0,3.6,0
		c0.8,0,0.4-0.6,0.5-0.9c0.1-0.4,0.1-0.8-0.5-0.7c-0.7,0.1-0.8-0.3-0.8-0.9c0-0.4,0-0.8,0-1.2c0-0.8,0.2-1.6,0.7-2.3
		c0.5-0.7,1.5-1,2.2-0.8c0.9,0.3,0.9,1,0.9,1.8c0,1.5,0,2.9,0,4.4c0,0.5,0.1,0.6,0.6,0.6c0.7,0,1.5,0,2.2,0c0.5,0,0.7-0.2,0.6-0.7
		C103.9,58.1,104.2,57.4,103.4,57.5z"></path> <path d="M91.3,57.5c-0.6,0-0.7-0.3-0.7-0.8c0-1.3,0.1-2.5-0.1-3.8c-0.2-1.2-0.8-2-1.9-2.4c-1.6-0.5-3.1-0.2-4.5,0.5
		c-0.8,0.4-0.1,0.8,0,1.1c0.1,0.3,0.2,0.8,0.8,0.4c0.7-0.4,1.4-0.6,2.3-0.5c0.5,0,0.9,0.3,1.2,0.7c0.3,0.7,0.1,0.9-0.6,1
		c-1.1,0.1-2.1,0.2-3.1,0.6c-1.1,0.5-1.7,1.5-1.6,2.6c0.1,1.2,0.9,2,2.1,2.3c1.4,0.3,2.4-0.1,3.4-1.3c0.1,0.9,0.5,1.2,1.3,1.2
		c0.5,0,0.9,0,1.4,0c0.5,0,0.7-0.2,0.6-0.6C91.8,58.1,92.2,57.5,91.3,57.5z M86.8,57.7c-0.7,0.1-1.2,0-1.5-0.7
		c-0.3-0.7,0-1.1,0.6-1.5c0.7-0.4,1.4-0.3,2.1-0.4c0.4,0,0.3,0.3,0.3,0.4C88.5,56.5,87.7,57.5,86.8,57.7z"></path> <path d="M110.1,50.4c-1.9-0.5-4,0.5-4.8,2.2c-1,2-0.5,4.4,1.1,5.8c1.6,1.3,4.5,1.4,6.2,0.1c0.7-0.6-0.1-0.9-0.2-1.4
		c-0.1-0.4-0.4-0.4-0.7-0.2c-0.4,0.3-0.9,0.5-1.4,0.6c-1.4,0.3-2.6-0.4-3-1.6c-0.2-0.5-0.1-0.8,0.5-0.7c0.8,0,1.5,0,2.3,0
		c0.8,0,1.6,0,2.4,0c0.6,0,0.7-0.3,0.7-0.8C113.1,52.4,111.9,50.8,110.1,50.4z M110.3,53.9c-0.5,0-0.9,0-1.4,0c-0.4,0-0.8,0-1.2,0
		c-0.7,0.1-0.7-0.3-0.4-0.8c0.4-0.8,1.2-1.3,2-1.1c0.8,0.1,1.2,0.6,1.4,1.4C110.8,53.7,110.7,53.9,110.3,53.9z"></path> <path d="M80.1,50.7c-1.6-0.8-3.6-0.5-4.9,0.7c-1.3,1.2-1.7,3.5-1,5.2c1.1,2.5,4.1,3.4,6.8,2.1c1.1-0.5,1.1-0.6,0.5-1.6
		c-0.3-0.5-0.5-0.6-0.9-0.2c-0.4,0.3-0.8,0.4-1.3,0.5c-1.4,0.3-2.6-0.4-3.1-1.6c-0.2-0.5-0.1-0.8,0.5-0.7c0.8,0,1.6,0,2.4,0
		c0.8,0,1.6,0,2.4,0c0.4,0,0.6-0.1,0.6-0.5C82.1,53.4,81.6,51.4,80.1,50.7z M79.3,53.9c-0.5,0-1,0-1.5,0c-0.4,0-0.8,0-1.2,0
		c-0.6,0-0.6-0.2-0.4-0.7c0.4-0.8,1.2-1.3,2-1.2c0.8,0.1,1.2,0.6,1.5,1.4C79.8,53.7,79.8,53.9,79.3,53.9z"></path> <path d="M127.8,54.8c-0.6-0.4-1.2-0.5-1.8-0.7c-0.5-0.2-0.9-0.3-1.3-0.6c-0.3-0.2-0.6-0.5-0.3-1c0.3-0.5,0.8-0.5,1.2-0.5
		c0.4,0,0.9,0,1.1,0.5c0.1,0.3,0,0.8,0.6,0.7c0.4-0.1,0.8,0,1.1,0c0.2,0,0.2-0.2,0.2-0.3c0.2-1-0.2-1.8-1.1-2.2
		c-0.6-0.3-1.3-0.4-1.9-0.4c-0.9,0-1.6,0.1-2.3,0.5c-1.6,0.8-1.7,2.9-0.2,3.9c0.6,0.4,1.2,0.6,1.8,0.8c0.4,0.2,0.9,0.3,1.3,0.5
		c0.4,0.2,0.7,0.6,0.4,1.1c-0.4,0.6-1,0.6-1.6,0.5c-0.5,0-1-0.1-1.3-0.6c-0.2-0.3,0.1-0.8-0.5-0.8c-0.4,0-0.8,0-1.1,0
		c-0.2,0-0.3,0.1-0.3,0.3c-0.1,0.8,0,1.5,0.7,2c1.3,1,4,1.1,5.4,0.1C129.3,57.7,129.3,55.8,127.8,54.8z"></path> <path d="M121.1,50.9c0.1-0.6-0.2-0.6-0.7-0.6c-1.1,0.2-1.8,0.8-2.4,1.9c-0.1-1.7-0.3-1.8-1.8-1.8c-0.3,0-0.7,0-1,0
		c-0.5,0-0.8,0.1-0.7,0.7c0.1,0.4-0.2,1.1,0.6,1c0.5-0.1,0.7,0.2,0.7,0.7c0,1.2,0,2.5,0,3.7c0,0.6,0,1-0.9,0.9
		c-0.6-0.1-0.4,0.4-0.4,0.7c0,0.3-0.3,0.8,0.4,0.9c1.3,0,2.6,0,3.8,0c0.5,0,0.5-0.3,0.4-0.6c-0.1-0.3,0.3-1-0.3-1
		c-1.1,0.1-1-0.6-0.9-1.2c0-0.5,0-1.1,0.1-1.6c0.2-1.2,1-2.1,2-2.1c0.8,0,1-0.3,0.9-1C121.1,51.4,121.1,51.2,121.1,50.9z"></path> <path d="M44.7,57.4c-0.9,0.1-1-0.5-1-1.2c0-1.4,0-2.8,0-4.2c0,0,0,0,0,0c0-0.9,0-1.7,0-2.6c0-2.6,0-2.6-2.6-2.3
		c-0.4,0-0.5,0.2-0.5,0.5c0.1,0.4-0.3,1.1,0.3,1.2c0.7,0.1,0.6,0.4,0.6,0.8c0,2.4,0,4.7,0,7.1c0,1.5,0.6,2.3,2,2.6
		c1.4,0.3,1.8-0.1,1.5-1.5C44.9,57.5,44.9,57.4,44.7,57.4z"></path> <path d="M72.2,57.4c-0.7-0.1-0.9-0.5-0.9-1.1c0-1.4,0-2.8,0-4.2c0-0.9,0-1.8,0-2.7c0-2.5,0-2.5-2.5-2.3c-0.3,0-0.6,0-0.5,0.4
		c0.1,0.4-0.4,1.1,0.3,1.2c0.6,0.1,0.6,0.4,0.6,0.8c0,2.4,0,4.8,0,7.2c0,1.7,1.1,2.7,2.9,2.5c0.4,0,0.6-0.2,0.5-0.6
		C72.5,58.2,73,57.6,72.2,57.4z"></path> <path d="M75.8,32.5c1.3,0.8,1.9,2.2,1.4,3.9c-0.2,0.6,0.2,0.5,0.5,0.6c3.4,0.7,6.5-0.1,9.1-2.3c0.4-0.3,0.5-0.6,0.3-1.1
		c-0.5-1.5,0.2-3.1,1.6-3.9c0.4-0.2,0.7-0.3,1.2-0.4c0.4,0,0.4-0.4,0.4-0.7c0-0.4-0.4-0.2-0.6-0.2c-0.5,0.1-0.7-0.1-0.9-0.5
		c-0.7-1.7-2.5-2.7-4.2-2.2c-0.8,0.2-1.2,0.1-1.5-0.7c0.2-0.5,0.6-0.8,0.9-1.2c1-1.1,1.9-2.3,2.9-3.4c0.3-0.3,0.4-0.7,0-1.1
		c-0.3-0.3-0.7-0.2-1,0.1c-0.1,0.1-0.2,0.2-0.4,0.3c-1.4,1.1-2.7,2.4-4.2,3.5c-1.7-1-3.4-1.2-5.2-0.3c-2.1,1-3.1,2.8-3.1,5.2
		c-1-1-2-1.4-3.3-1.3c-0.4,0-0.7,0.1-0.6,0.6c0.2,2.2,0.9,4.1,2.3,5.9c0.1,0,0.1-0.1,0.2-0.1C73,31.9,74.5,31.7,75.8,32.5z
		 M83.2,30.1c0.5-0.7,0.6-1.5,0.6-2.3c0.1-1.1,0.4-1.4,1.5-1.4c1,0,1.7,0.4,2.3,1.2c0.7,0.9,0.6,1.1-0.2,1.8
		c-0.7,0.6-1.2,1.3-1.3,2.2c-0.1,0.6-0.4,0.7-0.9,0.7c-0.6,0-1.2-0.2-1.7-0.6C83,31.3,82.7,30.9,83.2,30.1z"></path> <path d="M75.1,22c1.2,0,2.1-0.9,2.1-2.1c0-1.2-0.9-2.1-2.1-2.2c-1.2,0-2.2,0.9-2.2,2.1C73,21.1,73.9,22,75.1,22z M75.1,18.6
		c0.7,0,1.3,0.6,1.3,1.3c0,0.7-0.5,1.3-1.2,1.3c-0.7,0-1.3-0.6-1.3-1.2C73.8,19.2,74.4,18.6,75.1,18.6z"></path> <path d="M71.7,25.5c0.6,0,1.1-0.5,1.1-1.1c0-0.6-0.4-1-1-1.1c-0.6-0.1-1.1,0.4-1.1,1C70.6,25,71.1,25.5,71.7,25.5z"></path> <path d="M79.4,20.3c0.5,0,0.7-0.3,0.7-0.8c-0.1-0.5-0.3-0.7-0.8-0.7c-0.5,0-0.8,0.3-0.8,0.8C78.6,20,78.9,20.4,79.4,20.3z"></path> <path d="M88.1,25.2c0.5,0,0.7-0.3,0.8-0.8c0-0.5-0.3-0.8-0.8-0.8c-0.5,0-0.8,0.3-0.8,0.8C87.3,25,87.6,25.3,88.1,25.2z"></path> </g> </svg>