<svg xmlns="http://www.w3.org/2000/svg" fill="#5C6D82" viewBox="0 0 160 64" role="img"><title>Onfleet Customer Foxtrot</title><path d="M55.83,43.63a.11.11,0,0,1,.15,0l.64,1.3a2.14,2.14,0,1,1-3.82,1.91l-.64-1.3a.12.12,0,0,1,.05-.15Zm-2.4,2.86a1.4,1.4,0,0,0,2.5-1.24l-.31-.63-2.49,1.25Zm4.82,1.76a.11.11,0,0,1,.16,0l1.51,2a.11.11,0,0,1,0,.16l-.4.31a.11.11,0,0,1-.16,0l-1.09-1.44-.8.61.92,1.2a.11.11,0,0,1,0,.16l-.4.31a.11.11,0,0,1-.16,0l-.92-1.19L56,51l1.1,1.43a.12.12,0,0,1,0,.17l-.4.3a.11.11,0,0,1-.16,0l-1.5-2a.13.13,0,0,1,0-.17ZM61,51.7a.11.11,0,0,1,.16,0l.41.4a.12.12,0,0,1,0,.16l-2.39,2.46,1.11,1.09a.11.11,0,0,1,0,.16l-.35.36a.11.11,0,0,1-.17,0l-1.59-1.56a.12.12,0,0,1,0-.17Zm2.86,2.66a.11.11,0,0,1,.16,0l.45.34a.11.11,0,0,1,0,.16L62,58.06a.12.12,0,0,1-.17,0l-.45-.34a.15.15,0,0,1,0-.17Zm1.65,1.41a.11.11,0,0,1,.17-.09l.54.3a.13.13,0,0,1,.06.11L66,59l0,0,2.3-1.72a.1.1,0,0,1,.12,0l.55.3a.11.11,0,0,1,0,.19l-3.65,2.67a.09.09,0,0,1-.12,0l-.06,0a.12.12,0,0,1-.06-.11Zm4.74,2.49a.12.12,0,0,1,.15-.08l2.34.83a.12.12,0,0,1,.07.15l-.17.47a.11.11,0,0,1-.15.07l-1.7-.6-.33.95,1.42.5a.11.11,0,0,1,.06.15l-.16.48a.12.12,0,0,1-.15.07l-1.42-.51-.35,1,1.7.6a.1.1,0,0,1,.07.14l-.17.48a.11.11,0,0,1-.14.07L69,62.22a.1.1,0,0,1-.07-.14Zm4.1,1.38a.12.12,0,0,1,.13-.1l1.72.29a1.31,1.31,0,0,1,0,2.59l.57,1.67a.12.12,0,0,1-.13.16l-.63-.1a.11.11,0,0,1-.09-.07l-.54-1.74-.66-.11-.26,1.54a.13.13,0,0,1-.13.1l-.55-.1a.13.13,0,0,1-.1-.13Zm1.47,2.1a.61.61,0,0,0,.7-.51.62.62,0,0,0-.5-.69l-1-.16-.2,1.21Zm4,.7-1.41-2a.11.11,0,0,1,.09-.18h.62a.12.12,0,0,1,.1.06l1,1.39,1-1.42a.1.1,0,0,1,.09,0h.63a.12.12,0,0,1,.1.18l-1.38,2.05,0,2a.11.11,0,0,1-.11.12H80a.12.12,0,0,1-.12-.12Zm6-2.58a.1.1,0,0,1,.07-.12l.1,0a.12.12,0,0,1,.12,0l2.1,2.39h0L88.67,59a.1.1,0,0,1,.09-.08l.09,0a.1.1,0,0,1,.13.06l1.86,3.73a.11.11,0,0,1-.06.17l-.53.16a.14.14,0,0,1-.14-.06l-1-2.12h0l-.34,2.61a.09.09,0,0,1-.08.09l-.1,0a.1.1,0,0,1-.12,0l-1.72-2h0L87,63.83A.12.12,0,0,1,87,64l-.53.16c-.08,0-.13,0-.15-.11ZM92.64,62l-.23-4.54a.11.11,0,0,1,0-.1l.06,0a.09.09,0,0,1,.12,0l3.57,2.76a.11.11,0,0,1,0,.19l-.47.25a.18.18,0,0,1-.22,0l-.57-.45-1.61.86,0,.72a.18.18,0,0,1-.09.19l-.47.25A.11.11,0,0,1,92.64,62Zm1.73-2.39-1.17-.91h0l.1,1.47Zm1.1-3.74a.12.12,0,0,1,0-.16l1.39-1.07a1.32,1.32,0,0,1,1.85.23,1.37,1.37,0,0,1,0,1.54l1.61.72a.12.12,0,0,1,0,.21l-.51.39a.11.11,0,0,1-.11,0L98.15,57l-.54.41.94,1.24a.11.11,0,0,1,0,.16l-.44.35a.11.11,0,0,1-.16,0Zm2.54.37a.64.64,0,0,0,.1-.87.59.59,0,0,0-.83-.1l-.79.61.74,1Zm1.18-3.33a.15.15,0,0,1,0-.21l.36-.4a.15.15,0,0,1,.21,0L101,53.39l-.28-2.3a.17.17,0,0,1,0-.13l.4-.46a.13.13,0,0,1,.23.08l.29,2.39,2.66.07a.14.14,0,0,1,.09.23l-.44.5a.15.15,0,0,1-.11.06l-2.52-.12L102.72,55a.15.15,0,0,1,0,.21l-.36.4a.13.13,0,0,1-.2,0Zm3.09-3.58a.11.11,0,0,1,0-.16l1.31-2.11a.13.13,0,0,1,.17,0l.42.26a.12.12,0,0,1,0,.17l-1,1.53.85.54.8-1.29a.11.11,0,0,1,.16,0l.43.27a.12.12,0,0,1,0,.16l-.8,1.28.91.57,1-1.54a.12.12,0,0,1,.16,0l.43.27a.11.11,0,0,1,0,.16l-1.31,2.11a.12.12,0,0,1-.16,0Zm3.07-4.12-.4.86a.12.12,0,0,1-.15.05l-.45-.21a.11.11,0,0,1-.06-.15l1.12-2.43a.12.12,0,0,1,.16-.05l.45.21a.12.12,0,0,1,.06.15l-.4.85,3.1,1.46a.12.12,0,0,1,.06.15l-.24.52a.13.13,0,0,1-.16,0ZM90.66,22.41a17.11,17.11,0,1,1-20,0c-1.39-5.07.39-8.17.46-8.31a.89.89,0,0,1,.87-.42c2.53.33,5.07,3.75,6.3,5.66a16.44,16.44,0,0,1,4.75,0c1.23-1.91,3.77-5.33,6.3-5.66a.89.89,0,0,1,.87.42C90.27,14.24,92.05,17.34,90.66,22.41Zm-18,.67a1,1,0,0,1,0,.6,25.92,25.92,0,0,0-1.27,7.77l6.18,2.46a.89.89,0,0,1,.54.7c0,.12.41,2.84,2.51,2.84s2.51-2.81,2.52-2.84a.89.89,0,0,1,.54-.7h0l6.18-2.46a26.32,26.32,0,0,0-1.27-7.78.92.92,0,0,1,0-.59h0c0-.14.1-.29.14-.43l0-.14A10.76,10.76,0,0,0,89,15.6c-1.5.66-3.4,3-4.76,5.15a.87.87,0,0,1-.89.41,15.28,15.28,0,0,0-5.31,0,.89.89,0,0,1-.89-.41c-1.36-2.2-3.26-4.49-4.76-5.15a10.76,10.76,0,0,0,.15,6.91l0,.15C72.59,22.8,72.63,22.94,72.68,23.08Zm8,28.69a17.38,17.38,0,0,0,2.19-.15c-1.18-2-2.65-2.91-4.54-2.77a32.39,32.39,0,0,1-5.27.88A15.18,15.18,0,0,0,80.65,51.77Zm7.29-1.84a38.73,38.73,0,0,1,.14-7.14,15.82,15.82,0,0,1-6.52,5,8.12,8.12,0,0,1,3.08,3.42A15,15,0,0,0,87.94,49.93Zm-7.58-3.52a14.74,14.74,0,0,0,9.21-11.25,15.89,15.89,0,0,0,.25-1.8l-5,2c-.36,1.56-1.54,3.84-4.15,3.84s-3.78-2.28-4.14-3.84l-5-2a15.89,15.89,0,0,0,.25,1.8.88.88,0,0,1-.7,1l-.16,0a.89.89,0,0,1-.86-.72,25.64,25.64,0,0,1,.54-10.75,15.46,15.46,0,0,0,.16,23.37,31.77,31.77,0,0,0,7.24-1Q79.18,46.82,80.36,46.41Zm9.26,2.45a15.44,15.44,0,0,0,1.14-24.13,25.52,25.52,0,0,1,.53,10.75A17.55,17.55,0,0,1,90.62,38,41.67,41.67,0,0,0,89.62,48.86Zm-9-12.46a1.24,1.24,0,1,1,1.23-1.24A1.24,1.24,0,0,1,80.64,36.4Zm-3.55-6.33a1.24,1.24,0,1,1,1.24-1.24A1.24,1.24,0,0,1,77.09,30.07Zm7.26,0a1.24,1.24,0,1,1,1.24-1.24A1.24,1.24,0,0,1,84.35,30.07ZM77.6,44.6a.88.88,0,0,1-1,1.43,16.37,16.37,0,0,1-5.67-7.42A.87.87,0,1,1,72.53,38,14.62,14.62,0,0,0,77.6,44.6ZM51.5,32.82a.93.93,0,1,1,1-.83A.92.92,0,0,1,51.5,32.82Zm.36-15a.2.2,0,0,1,0-.28L54.28,14a.21.21,0,0,1,.28-.05l.94.65a.22.22,0,0,1,0,.28L53.9,17.26l1.23.86,1.37-2a.19.19,0,0,1,.27,0l.93.66a.19.19,0,0,1,0,.27L56.4,19l2.08,1.45a.21.21,0,0,1,.05.28l-.7,1a.21.21,0,0,1-.28.05ZM60.14,7.69a3.78,3.78,0,0,1,4.44,6.11A3.72,3.72,0,0,1,59.33,13,3.77,3.77,0,0,1,60.14,7.69Zm3.45,4.75a2.11,2.11,0,0,0,.46-2.93,2.09,2.09,0,1,0-.46,2.93Zm6.72-6.5L67.42,3.32A.19.19,0,0,1,67.51,3L69,2.6a.19.19,0,0,1,.18,0l1.67,1.56h0L71.52,2a.2.2,0,0,1,.14-.13l1.47-.4c.18,0,.31.08.25.24L72.19,5.43l3,2.78a.18.18,0,0,1-.08.33l-1.4.38a.21.21,0,0,1-.19,0L71.66,7.19h0L70.9,9.6a.26.26,0,0,1-.15.14l-1.4.38c-.17,0-.3-.08-.25-.24Zm9.27-3.85L78.09,2a.2.2,0,0,1-.19-.21l0-1.14A.19.19,0,0,1,78.15.5l4.63.17A.21.21,0,0,1,83,.88l0,1.14a.2.2,0,0,1-.21.19l-1.49-.06L81,7.75a.22.22,0,0,1-.21.2l-1.25,0a.22.22,0,0,1-.19-.21Zm8.28-.69a.21.21,0,0,1,.26-.13l2.94,1a2.24,2.24,0,0,1-.75,4.37l.47,3a.2.2,0,0,1-.27.22l-1.32-.46a.2.2,0,0,1-.12-.14l-.39-3.09L88,6l-.89,2.53a.22.22,0,0,1-.26.12l-1.17-.41A.2.2,0,0,1,85.56,8Zm2,3.84a.85.85,0,0,0,1-.53.82.82,0,0,0-.49-1L89,3.18l-.54,1.54Zm10.95,2.23a3.79,3.79,0,0,1,.44,5.34,3.76,3.76,0,1,1-.44-5.34ZM97.07,12a2.08,2.08,0,0,0,2.94-.24,2.09,2.09,0,1,0-2.94.24Zm9.25,3.61-.76-1.29a.22.22,0,0,1,.07-.28l1-.58a.2.2,0,0,1,.28.07l2.36,4a.21.21,0,0,1-.07.28l-1,.58a.2.2,0,0,1-.27-.07L107.17,17l-4.81,2.85a.21.21,0,0,1-.27-.07l-.63-1.09a.2.2,0,0,1,.07-.27ZM109.62,31a.94.94,0,0,1,1,.85,1,1,0,0,1-.89,1,.94.94,0,0,1-1-.9A.92.92,0,0,1,109.62,31Z"></path></svg>