<svg xmlns="http://www.w3.org/2000/svg" fill="#93A3B7" viewBox="0 0 160 64" role="img"> <title>Onfleet Customer Gap</title> <g> <g> <path d="M95.3,16.5H94v17.7h1.5c1.1,0,1.7-0.9,1.7-1.9V18.6C97.1,17.7,96.6,16.5,95.3,16.5z"></path> <path d="M77.1,34.3h3.1c0,0-1.3-13.4-1.6-13.8L77.1,34.3z"></path> <path d="M48,0v64h64V0H48z M69.7,33h-1.3v15h-0.6c0-0.6-0.4-0.9-0.7-0.8c-0.6,0.3-1.3,1.1-2.9,1.1
			c-1.9,0-3.9-0.8-4-4.9V19.7c0-3.2,2.2-4,3.7-4c1,0,2,0.4,2.9,1c0.2,0.2,0.5,0.2,0.5-0.3V16H68v10.1h-0.6c0-3.3-1.2-9.8-3.4-9.8
			c-1.1,0-1.3,1.7-1.3,2.5V46c0,1,0.7,1.9,1.5,1.9c0.9,0,1.6-0.8,1.6-1.9V33h-1.5v-0.5h5.4V33z M85.6,48h-5.3v-0.6h1.4l-1.4-12.6H77
			L75.8,46c-0.1,0.7,0.4,1.5,1.5,1.5V48h-4v-0.6c1.5,0,1.6-0.7,1.8-1.8L78.5,16h2.2l3.5,31.5h1.4V48z M99.7,31.8
			c0,1.8-1.4,3.1-3.9,3.1H94v12.6h2V48h-6v-0.6h1.4V16.5H90V16h5.3c3.1,0,4.3,1.6,4.3,3.4L99.7,31.8L99.7,31.8z"></path> </g> </g> </svg>