<svg xmlns="http://www.w3.org/2000/svg" fill="#5C6D82" viewBox="0 0 160 64" role="img"><title>Onfleet Customer Grubmarket</title><path d="M6.4,19.34h.65a26.58,26.58,0,0,1,4.27,1.75,4.53,4.53,0,0,1,1.75,2.72,5,5,0,0,1,.33,2.56,7.44,7.44,0,0,1-2.7-.62c-1.29-.44-2.72-1-3.35-2.28A7.69,7.69,0,0,1,6.4,19.34Zm15.71,0h.47l.36.52c-.41,1.56-.61,3.31-1.81,4.52a11.28,11.28,0,0,1-3.89,1.77c-.48.1-1,.44-1.47.09a3,3,0,0,1,.12-1.74c.36-1.27.77-2.74,2-3.46a28.39,28.39,0,0,1,4.2-1.7Zm-20,9.38a2.16,2.16,0,0,1,1.31-.56c7.33,0,14.66,0,22,0a3.89,3.89,0,0,1,1.23.16c.74.58.48,1.61.19,2.35-.25.53-.92.47-1.41.5H7.47c-.46,0-1.2.06-1.19.66.1,1.82.52,3.6.73,5.41a16.42,16.42,0,0,0,.57,3.19c.26.37.79.25,1.18.3H20.3c.49,0,1.26.06,1.36-.58A36.33,36.33,0,0,0,22.24,36c.11-.79-.89-.81-1.44-.8-2.65.06-5.32-.08-8,.07-.87,0-.82,1.52,0,1.55,1.93.16,3.87-.07,5.79.09a1,1,0,0,1,.73,1.5c-.38.66-1.27.51-1.92.55-2.3-.05-4.6,0-6.9,0a1.13,1.13,0,0,1-1.05-1.15C9.34,36.51,9.06,35.27,9,34c0-.85,1.07-1.09,1.79-1H24.64c.57,0,1.32,0,1.59.6a5.19,5.19,0,0,1-.07,2c-.37,2.23-.58,4.48-1,6.71,0,.49-.44.74-.79,1H4.6c-.82-.9-.73-2.16-.93-3.27-.53-3.44-1-6.89-1.57-10.32ZM36.6,30.4c2.7-2.67,7.37-2.82,10.64-1,1.38.7.15,2.36-.77,2.91-1-.12-1.85-.69-2.84-.84A4.67,4.67,0,0,0,39,33a4.38,4.38,0,0,0,.93,5.88,4.85,4.85,0,0,0,5.67-.1,5.36,5.36,0,0,0,.19-1.12c-.67-.16-1.74.17-2.09-.59A2.38,2.38,0,0,1,44,34.77a21,21,0,0,1,4.27-.05c.78.05.73.94.76,1.48,0,1.93.1,3.87-.09,5.79-.15.8-1.25.71-1.91.68s-.9-.5-1.16-.93a7.58,7.58,0,0,1-10.12-1.9,7.48,7.48,0,0,1,.84-9.44Zm38-1.91a4.58,4.58,0,0,1,2.62.17c.55,1.48.11,3.12.25,4.66a4.87,4.87,0,0,1,6.07-.13,6.08,6.08,0,0,1,1,7.52,4.79,4.79,0,0,1-7.16,1c-.33.45-.65,1.06-1.35.93-.8.07-2.18.12-2.13-1-.09-3.86,0-7.73,0-11.6,0-.57,0-1.49.77-1.61Zm4.29,6.68A2.65,2.65,0,0,0,79.12,40c1.77.4,3-1.5,2.59-3A2.16,2.16,0,0,0,78.93,35.17ZM89.14,28.5a9.33,9.33,0,0,1,2.84,0c.65.13.82.79,1,1.28.82,2.35,1.77,4.66,2.48,7,.86-2.4,1.72-4.81,2.61-7.21.2-.42.37-1,.91-1.1a9,9,0,0,1,2.83,0c.89.17.78,1.21.89,1.86.28,3.69.65,7.37.93,11.06a1,1,0,0,1-1.08,1.28c-.87,0-2.34.3-2.54-.83-.31-2.59-.39-5.2-.49-7.8-.77,1.86-1.36,3.79-2.18,5.63-.45,1-1.86.7-2.79.68-.59,0-.83-.53-1-.95-.73-1.79-1.35-3.61-2-5.42-.11,2.63-.18,5.28-.53,7.89-.15,1-1.5.78-2.3.82-.65.08-1.46-.28-1.32-1,.23-4,.71-7.93,1-11.89C88.39,29.31,88.51,28.62,89.14,28.5Zm37.75,1c-.13-.71.6-1.17,1.29-1.1s2.13-.18,2.3.83c.11,2.17,0,4.35,0,6.52l1,.09c.63-1,1.17-2,1.87-2.88.54-.81,1.67-.52,2.52-.57.52-.09,1.29.27,1,.87-.67,1.35-1.66,2.55-2.47,3.84.85,1.34,1.77,2.66,2.62,4,.13.36.58.76.31,1.15-.27.57-1,.37-1.54.44-.78,0-1.79.11-2.23-.65-.75-1.09-1.32-2.27-2-3.39l-1.15,0a24.38,24.38,0,0,1-.07,3.42c-.44.9-1.71.51-2.55.56a1,1,0,0,1-1-1.3C126.87,37.43,126.86,33.47,126.89,29.51Zm25.19.41a4,4,0,0,1,2.68-.16c1,.59.43,1.94.6,2.86.7.07,1.64-.21,2.12.43.69.61.22,1.62-.38,2.12a10.62,10.62,0,0,1-1.77.13,27.57,27.57,0,0,0,.06,3.52c.24.87,1.37.86,2.11,1.13,0,.89,0,1.79,0,2.68-2.16.45-5-.28-5.66-2.52a37,37,0,0,1-.11-4.71c-.57-.15-1.41-.25-1.45-1-.06-.55-.18-1.4.49-1.66.34-.09.69-.16,1-.22.05-.87-.22-1.85.3-2.62Zm-45.37,3.23a8.35,8.35,0,0,1,5.77-.76,3.82,3.82,0,0,1,3,3.49,34.63,34.63,0,0,1,0,6.11c-.24,1-1.61.65-2.4.65s-.77-.73-.89-1.21a4.39,4.39,0,0,1-5,1.14,3,3,0,0,1-.72-5c1.55-1.14,3.61-1.2,5.49-1.34-.26-.46-.42-1.13-1.09-1.21-1.26-.34-2.42.67-3.66.43C106.65,34.89,105.86,33.79,106.71,33.15Zm2.18,6.21c0,.82,1,1.25,1.7.91.92-.29,1.19-1.23,1.38-2C110.9,38.33,109.37,38.22,108.89,39.36Zm31.9-6.4a6.17,6.17,0,0,1,6.37.18,4.61,4.61,0,0,1,1.78,4.22c-.17.82-1.22.91-1.94.89a33.92,33.92,0,0,0-5,.06c.36.6.7,1.3,1.45,1.55,1.3.6,2.62-.18,3.9-.41.82.11,1.07,1.06,1.33,1.69-.07.76-.89,1.06-1.53,1.3a7.17,7.17,0,0,1-7.19-1A5.36,5.36,0,0,1,140.79,33Zm1.2,3.29c1.16,0,2.33,0,3.49,0-.24-.71-.6-1.57-1.55-1.58s-1.57.82-1.94,1.57ZM51.35,34.16c0-.57-.08-1.41.62-1.68a7.06,7.06,0,0,1,2.2,0c1,.29.6,1.52.7,2.25a3.64,3.64,0,0,1,3.68-2.37c.2,1,.54,2.1,0,3-.87.46-2.17.25-2.79,1.15-1.27,1.73-.4,3.93-.87,5.83-.57.56-1.51.33-2.24.37a1,1,0,0,1-1.2-1C51.27,39.21,51.39,36.68,51.35,34.16Zm9.1-1.11c.17-.73,1.11-.65,1.71-.65s1.6-.08,1.74.68c.23,2-.13,4,.17,6,.35,1.25,2.32.8,2.86-.11,1.1-1.86.3-4.07.68-6.07.59-.77,1.76-.38,2.62-.44s.92.88.92,1.44c0,2.33,0,4.65,0,7-.06.6.07,1.49-.68,1.76a6.62,6.62,0,0,1-2.13,0c-.6-.12-.64-.74-.79-1.18a4.73,4.73,0,0,1-5.91.78c-1.19-.86-1.32-2.38-1.28-3.68.06-1.83-.1-3.66.08-5.48Zm57.91-.57a4.77,4.77,0,0,1,2.49.13c.61.53.31,1.41.38,2.1.65-1.14,1.67-2.55,3.26-2.32.51-.07.59.56.63.89,0,.69.19,1.49-.26,2.1-.92.4-2.18.25-2.8,1.16-1.23,1.69-.43,3.83-.82,5.7-.3.6-1.14.41-1.71.47s-1.64,0-1.72-.77c-.15-2.49,0-5-.11-7.49,0-.66-.15-1.64.66-2Z"></path></svg>