<svg xmlns="http://www.w3.org/2000/svg" viewBox="0 0 160 64" fill="#93A3B7" role="img"> <title>Onfleet Customer Imperfect Foods</title> <g> <g> <path d="M19.5,49.8c0-1.9,0-3.8-0.4-5.8c-0.4-1.9-0.7-3.8-1.1-5.6c-0.2-1-0.6-2-0.8-3.1c-0.3-1.3-0.7-2.7-1.1-4
			c-0.1-0.2-0.1-0.4-0.1-0.6c-0.1-0.7,0-1.4,0-2.1c0-0.3,0-0.6,0-0.9c-0.1-0.6-0.2-1.2-0.2-1.8c0-0.6-0.2-1.1-0.5-1.6
			c-0.2-0.2-0.4-0.4-0.5-0.6c-0.1-0.2-0.3-0.2-0.4,0c-0.4,0.3-0.8,0.4-1.3,0.5c-0.4,0-0.8,0.1-1.1,0.1c-0.5,0-1,0-1.5-0.3
			c-0.2-0.1-0.3,0-0.4,0.1c-0.4,0.5-0.7,1.1-0.8,1.7c-0.4,1.8-0.3,3.6-0.4,5.3c0,0,0,0.1,0,0.1c0.1,0.5,0.1,0.9,0.1,1.4
			c0,0.6,0.1,1.2,0.1,1.8c0.1,1.1,0.3,2.3,0.2,3.4c0,0.2,0,0.5,0.1,0.7c0.2,0.8,0.2,1.6,0.2,2.4c0,0.5,0,1.1,0.1,1.6
			c0.1,0.4,0.1,0.7,0.1,1.1c0,0.7,0.1,1.4,0.1,2c0,0.7,0.2,1.4,0.2,2.1c-0.1,1.1,0,2.3-0.1,3.4c0.1,1.9-0.1,3.8,0.4,5.7
			c0,0.2,0.1,0.5,0.1,0.7c0,0.5,0.2,1.1,0.4,1.5c0.3,0.6,0.8,0.8,1.4,0.4c0.2-0.1,0.3-0.3,0.4-0.5c0.2-0.3,0.3-0.6,0.3-0.9
			c0.1-0.2,0.1-0.5,0.2-0.7c0.2-0.3,0.2-0.6,0.3-1c0.1-1,0.3-1.9,0.5-2.8c0.1-0.5,0.2-1,0.2-1.4c0-0.5,0.1-1.1,0.2-1.6
			c0.2-1.2,0.5-2.3,0.5-3.6c0-0.5,0-1.1-0.1-1.6c0-0.4-0.1-0.9-0.1-1.3c0-0.1,0-0.3,0.1-0.3c0.1,0,0.2,0.1,0.2,0.2
			c0.1,0.4,0.2,0.8,0.3,1.1c0.1,0.4,0.1,0.8,0.3,1.1c0.5,1.2,0.9,2.4,1.4,3.5c0.4,1,0.9,1.9,1.3,2.8c0.1,0.3,0.3,0.5,0.6,0.7
			c0.3,0.2,0.6,0.1,0.6-0.3c0.1-0.9,0.2-1.8,0.1-2.6C19.5,50.3,19.5,50,19.5,49.8z"></path> <path d="M38.7,34.7c-0.1-0.8-0.1-1.6-0.2-2.4c-0.1-1.1-0.1-2.1-0.3-3.2c-0.1-0.3-0.1-0.6-0.1-0.9c-0.1-0.8-0.1-1.6-0.2-2.4
			c-0.1-0.6-0.1-1.2-0.3-1.8c-0.1-0.5-0.4-0.7-0.9-0.7c-0.2,0-0.4,0-0.6,0c-0.4,0-0.8,0.1-1.1,0.5c-0.5,0.6-0.9,1.3-1.3,2
			c-0.4,0.8-0.7,1.6-1.2,2.3c-0.3,0.4-0.6,0.8-0.8,1.3c-0.2,0.5-0.5,0.9-0.8,1.4c-0.1,0.2-0.2,0.2-0.3,0c-0.2-0.5-0.4-1-0.7-1.4
			c-0.3-0.5-0.6-1-0.8-1.5c-0.7-1.3-1.5-2.5-2.3-3.7c-0.4-0.6-0.9-0.9-1.6-0.8c-0.8,0.1-0.9,0.1-1.3,1c0,0.1-0.1,0.2-0.1,0.3
			c-0.1,0.7-0.2,1.3-0.3,2c-0.1,0.7-0.1,1.5-0.2,2.2c-0.2,1.4-0.4,2.9-0.4,4.3c-0.1,1.4-0.1,2.8-0.3,4.2c-0.2,1-0.3,2-0.3,3
			c0,0.5,0,0.6,0.6,0.7c0.1,0,0.1,0,0.2,0c0.9,0,1.9,0,2.8,0c0.5,0,0.6-0.2,0.6-0.6c0-0.3-0.1-0.6,0-0.9c0.1-1.9,0.2-3.8,0.4-5.7
			c0-0.4,0-0.7,0.2-1.1c0.2,0.2,0.5,0.2,0.6,0.4c0.2,0.3,0.5,0.6,0.6,1c0.7,1.5,1.6,2.8,2.3,4.2c0,0.1,0.1,0.1,0.1,0.2
			c0.2,0.3,0.2,0.3,0.5,0.1c0.2-0.2,0.3-0.3,0.4-0.5c0.3-0.5,0.5-1.1,0.9-1.5c0.4-0.6,0.7-1.2,1-1.8c0.2-0.5,0.4-1,0.7-1.5
			c0.1-0.1,0.1-0.2,0.3-0.2c0.2,0,0.2,0.2,0.2,0.3c0,0.4,0,0.8,0,1.2c0.1,0.4,0.1,0.8,0.2,1.2c0.2,1.5,0.5,3.1,0.4,4.6
			c0,0.4,0.2,0.5,0.6,0.6c1.1,0.1,2.3-0.1,3.4-0.1c0.3,0,0.3-0.1,0.3-0.4c0-0.1,0-0.2,0-0.3C39.1,38.4,38.8,36.6,38.7,34.7z"></path> <path d="M88.7,40c-0.3-0.4-0.6-0.7-0.9-1.1c-0.5-0.8-1.1-1.5-1.7-2.2c-0.3-0.4-0.6-0.8-1-1.1c-0.2-0.2-0.3-0.4-0.1-0.6
			c0.4-0.4,0.7-0.9,1.1-1.3c0.8-1,1.3-2.2,1.2-3.5c0-0.2,0-0.5,0-0.7c0-1.3-0.1-2.5-0.6-3.6c-0.1-0.3-0.3-0.6-0.6-0.8
			c-0.3-0.2-0.6-0.4-0.8-0.7c-0.2-0.3-0.5-0.5-0.9-0.6c-0.6-0.2-1.3-0.3-2-0.4c-1.7-0.1-3.3-0.2-5-0.1c-0.7,0-1.5,0-2.2,0
			c-0.5,0-0.6,0.1-0.6,0.6c0,0.3,0,0.6,0,0.9c0,1,0.1,2.1,0,3.1c0,0.6-0.2,1.3,0,2c0.1,0.4,0.1,0.8,0.1,1.2c-0.1,1.8,0,3.6-0.1,5.4
			c-0.1,1.3,0,2.6,0.1,4c0,0.4,0.1,0.4,0.5,0.5c1,0.1,2.1,0.1,3.1,0.1c0.1,0,0.2,0,0.3,0c0.4-0.1,0.4-0.1,0.4-0.5
			c-0.1-1.5-0.1-3,0-4.5c0-0.3,0.1-0.4,0.4-0.4c0.2,0,0.4,0,0.6,0c0.4,0,0.6,0.2,0.8,0.4c0.2,0.2,0.3,0.5,0.5,0.7
			c1.1,1.3,2.1,2.6,3.2,3.8c0.3,0.3,0.6,0.5,1,0.4c0.5-0.1,1.1,0,1.6,0c0.5,0,1,0,1.5,0c0.4,0,0.5-0.2,0.3-0.5
			C88.9,40.3,88.8,40.1,88.7,40z M82.9,31.8c-0.3,0.4-0.8,0.5-1.2,0.6c-0.7,0.1-1.3,0.2-2,0.1c-0.5-0.1-0.5-0.1-0.6-0.5
			c-0.2-0.8-0.2-1.7-0.2-2.5c0-0.6,0-1.2-0.1-1.9c0-0.1,0-0.3,0-0.5c0-0.3,0.1-0.4,0.4-0.4c0.2,0,0.5,0,0.7,0c0.9,0,1.7,0.1,2.5,0.5
			c0.8,0.4,1.2,1,1.4,1.9C83.9,30.1,83.5,31,82.9,31.8z"></path> <path d="M22.6,19.7c0.4,0.4,0.9,0.7,1.4,0.9c1.4,0.5,2.8,0.6,4.2,0c0.5-0.2,0.9-0.3,1.5-0.3c0.3,0,0.6-0.1,0.9-0.2
			c0.4-0.1,0.7-0.4,0.8-0.8c0.1-0.4-0.2-0.7-0.5-1c0,0-0.1-0.1-0.2-0.1C30.3,18,29.9,18,29.4,18c-0.4,0-0.7,0-1.1-0.1
			c-1-0.3-1.9-0.5-2.9-0.8c-0.8-0.2-1.6-0.4-2.4-0.5c-2-0.2-4,0.1-5.7,1.1c-0.2,0.1-0.4,0.2-0.6,0.4c-1.3,0.7-2.6,1.5-3.8,2.5
			c0,0-0.1,0-0.1,0c-0.1-0.3,0.2-0.5,0.2-0.7c0.1-0.6,0.3-1.1,0.4-1.7c0.4-1.1,1.1-1.7,2.2-2c0.6-0.2,1.1-0.3,1.7-0.5
			c0.7-0.2,1.3-0.7,1.9-1c0.3-0.1,0.5-0.3,0.8-0.6c0.5-0.6,0.8-1.2,1-2c0.1-0.4,0.3-0.8,0.5-1.2c0.1-0.2,0.3-0.3,0.3-0.5
			c0.3-0.6,0.8-1.2,1.3-1.7c0.5-0.5,0.8-1.1,1-1.7c0.2-0.6,0.1-1.2-0.1-1.7c-0.2-0.4-0.5-0.8-1-1c-0.6-0.2-1.2-0.1-1.8,0.2
			c-0.3,0.2-0.6,0.3-0.8,0.5c-0.6,0.4-1.1,0.8-1.8,1.1c-0.6,0.3-1,0.9-1.3,1.5C17.1,8.3,17,8.7,16.7,9c-0.3,0.3-0.5,0.6-0.8,0.9
			c-0.7,0.8-1.3,1.6-1.5,2.7c-0.1,0.7-0.4,1.4-0.8,2c-0.3,0.6-0.6,1.1-1,1.7c0,0.1-0.1,0.1-0.2,0.1c-0.1,0-0.1-0.1,0-0.1
			c0.1-0.6,0-1.3,0-1.9c0-0.9,0-1.8,0.1-2.7c0.2-1.1,0.7-2,1.7-2.6c0.2-0.1,0.4-0.3,0.6-0.4c0.4-0.3,0.8-0.7,1-1.2
			c0.3-0.8,0.8-1.4,1.3-2.1c0.7-0.8,1-1.7,1-2.8c0-0.3-0.1-0.4-0.3-0.4c-1.2,0-2.3,0.2-3.2,1c-0.6,0.5-0.9,1.2-1.1,2
			c-0.2,0.5-0.4,1-0.8,1.4c-0.4,0.5-0.6,1.1-0.8,1.7c-0.1,0.5-0.2,1-0.4,1.6c-0.1,0.2-0.1,0.5-0.1,0.7c-0.1,1.4-0.1,2.9-0.1,4.3
			c0,2.4,0,4.7,0.2,7c0,0.2,0,0.3-0.2,0.4c-0.3,0.2-0.5,0.4-0.7,0.7c-0.1,0.2-0.1,0.3,0.1,0.4c0.3,0.1,0.5,0.2,0.8,0.2
			c0.6,0,1.2-0.1,1.8-0.2c0.2,0,0.4-0.1,0.5-0.2c0.2-0.1,0.2-0.2,0-0.3c-0.1-0.1-0.3-0.2-0.4-0.2c-0.7-0.4-0.7-0.4-0.2-1
			c1-1.3,2.3-2.1,4-2.1c0.7,0,1.4,0,2.1-0.2c0.4-0.1,0.9-0.2,1.3-0.3c0.6-0.1,1,0,1.5,0.4C22.4,19.6,22.5,19.6,22.6,19.7z"></path> <path d="M118.4,38.2c0-0.8-0.2-0.9-0.9-0.9c-0.8,0-1.6,0.1-2.5,0c-0.6,0-1.1-0.1-1.7-0.1c-0.8,0-1.6,0-2.5,0c-0.1,0-0.2,0-0.4,0
			c-0.2,0-0.3-0.1-0.3-0.4c0-0.2,0-0.4,0-0.5c0-1.1,0.1-2.2,0.1-3.3c0-0.4,0.1-0.5,0.5-0.5c1.9,0,3.8-0.2,5.7-0.1
			c0.2,0,0.4,0,0.6-0.1c0.4-0.1,0.5-0.3,0.5-0.6c-0.1-0.6,0-1.2,0-1.8c0-0.7,0-0.8-0.8-0.8c-1.8,0-3.5,0-5.3,0.1c-0.2,0-0.5,0-0.7,0
			c-0.3,0-0.5-0.1-0.5-0.4c-0.2-0.7-0.1-1.4-0.1-2.1c0-0.2,0.1-0.3,0.4-0.3c0.2,0,0.4,0,0.6,0c2,0.1,4-0.1,6,0c0.2,0,0.5,0,0.7,0
			c0.3,0,0.3-0.2,0.3-0.4c0-0.1-0.1-0.2,0-0.4c0.1-0.6,0-1.3,0.1-1.9c0-0.4-0.1-0.5-0.5-0.5c-0.3,0-0.7,0-1,0c-1.4-0.1-2.8,0-3.9,0
			c-2,0-3.7,0-5.4,0c-0.4,0-0.7,0.2-0.9,0.5c-0.2,0.4-0.3,0.8-0.2,1.2c0.1,1.3,0.1,2.6,0.1,3.9c0,1.1,0,2.3,0,3.4
			c0,0.8,0.1,1.6,0.1,2.4c0,1.7-0.2,3.5,0,5.2c0.1,0.7,0.4,1,1,1c0.9,0,1.9,0,2.8,0c1.1-0.1,2.2,0,3.3,0.1c1.4,0,2.8,0.1,4.1-0.1
			c0.4-0.1,0.6-0.3,0.6-0.7C118.4,39.5,118.4,38.9,118.4,38.2z"></path> <path d="M59,29.8C59,29.8,59,29.9,59,29.8c0,1.5,0.1,2.9,0.1,4.5c0,1.9-0.1,3.9,0,5.9c0,0.6,0.2,0.8,0.8,0.9c0.1,0,0.2,0,0.4,0
			c0.9-0.1,1.7-0.1,2.6-0.1c2.5,0,4.9,0,7.4,0c0.5,0,0.7-0.3,0.7-0.8c-0.1-0.7-0.1-1.5,0-2.2c0.1-0.4-0.1-0.7-0.6-0.6
			c-1.1,0.1-2.1,0.1-3.2,0c-1.3,0-2.6,0-3.9,0c-0.4,0-0.5-0.1-0.5-0.4c-0.1-0.3,0-0.6,0-0.9c0.1-1,0-1.9,0.1-2.9
			c0-0.5,0.1-0.6,0.6-0.6c1.9,0.1,3.9-0.1,5.8-0.1c0.8,0,0.9,0,0.9-0.9c0.1-0.6,0-1.2-0.1-1.7c-0.1-0.4-0.2-0.5-0.6-0.5
			c-0.3,0-0.7,0-1,0c-0.6,0-1.2,0.1-1.9,0c-0.1,0-0.3,0-0.5,0c-0.5,0-0.9,0-1.4,0.1c-0.4,0-0.8,0-1.3,0c-0.4,0-0.6-0.1-0.6-0.4
			c-0.1-0.7-0.1-1.4-0.1-2.1c0-0.2,0.1-0.3,0.4-0.3c0.1,0,0.2,0,0.2,0c1,0,1.9,0.1,2.9,0c1.2-0.1,2.4-0.1,3.6-0.1c0.2,0,0.4,0,0.6,0
			c0.3,0,0.3-0.1,0.3-0.4c0-0.3,0-0.5,0-0.8c0.1-0.5,0-1.1-0.1-1.6c0-0.4-0.1-0.4-0.5-0.4c-0.3,0-0.7,0-1,0c-0.7,0-1.4-0.1-2.1,0
			c-0.8,0.1-1.5,0.1-2.3,0.1c-1.6,0-3.2,0-4.9,0c-0.2,0-0.4,0-0.5,0c-0.2,0-0.3,0.1-0.3,0.3c-0.1,0.4-0.2,0.8-0.2,1.2
			C58.8,26.5,59.1,28.2,59,29.8z"></path> <path d="M54.4,25.3c-0.3-0.5-0.8-0.9-1.3-1.1c-0.3-0.1-0.6-0.2-0.8-0.3c-0.8-0.3-1.7-0.5-2.6-0.5c-0.3,0-0.6,0-1,0
			c-1,0-1.9-0.1-2.9-0.2c-0.8,0-1.7,0.1-2.5,0.2c-0.2,0-0.4,0.1-0.4,0.3c-0.1,0.2-0.1,0.3-0.1,0.5c0.1,0.9,0.1,1.8,0.1,2.8
			c0,0.9,0.1,1.8,0,2.7c0,0.2-0.1,0.5,0,0.7c0.1,0.5,0.1,0.9,0,1.4c0,0.7,0,1.5,0,2.2c0.1,0.7,0,1.4,0,2.1c0,0.6,0,1.3,0,1.9
			c0,0.4,0,0.9,0,1.3c0,0.4,0,0.7,0.1,1.1c0.1,0.4,0.3,0.5,0.6,0.5c0.5,0,1,0,1.5,0c0,0,0,0,0,0c0.5,0,1,0,1.5,0
			c0.4,0,0.5-0.1,0.5-0.5c-0.1-0.7-0.1-1.4,0-2.1c0-0.3-0.1-0.7-0.1-1c0.1-0.5,0.1-0.9,0.1-1.4c0-0.3,0-0.3,0.3-0.3
			c0.9,0.1,1.8-0.1,2.7-0.2c1.5-0.2,3-0.6,4.3-1.6c0.4-0.3,0.6-0.6,0.8-1c0.4-1,0.7-2.1,0.6-3.2C55.6,28.1,55.3,26.6,54.4,25.3z
			 M52,30.8c0,0.2-0.2,0.4-0.3,0.5c-0.5,0.5-1,0.8-1.7,0.9c-0.7,0.1-1.4,0.2-2.1,0.2c-0.1,0-0.2,0-0.4,0c-0.4-0.1-0.5-0.2-0.5-0.6
			c0-0.2,0-0.4,0-0.6c0-0.4,0-0.7-0.1-1.1C47,29.4,47,28.7,47,27.9c0-0.3,0-0.5,0-0.8c0-0.4,0.1-0.5,0.5-0.6c1.1-0.1,2.1,0,3.1,0.4
			c0.7,0.3,1.3,0.8,1.5,1.6C52.3,29.3,52.2,30.1,52,30.8z"></path> <path d="M103.2,24.4c0-0.3,0-0.5-0.2-0.8c-0.1-0.2-0.3-0.3-0.5-0.3c-0.2,0-0.5,0-0.7,0c-1.9,0.1-3.8,0.2-5.6,0
			c-1.2-0.1-2.5-0.1-3.8,0c-0.5,0-0.9,0.4-0.8,0.9c0.1,0.7,0,1.3,0,2c0.1,1.9,0.1,3.7,0,5.4c-0.1,1.9,0.1,7.3,0.2,8.9
			c0,0.4,0.1,0.4,0.5,0.5c0.6,0,1.2,0.1,1.9,0.1c0.4,0,0.8,0,1.2-0.1c0.3-0.1,0.4-0.3,0.4-0.6c-0.1-1.1-0.1-2.2-0.2-3.3
			c0-0.5,0.1-1.1,0-1.6c-0.1-0.8,0-1.7,0-2.5c0-0.4,0.2-0.5,0.5-0.5c0.2,0,0.4,0,0.6,0c1.4,0.1,2.7,0,4.1,0c0.5,0,0.9,0,1.4,0
			c0.3,0,0.4-0.1,0.4-0.4c0-0.4,0-0.8,0.1-1.2c0-0.3,0-0.6,0-0.9c0-0.4-0.1-0.5-0.5-0.6c-0.3,0-0.6,0-0.9,0c-0.5,0.1-0.9,0.1-1.4,0
			c-0.5-0.1-0.9,0-1.4,0c-0.8,0.1-1.7,0.1-2.5,0c-0.4,0-0.5-0.2-0.6-0.6c-0.1-0.6-0.1-1.1,0.1-1.7c0.1-0.4,0.1-0.4,0.5-0.4
			c2.1,0,4.2,0,6.3,0c0.5,0,0.7,0.1,0.8-0.7c0-0.1,0-0.2,0-0.2C103.1,25.3,103.1,24.8,103.2,24.4z"></path> <path d="M133.5,24.2c-0.5-0.4-1-0.7-1.6-0.8c-1.1-0.2-2.2-0.1-3.3-0.1c-0.8,0-1.6,0.2-2.3,0.5c-1,0.3-2,0.8-2.7,1.6
			c-0.4,0.4-0.8,0.8-1.1,1.2c-0.2,0.3-0.5,0.5-0.7,0.8c-0.9,1.5-1.4,3.1-1.4,4.8c0,0.3,0,0.6,0,1c0,0.3,0,0.6,0.1,0.9
			c0.3,1,0.6,2.1,1.3,2.9c0.1,0.1,0.1,0.2,0.2,0.3c0.5,0.6,1,1.2,1.5,1.7c0.8,0.8,1.9,1.2,2.9,1.7c0.5,0.2,1,0.3,1.5,0.3
			c0.4,0,0.8,0,1.2,0c0.8,0,1.5,0,2.3,0c0.7,0,1.3-0.3,1.9-0.7c0.2-0.1,0.3-0.2,0.3-0.4c0.1-0.9,0.1-1.7,0-2.6
			c0-0.4-0.2-0.5-0.5-0.4c-0.4,0.1-0.9,0.2-1.3,0.2c-0.4,0-0.8,0-1.3,0.1c-0.5,0.1-1,0.1-1.5-0.1c-0.8-0.3-1.7-0.5-2.5-0.9
			c-0.6-0.3-1.1-0.7-1.4-1.4c0-0.1-0.1-0.3-0.2-0.4c-0.3-0.6-0.6-1.2-0.5-1.9c0-0.4,0-0.7,0-1.1c0-0.4,0-0.8,0.2-1.2
			c0.3-0.9,0.9-1.7,1.5-2.3c0.7-0.8,1.6-1.2,2.6-1.3c1.3-0.2,2.5,0,3.7,0.3c0.3,0.1,0.6,0.1,0.9,0.2c0.2,0,0.3,0,0.4-0.2
			c0.1-0.1,0.1-0.3,0.1-0.4c0-0.5,0-1,0-1.5C133.9,24.9,133.8,24.5,133.5,24.2z"></path> <path d="M149.2,24c-0.1-0.5-0.1-0.5-0.6-0.5c-1.4,0-2.8,0-4.2,0c-1.1,0-2.2-0.1-3.3,0c-0.3,0-0.6,0-0.9,0c-1.1-0.2-2.3-0.1-3.4,0
			c-0.4,0-0.4,0.1-0.5,0.5c-0.1,0.8,0,1.6,0.1,2.4c0,0.3,0.2,0.5,0.5,0.5c0.6,0,1.2,0.1,1.8,0c0.4-0.1,0.9,0,1.3,0
			c0.5,0,0.5,0.1,0.6,0.6c0,0.5,0,1,0.1,1.5c0,1,0.2,1.9,0,2.9c0,0.3,0,0.7,0,1c0.2,0.8,0.1,1.5,0,2.3c0,0.3-0.1,0.5,0,0.8
			c0.2,1,0.2,2,0,3c-0.1,0.6-0.1,1.2,0.1,1.8c0.1,0.3,0.1,0.4,0.4,0.4c1.1,0,2.2,0.1,3.2,0c0.4,0,0.5-0.1,0.5-0.4
			c0-0.3,0.1-0.5,0.1-0.8c0-0.9,0-1.8,0-2.7c0-0.4,0-0.9,0-1.3c-0.1-1.1-0.1-2.2,0-3.3c0-0.3,0-0.6,0-1c-0.1-0.8-0.1-1.5-0.1-2.3
			c0-0.7,0.1-1.4,0.1-2c0-0.2,0.1-0.4,0.3-0.5c0.1,0,0.2,0,0.3,0c1,0,2,0,3,0c0.2,0,0.4,0,0.5-0.1c0.3-0.1,0.4-0.2,0.4-0.5
			C149.4,25.4,149.3,24.7,149.2,24z"></path> <path d="M69.6,48.2c-0.4-0.5-0.8-1-1.4-1.4c-0.6-0.4-1.3-0.7-2-0.8c-1.3-0.3-2.7-0.2-3.9,0.4c-1.2,0.6-2.3,1.4-3.1,2.5
			c-0.2,0.2-0.3,0.4-0.4,0.6c-0.3,0.7-0.4,1.5-0.6,2.3c0,0.3-0.1,0.5,0,0.8c0.2,0.6,0.3,1.2,0.5,1.8c0.4,1.3,1.2,2.4,2.4,3.1
			c0.5,0.3,1,0.5,1.6,0.7c0.3,0.1,0.6,0.1,0.9,0.1c0.4,0.1,0.8,0.1,1.2,0.1c1,0,2-0.1,2.8-0.7c0,0,0.1-0.1,0.2-0.1
			c1-0.3,1.6-1.1,2.2-1.9c0.6-0.9,1-2,1-3.1c0-0.7,0.1-1.3-0.2-1.9C70.5,49.8,70.1,49,69.6,48.2z M67.8,55.2
			c-0.1,0.1-0.3,0.3-0.4,0.4c-0.4,0.4-0.9,0.6-1.4,0.7c-0.7,0.1-1.5,0.2-2.2,0c-1.4-0.2-2.4-1-2.9-2.3c-0.1-0.1-0.1-0.3-0.2-0.4
			c-0.2-0.4-0.3-0.9-0.3-1.3c-0.1-0.7,0.1-1.2,0.4-1.8c0.7-1.5,1.8-2.4,3.3-2.8c0.6-0.1,1.1,0,1.7,0.1c1.3,0.3,2.2,1.2,2.7,2.3
			C69.3,51.9,69.4,53.5,67.8,55.2z"></path> <path d="M86.4,48.4c-0.4-0.5-0.8-1.1-1.4-1.5c-1.1-0.7-2.3-1.1-3.6-1.1c-0.8-0.1-1.5,0.1-2.3,0.4c-0.4,0.2-0.8,0.3-1.2,0.6
			c-0.6,0.5-1.1,1-1.6,1.5c-0.1,0.1-0.3,0.2-0.3,0.4c-0.2,0.5-0.5,1-0.6,1.5c-0.2,0.4-0.4,0.9-0.4,1.3c-0.1,1.3,0.2,2.6,0.8,3.7
			c0.4,0.7,1,1.2,1.6,1.8c0.5,0.5,1,0.7,1.7,0.8c0.3,0.1,0.6,0.1,0.9,0.2c0.6,0.1,1.3,0.2,1.9,0.1c0.5-0.1,1-0.2,1.4-0.3
			c0.8-0.2,1.5-0.5,2.1-1.1c0.2-0.2,0.3-0.3,0.5-0.5c0.3-0.2,0.5-0.5,0.6-0.9c0.3-0.6,0.5-1.3,0.8-1.9c0.4-1.2,0.4-2.4-0.1-3.6
			C87.1,49.5,86.8,48.9,86.4,48.4z M85.5,53.4c-0.1,0.2-0.2,0.4-0.3,0.6c-0.4,1-1.1,1.5-2,2c-0.5,0.3-1,0.3-1.5,0.2
			c-0.6-0.1-1.1-0.1-1.7-0.1c-0.2,0-0.3,0-0.5-0.1c-1.3-0.6-2.2-1.6-2.6-3c0-0.2,0-0.3,0-0.5c0-0.2,0-0.3,0-0.5
			c0.1-1.7,0.8-3,2.3-3.8c0.5-0.3,1-0.4,1.5-0.6c0.6-0.1,1.2,0,1.8,0.1c1.2,0.4,2.1,1.2,2.6,2.3c0.3,0.7,0.6,1.3,0.5,2.1
			C85.7,52.7,85.6,53,85.5,53.4z"></path> <path d="M100.1,48.9c-0.3-0.6-0.7-1.1-1.2-1.4c-1.1-0.8-2.3-1.3-3.7-1.6c-0.9-0.2-1.8-0.2-2.7-0.1c-0.3,0-0.5,0.2-0.5,0.5
			c0,0.1,0,0.2,0,0.3c0,0.6,0.1,1.2,0,1.9c0,0.3-0.1,0.7,0,1c0.1,0.6,0.1,1.1,0.1,1.7c0,0.9,0,1.8-0.1,2.6c0.1,1,0.1,1.9,0.1,2.7
			c0,0.4,0,0.8,0,1.1c0,0.5,0.1,0.6,0.6,0.5c0.4,0,0.7,0,1.1,0c0.3,0,0.5,0,0.8-0.1c0.7-0.1,1.3-0.3,2-0.4c0.4-0.1,0.9-0.2,1.3-0.5
			c1.3-0.9,2.3-1.9,2.8-3.4c0.1-0.3,0.3-0.5,0.3-0.8c0-0.8,0-1.6-0.2-2.4C100.7,50.1,100.4,49.5,100.1,48.9z M98.6,54.1
			c-0.5,0.9-1.4,1.5-2.3,2c-0.5,0.2-1.1,0.2-1.7,0.2c-0.2,0-0.4-0.2-0.4-0.4C94,55.6,94,55.4,94,55.1c0-1.1,0.1-2.1,0-3.1
			c0-1.4-0.1-2.6-0.1-3.8c0,0,0-0.1,0-0.1c0-0.5,0.1-0.6,0.6-0.6c0.4,0,0.9,0.2,1.3,0.3c0.6,0.2,1,0.6,1.5,0.9
			c0.7,0.5,1.1,1.2,1.5,1.9c0.2,0.3,0.3,0.6,0.3,1c0,0.2,0,0.5,0,0.7C99.1,53,98.9,53.6,98.6,54.1z"></path> <path d="M112.3,51.6c-0.7-0.2-1.3-0.4-2-0.6c-0.8-0.2-1.5-0.5-2.1-1.1c-0.5-0.4-0.6-1.4-0.2-1.9c0.1-0.1,0.2-0.2,0.3-0.3
			c0.4-0.2,0.9-0.4,1.4-0.4c0.8,0,1.7,0.6,2,1.4c0.2,0.5,0.2,0.5,0.7,0.5c0.1,0,0.3,0,0.4,0c0.2,0,0.3,0,0.5,0
			c0.3,0,0.3-0.1,0.3-0.4c-0.1-0.3-0.1-0.6-0.2-0.8c-0.1-0.6-0.4-1-0.9-1.3c-0.2-0.1-0.3-0.3-0.5-0.4c-0.3-0.2-0.6-0.4-1-0.4
			c-0.5,0-1-0.1-1.3-0.1c-1.2,0-1.9,0.3-2.8,0.7c-0.2,0.1-0.3,0.3-0.4,0.4c-0.5,0.7-0.7,1.5-0.7,2.3c0,0.4,0.1,0.8,0.3,1.2
			c0.2,0.4,0.5,0.7,0.7,1.1c0.1,0.1,0.3,0.2,0.4,0.3c0.6,0.3,1.3,0.5,2,0.7c0.6,0.2,1.1,0.3,1.7,0.5c0.7,0.3,1.4,1,0.8,2.1
			c-0.2,0.3-0.3,0.6-0.6,0.8c-0.3,0.3-0.8,0.5-1.2,0.4c-0.5,0-1-0.1-1.4-0.3c-0.4-0.1-0.7-0.4-0.9-0.8c-0.1-0.2-0.2-0.4-0.2-0.6
			c0-0.3-0.2-0.4-0.4-0.4c-0.3,0-0.7,0-1,0c-0.4,0-0.6,0.3-0.4,0.6c0.3,0.9,0.6,1.8,1.5,2.3c0.7,0.5,1.4,0.9,2.3,1
			c0.6,0.1,1.1,0,1.6-0.1c1.4-0.2,2.4-1,2.9-2.4c0.4-1.2,0.3-2.4-0.5-3.4C113,52,112.7,51.7,112.3,51.6z"></path> <path d="M54.6,45.9c-0.6,0-1.2-0.1-1.8-0.1c-1.4,0-2.8,0-4.2,0c-0.2,0-0.4,0-0.5,0.1c-0.4,0.1-0.4,0.1-0.5,0.4
			c-0.1,0.4-0.1,0.7-0.1,1.1c0,0.6,0,1.2,0,1.9c0,1-0.1,2.1-0.1,3c0.1,1.9,0,3.7,0,5.6c0,0.3,0.1,0.4,0.4,0.5c0.4,0,0.7,0,1.1,0
			c0.3,0,0.4-0.1,0.5-0.4c0-0.3,0-0.6,0-1c0-1.4,0-2.9,0-4.3c0-0.5,0.1-0.5,0.5-0.5c1.4,0,2.7-0.1,4.1-0.1c0.3,0,0.4-0.1,0.5-0.4
			c0.1-0.3,0-0.7,0-1c0-0.2-0.2-0.3-0.4-0.3c-0.7,0-1.4-0.1-2.1,0c-0.7,0.1-1.5,0-2.2,0c-0.4,0-0.4-0.1-0.5-0.5c0-0.6,0-1.2,0-1.8
			c0-0.5,0.1-0.5,0.5-0.5c1,0,2,0.1,3,0.1c0.5,0,1,0,1.5,0c0.2,0,0.4-0.1,0.5-0.3c0-0.3,0.1-0.7-0.1-1C54.9,46,54.8,45.9,54.6,45.9z
			"></path> </g> </g> </svg>