<svg xmlns="http://www.w3.org/2000/svg" viewBox="0 0 160 64" fill="#93A3B7" role="img"><title>Onfleet Customer Kroger</title> <path d="M56.2,27.2v-2.7h-4.9v16.6h5.1v-9.2c0.9-1.9,2.3-2.9,4.4-2.9c0.6,0,1.2,0.1,1.8,0.2v-4.8c-0.4-0.2-1-0.2-1.6-0.2
		C59.2,24.2,57.6,25.2,56.2,27.2z"></path> <path d="M78.6,39c1.6-1.7,2.4-3.7,2.4-6.1c0-2.4-0.8-4.5-2.4-6.1C77,25,75,24.2,72.6,24.2s-4.4,0.8-6.1,2.5
		c-1.6,1.7-2.4,3.7-2.4,6.1c0,2.4,0.8,4.4,2.4,6.1c1.6,1.7,3.6,2.5,6.1,2.5C75,41.4,77,40.6,78.6,39z M69.9,35.7
		c-0.7-0.8-1-1.7-1-2.9c0-1.1,0.3-2.1,1-2.9s1.6-1.2,2.7-1.2c1.1,0,2,0.4,2.7,1.2c0.7,0.8,1,1.7,1,2.9c0,1.1-0.3,2.1-1,2.9
		c-0.7,0.8-1.6,1.2-2.7,1.2C71.5,36.9,70.6,36.5,69.9,35.7z"></path> <path d="M110.5,24.2c-2.3,0-4.3,0.8-5.9,2.5c-1.6,1.6-2.4,3.7-2.4,6.2c0,2.5,0.8,4.6,2.3,6.2c1.6,1.6,3.6,2.4,6.1,2.4
		c1.7,0,3.1-0.3,4.3-0.9c1.2-0.7,2.4-1.6,3.3-2.6l-3.7-2c-0.9,0.9-2.2,1.3-3.7,1.3c-2.2,0-3.5-1-3.8-2.9h11.5c0-0.1,0-0.3,0-0.4
		c0-0.2,0-0.3,0-0.5c0-0.1,0-0.3,0-0.4c0-2.4-0.8-4.5-2.3-6.2C114.8,25.1,112.9,24.2,110.5,24.2z M107.1,31.2
		c0.2-0.9,0.7-1.6,1.3-2.1c0.6-0.5,1.3-0.8,2.1-0.8c0.7,0,1.4,0.3,2,0.9c0.6,0.6,1,1.3,1.1,2L107.1,31.2z"></path> <path d="M130.4,24.2c-1.7,0-3.3,1-4.7,3v-2.7h-4.9v16.6h5v-9.2c0.9-1.9,2.3-2.9,4.4-2.9c0.6,0,1.2,0.1,1.8,0.2v-4.8
		C131.5,24.3,131,24.2,130.4,24.2z"></path> <path d="M46.4,21.4c0.1-0.6,0.1-1.1,0.1-1.7h0c0-6.5,5.3-11.8,11.8-11.8s11.8,5.3,11.8,11.8h4.8c0-9.1-7.4-16.6-16.6-16.6
		c-9,0-16.4,7.3-16.6,16.3h0c0,0.5,0,0.9-0.1,1.4c-0.2,1.7-0.8,4.1-2.6,6.1c-1.4,1.6-3.3,2.6-5.6,3.2V19h-5.3v22.1h5.3V35
		c1.6-0.3,3.1-0.7,4.5-1.4l4.8,7.6h6.4l-7-10.5c0.2-0.2,0.4-0.4,0.5-0.6C45.2,27.1,46.1,23.7,46.4,21.4z"></path> <path d="M100,24.5h-4.8v1.4c-1.1-1.2-2.6-1.7-4.3-1.7c-2.1,0-4,0.8-5.5,2.4c-1.6,1.6-2.3,3.6-2.3,6c0,2.4,0.8,4.3,2.4,5.9
		c1.6,1.6,3.4,2.4,5.5,2.4c1.7,0,3.1-0.5,4.4-1.4c0,0,0,5,0,6.5c-0.1,5.6-4.6,10.1-10.2,10.1C79.5,56,75,51.6,75,46h-4.8
		c0,8.2,6.7,14.9,14.9,14.9c8.1,0,14.7-6.5,14.9-14.5h0v-0.2c0-0.1,0-0.1,0-0.2l0,0V24.5z M94.2,35.4c-0.7,0.8-1.6,1.1-2.7,1.1
		c-1.1,0-2-0.4-2.7-1.1c-0.7-0.8-1-1.7-1-2.8c0-1.1,0.3-2.1,1-2.8c0.7-0.8,1.6-1.1,2.7-1.1c1.1,0,2,0.4,2.7,1.1
		c0.7,0.8,1,1.7,1,2.8C95.2,33.7,94.9,34.6,94.2,35.4L94.2,35.4z"></path> <path d="M102.3,53.8L102.3,53.8c0.2-0.1,0.4-0.2,0.4-0.4c0-0.1-0.1-0.3-0.2-0.4c-0.1-0.1-0.3-0.1-0.6-0.1c-0.2,0-0.5,0-0.7,0.1
		v1.8h0.4l0-0.7h0.2c0.2,0,0.3,0.1,0.4,0.3c0.1,0.2,0.1,0.4,0.1,0.4h0.4c0-0.1-0.1-0.2-0.1-0.4C102.6,54,102.5,53.9,102.3,53.8z
			M101.8,53.7h-0.2l0-0.5c0.1,0,0.2,0,0.2,0c0.3,0,0.4,0.1,0.4,0.3C102.3,53.6,102.1,53.7,101.8,53.7z"></path> <path d="M101.9,52c-1,0-1.8,0.8-1.8,1.8c0,1,0.8,1.8,1.8,1.8c1,0,1.8-0.8,1.9-1.8C103.7,52.8,102.9,52,101.9,52z M101.9,55.2
		c-0.8,0-1.4-0.6-1.4-1.4h0c0-0.8,0.6-1.4,1.4-1.4c0.8,0,1.4,0.7,1.4,1.4C103.3,54.6,102.7,55.2,101.9,55.2z"></path> </svg>