<svg xmlns="http://www.w3.org/2000/svg" fill="#5C6D82" viewBox="0 0 160 64" role="img"><title>Onfleet Customer Leon and George</title><path d="M17,24.22a.3.3,0,0,1,.46.11c.19.79-.26,1.53-.37,2.29a1,1,0,0,0-.22.42c-.11.5-.37,1-.47,1.47a6.24,6.24,0,0,1-.39,1.34c-.1.54,0,1.09-.05,1.62a4.15,4.15,0,0,1-.78,1.39c-.22.3-.54.51-.75.82s-.4.64-.61.94c-.13.14-.07.34-.09.51,0,.64-.07,1.27,0,1.91a1.94,1.94,0,0,0,.15.63,4.34,4.34,0,0,1,.77.52.35.35,0,0,1-.12.52,1.55,1.55,0,0,1-1,0,1,1,0,0,1-.73-.44,6,6,0,0,1-.47-1.54,11.14,11.14,0,0,0-.3-1.63,9,9,0,0,1-.22,1.63A3.12,3.12,0,0,1,11,38c.12.12.28.25.24.44s-.44.38-.7.44a7.65,7.65,0,0,1-2.19,0,8.34,8.34,0,0,1-1.73,0,6.49,6.49,0,0,1-1.22.21,13.62,13.62,0,0,1-2,0,6.09,6.09,0,0,1-2.59-.65A2.12,2.12,0,0,1-.35,36.88a2.72,2.72,0,0,1,1.86-3,1,1,0,0,1,1.14.33c-.32.28-.78.09-1.14.27a1.83,1.83,0,0,0-.93,1.28A2.08,2.08,0,0,0,.59,37a1.59,1.59,0,0,0,1,.87,10.78,10.78,0,0,0,2.6.27,1.79,1.79,0,0,0,1.19-.32.57.57,0,0,0,.23-.28,9.48,9.48,0,0,0,.15-3.14A5.54,5.54,0,0,1,7.5,31.07a5.1,5.1,0,0,1,1.91-1.26,11.27,11.27,0,0,1,1.6-.47,5.82,5.82,0,0,0,1.05-.4,3.27,3.27,0,0,0,.67-.56,7.57,7.57,0,0,0,.6-.53,1.2,1.2,0,0,0,.14-.81c0-.23-.15-.42-.19-.63A10.9,10.9,0,0,0,13,25.15c-.08-.29-.14-.69.14-.91.6.27.88.92,1.45,1.22a5.66,5.66,0,0,1,1.09,0C16.18,25.11,16.52,24.56,17,24.22Zm129.81,3.86a2.16,2.16,0,0,1,2,.43,19.57,19.57,0,0,1,1.36,1.63c.32.34.73.56,1.08.88.55.49,1.1,1,1.68,1.46a9.2,9.2,0,0,0,1.37,1,28.23,28.23,0,0,0,2.82,1.37c.22.12.52.2.64.45-.51.07-1,0-1.54,0,1,.7,2.11,1.29,3.14,2a1.45,1.45,0,0,1,.22.21,4,4,0,0,1-.77-.11c-1.71-.39-3.41-.81-5.16-1-.48-.06-.95-.17-1.44-.2-.32,0-.27.4-.48.54-.43.32-1,.41-1.36.84,0,0,0,.21.06.2.33.05.71-.08,1,.13a.66.66,0,0,1,.24.42.91.91,0,0,0-.68-.13,2.45,2.45,0,0,1-1-.05c-.55.28-1.21.14-1.77.41,0-.13,0-.29.17-.36a3.9,3.9,0,0,1,.47-.2,5.41,5.41,0,0,0-1.39.18c.06-.17.14-.35.33-.4.59-.16,1.21-.12,1.81-.27.37-.08.55-.45.69-.76a1.29,1.29,0,0,0-.65-1.42,6.47,6.47,0,0,1-2.14-2.12,5.34,5.34,0,0,1-.73-1.76,5.16,5.16,0,0,0-.21-.77.42.42,0,0,0-.2.49,1.6,1.6,0,0,1-.49-.58,1.64,1.64,0,0,1,.12-1.11A1.13,1.13,0,0,1,146.85,28.08ZM37.49,24.73h1.72c-.64.75-1.29,1.49-1.94,2.24H35.65C36.26,26.21,36.88,25.48,37.49,24.73ZM46,27.52a6,6,0,0,1,4.26.82,5.2,5.2,0,0,1,2.24,3.32A5.78,5.78,0,0,1,51.76,36a5.29,5.29,0,0,1-3,2.15,6.09,6.09,0,0,1-4.92-.74,5.2,5.2,0,0,1-2.12-3,5.78,5.78,0,0,1,.89-4.82A5.28,5.28,0,0,1,46,27.52Zm31.43,1.31a6.15,6.15,0,0,1,5.18-1.28,5.2,5.2,0,0,1,3.15,2.07c-.52.3-1,.58-1.55.89a3.66,3.66,0,0,0-1.84-1.27,3.75,3.75,0,0,0-3.62.87,4,4,0,0,0,.3,5.86,3.94,3.94,0,0,0,4.9-.18V34.16H80.72c0-.55,0-1.1,0-1.64,1.72,0,3.43,0,5.15,0v4a5.92,5.92,0,0,1-3.79,1.88,3.9,3.9,0,0,1-1.32,0,5.49,5.49,0,0,1-3.3-9.56Zm23.81-1.31a6.22,6.22,0,0,1,3.93.59,5.15,5.15,0,0,1,2.49,3.06,5.75,5.75,0,0,1-.75,5,5.31,5.31,0,0,1-3.23,2.06,6,6,0,0,1-4.64-.83,5.2,5.2,0,0,1-2.14-3.28,5.79,5.79,0,0,1,.84-4.4A5.34,5.34,0,0,1,101.27,27.52Zm22.22.14a6,6,0,0,1,4.36.39,5.56,5.56,0,0,1,1.77,1.57c-.52.3-1,.58-1.55.89a3.7,3.7,0,0,0-1.82-1.26,3.74,3.74,0,0,0-3.69.91,4,4,0,0,0,.25,5.73,3.94,3.94,0,0,0,5-.1c0-.54,0-1.09,0-1.63h-3.25c0-.55,0-1.1,0-1.64,1.71,0,3.43,0,5.15,0,0,1.32,0,2.65,0,4a6,6,0,0,1-3.8,1.88,6.09,6.09,0,0,1-2.4-.19,5.31,5.31,0,0,1-3.56-3.09,5.92,5.92,0,0,1,.09-4.58A5.34,5.34,0,0,1,123.49,27.66Zm-99.24-.09h1.9c0,3,0,6,0,9H31c0,.54,0,1.09,0,1.63H24.25Zm8.29,0H40c0,.55,0,1.1,0,1.64H34.46V32h5.43c0,.55,0,1.1,0,1.65H34.46v2.94H40c0,.55,0,1.1,0,1.64H32.54C32.54,34.67,32.55,31.12,32.54,27.57Zm21.9,0h2q2.79,3.68,5.55,7.37c0-2.46,0-4.91,0-7.36.64,0,1.28,0,1.92,0,0,1.73,0,3.47,0,5.2s0,3.63,0,5.44H62c-1.9-2.53-3.77-5.08-5.67-7.6v7.59H54.44C54.44,34.67,54.45,31.12,54.44,27.57Zm33.47,0h7.45c0,.55,0,1.09,0,1.64-1.85,0-3.69,0-5.54,0,0,.93,0,1.85,0,2.77h5.43c0,.55,0,1.1,0,1.65H89.82v2.95h5.54c0,.54,0,1.09,0,1.63H87.91C87.91,34.66,87.92,31.11,87.91,27.56Zm21.87,0h4.82a3.71,3.71,0,0,1,2.66,1,3.45,3.45,0,0,1,.55,3.86A3.09,3.09,0,0,1,115.56,34c.91,1.39,1.78,2.79,2.68,4.18-.74,0-1.48,0-2.21,0-.7-1.08-1.33-2.2-2-3.29a3.19,3.19,0,0,0-.46-.69c-.62,0-1.24,0-1.86,0,0,1.33,0,2.65,0,4h-1.92Zm21.94,0c2.49,0,5,0,7.48,0v0c0,.53,0,1.06,0,1.59-1.85,0-3.7,0-5.55,0V32h5.43v1.65h-5.43v2.94h5.55c0,.55,0,1.1,0,1.64h-7.47Zm-64,.73a2.92,2.92,0,0,1,2.66-.66A2.37,2.37,0,0,1,72,28.88a2.11,2.11,0,0,1-.12,2.05,4.3,4.3,0,0,1-1.69,1.41c.62.81,1.27,1.6,1.93,2.38a6.7,6.7,0,0,0,.49-1.45c.46.09.93.18,1.39.3a9.48,9.48,0,0,1-1,2.28,10,10,0,0,0,1.65,1.54c-.3.3-.55.64-.86.93A6.52,6.52,0,0,1,72.15,37a4.18,4.18,0,0,1-2.35,1.32,3.91,3.91,0,0,1-2.56-.38,3.12,3.12,0,0,1-1.56-2.24,2.7,2.7,0,0,1,.62-2.11,5.6,5.6,0,0,1,1.89-1.37,5.18,5.18,0,0,1-1.1-1.75A2.11,2.11,0,0,1,67.73,28.3Zm.66,1.28c-.13.81.61,1.35,1.06,1.92a3.53,3.53,0,0,0,1.1-.81,1.29,1.29,0,0,0-.21-1.81A1.27,1.27,0,0,0,68.39,29.58Zm-21.93-.44a3.4,3.4,0,0,0-1.75.8,3.73,3.73,0,0,0-1.2,2.45,4.19,4.19,0,0,0,.81,3,3.7,3.7,0,0,0,4.3,1,3.44,3.44,0,0,0,1.87-2.15A4.17,4.17,0,0,0,49.56,30,3.68,3.68,0,0,0,46.46,29.14Zm55.07,0a3.38,3.38,0,0,0-2.48,2.13A4.49,4.49,0,0,0,99.31,35a3.35,3.35,0,0,0,2.27,1.61,3.91,3.91,0,0,0,2.54-.33,3.47,3.47,0,0,0,1.66-2,4.16,4.16,0,0,0-1-4.29A3.68,3.68,0,0,0,101.53,29.18Zm10.17,0c0,1.13,0,2.26,0,3.38h2.62a2,2,0,0,0,1.29-.41,1.68,1.68,0,0,0,0-2.5,2.12,2.12,0,0,0-1.44-.47C113.38,29.2,112.54,29.21,111.7,29.2ZM67.19,34.68a2,2,0,0,0,.55,2,1.89,1.89,0,0,0,1.79.47A3.11,3.11,0,0,0,71.31,36L68.91,33A3.48,3.48,0,0,0,67.19,34.68Z"></path></svg>