<svg xmlns="http://www.w3.org/2000/svg" fill="#5C6D82" viewBox="0 0 160 64" role="img"><title>Onfleet Customer Lugg</title><path d="M74.18,19.77v-.05c.06,8.36,0,16.72.1,25.08a40.26,40.26,0,0,1-8.43-.18c0-.53.18-1.56.24-2.09-1.44.59-2.36,1.86-3.79,2.28-3.66,1.32-8.64.48-10.62-3.13-.57-.66-.68-1.74-1.5-2.22-.44,1.75-.13,3.6-.13,5.35a18,18,0,0,1-8.59.13c-2.8-.9-4.1-3.92-4-6.62,0-9.87-.13-19.8.06-29.73,2.84.06,5.64,0,8.5.06.19,10-.06,19.91.13,29.89a5.51,5.51,0,0,0,4,.48c-1.12-6.25-.62-12.68-.81-19,2.84-.47,5.76-.11,8.68-.24.06,4.58,0,9.14.06,13.72.08,1.74.32,3.85,2,4.93a4.62,4.62,0,0,0,5.33-1.27c.26-5.25.07-10.46.13-15.7.06-.42.24-1.2.31-1.62C68.65,19.65,71.39,19.83,74.18,19.77Zm39.91-.29h0c3.85.67,7.76.06,11.63.41-.08,1.75-.14,3.49-.14,5.24H122c.8,3.07.3,6.8-2.48,8.78-2.41,2.18-5.83,2.31-8.94,2.79v2c3.92,1.26,8.45-.13,12,2.28,2.68,1.25,3.3,4.38,2.92,7a9.29,9.29,0,0,1-4.29,5.53A24.79,24.79,0,0,1,106,55.61,10,10,0,0,1,98.9,51.7c-4,3.64-9.88,4.54-15.22,4.18-2.69-.27-5.59-.61-7.7-2.36-1.92-1.57-2.6-4.75-.93-6.74,1.19-1.5,3.17-2.1,4.91-2.7a4.61,4.61,0,0,1-1.61-4.63c.12-1.88,2.54-2.17,2.79-3.92a8,8,0,0,1-4-12.68c2.8-3.5,7.81-4,12.1-3.45,3.92.67,7.9.25,11.86.37.06,1.16.13,2.3.19,3.44C104.16,19.42,109.56,18.78,114.09,19.48Zm.63,9.27v0c1-3-2.73-5.59-5.41-4-1.93.67-2.17,3.07-1.55,4.69C109,32.23,114.09,31.87,114.72,28.75Zm1.92,17.18a27.82,27.82,0,0,0-8.39-.66c-1.61.9-2.22,3.67-.31,4.58a9.25,9.25,0,0,0,8.14-.48C117.36,48.76,118.38,46.63,116.64,45.93Zm-13.15-7.59h0c.49-1.14,2.11-1.38,2.37-2.59-1.94-.84-4-1.93-5-3.91-1.27-2.05-.77-4.53-.72-6.8-.62,0-1.86,0-2.48-.06-.1,2.28.55,4.81-.82,6.86-1.91,3.49-6.31,4.57-10.11,4.63a1.39,1.39,0,0,0,.38,2.65c3.47.31,7.14-.06,10.36,1.51a5.83,5.83,0,0,1,3.42,4.81c1.23-.44,2.48-.91,3.72-1.39A3.91,3.91,0,0,1,103.49,38.34ZM92.16,48.94v0c1.11-.66,1.06-2.94-.44-3.14-2.5-.51-5-.4-7.51-.7-.88.8-2.3,1.57-2,2.89.07,1.93,2.43,2.41,4,2.59A9.88,9.88,0,0,0,92.16,48.94ZM85.24,24.41h0C82.37,25.4,82,29.88,85,31c2.35,1.25,5.82-.73,5.27-3.44C90.33,25.1,87.48,23.71,85.24,24.41Z" fill-rule="evenodd"></path></svg>