<svg version="1.1" id="Layer_1" fill="#5C6D82" xmlns="http://www.w3.org/2000/svg" xmlns:xlink="http://www.w3.org/1999/xlink" x="0px" y="0px" viewBox="0 0 160 64" style="enable-background:new 0 0 160 64;" xml:space="preserve"> <g> <path d="M107.7,34.2c0-0.1,0-0.2,0-0.3c0-4.5,0-8.9,0-13.4c0-0.2,0-0.3,0-0.5c0.1-0.6,0.4-0.9,1-1.1c0.6-0.2,1.2,0.1,1.4,0.8
		c0.1,0.2,0.1,0.5,0.1,0.7c0,3.4,0,6.8,0,10.2c0,2.6,0,5.2,0,7.8c0,0.2,0,0.4,0,0.6c0,0.2-0.1,0.4-0.3,0.6c-0.4,0.3-0.9,0.4-1.4,0.3
		c-0.3-0.1-0.4-0.2-0.6-0.5c-0.4-0.6-0.8-1.2-1.2-1.9c-2-3-4-6.1-6-9.1c-0.1-0.1-0.1-0.2-0.2-0.3c0,0,0,0-0.1,0c0,0.1,0,0.2,0,0.3
		c0,3.3,0,6.6,0,9.9c0,0.2,0,0.4-0.1,0.6c-0.2,0.6-0.8,1-1.4,0.8c-0.4-0.1-0.7-0.4-0.8-0.8c0-0.2-0.1-0.4-0.1-0.5
		c0-4.7,0-9.4,0-14.1c0-0.2,0-0.5,0-0.7c0.1-0.4,0.3-0.7,0.8-0.8c0.5-0.1,0.9-0.1,1.2,0.3c0.1,0.2,0.2,0.3,0.3,0.5
		c2.3,3.4,4.7,6.8,7,10.3C107.5,34.1,107.6,34.2,107.7,34.2C107.6,34.3,107.7,34.3,107.7,34.2"></path> <path d="M70.5,35.2h7.1v-0.4c0-4.8,0-9.5,0-14.3c0-0.2,0-0.4,0.1-0.6c0.1-0.6,0.7-1,1.2-0.9c0.6,0,1.1,0.5,1.1,1.1
		c0,0.1,0,0.2,0,0.3c0,6,0,12,0,18c0,0.1,0,0.2,0,0.2c0,0.7-0.5,1.3-1.2,1.3c-0.7,0-1.2-0.5-1.2-1.3c0-0.2,0-0.5,0-0.7
		c0-0.1,0-0.2,0-0.3h-7.1c0,0.1,0,0.2,0,0.3c0,0.3,0,0.5,0,0.8c-0.1,0.6-0.6,1-1.2,1c-0.6,0-1.1-0.5-1.2-1.1c0-0.2,0-0.4,0-0.5
		c0-0.2,0-0.3,0-0.5c-0.1,0-0.2,0-0.2,0c-0.3,0-0.7,0-1,0c-0.6,0-1.1-0.4-1.2-0.9c-0.1-0.6,0.1-1.2,0.6-1.4c0.2-0.1,0.4-0.1,0.6-0.2
		c0.3,0,0.6,0,0.9,0c0.1,0,0.2,0,0.3,0c0-0.1,0-0.3,0-0.4c0-3.5,0-6.9,0-10.4c0-0.1,0-0.3,0-0.4c0.1-0.6,0.6-1.1,1.2-1.1
		c0.6,0,1.1,0.4,1.2,1.1c0,0.1,0,0.3,0,0.4c0,3.5,0,6.9,0,10.4V35.2z"></path> <path d="M16.7,23.6c0.3-0.1,0.6-0.1,1-0.2c1.4-0.3,2.7-0.6,4.1-0.8c1.4-0.1,2.8-0.2,4.2,0.3c1.2,0.4,2.2,1,2.9,2.1
		c0.7,1,0.8,2.1,0.4,3.3c-0.1,0.4-0.3,0.7-0.6,1c-1,1.2-2.3,2.1-3.7,2.8c-1.6,0.8-3.3,1.3-5.1,1.7c-1,0.2-1.9,0.3-2.9,0.3
		c-0.1,0-0.1,0-0.2,0v0.3c0,1.3,0,2.6,0,3.9c0,0.2,0,0.3,0,0.5c-0.1,0.6-0.7,1-1.3,0.9c-0.6-0.1-1.1-0.5-1.1-1.1c0-0.1,0-0.2,0-0.3
		c0-4.8,0-9.5,0-14.3c0-0.2,0-0.4,0.1-0.6c0.3-0.7,1-1,1.7-0.7c0.3,0.1,0.5,0.4,0.6,0.7C16.6,23.4,16.7,23.5,16.7,23.6z M16.6,31.6
		C16.7,31.7,16.7,31.7,16.6,31.6c0.1,0,0.2,0,0.2,0c2-0.2,3.9-0.6,5.7-1.3c1.1-0.4,2.2-1,3.2-1.8c0.3-0.3,0.6-0.6,0.9-1
		c0.3-0.6,0.3-1-0.2-1.5c-0.3-0.3-0.6-0.5-1-0.6c-0.7-0.2-1.3-0.3-2-0.4c-1-0.1-2.1,0-3.1,0.2c-1.2,0.2-2.3,0.4-3.4,0.8
		c-0.1,0-0.2,0.1-0.3,0.1V31.6z"></path> <path d="M96.1,37.8c0.1,0.2,0.1,0.4,0.2,0.5c0.2,0.5,0.1,1-0.3,1.3c-0.4,0.3-0.9,0.4-1.4,0.1c-0.3-0.2-0.5-0.4-0.6-0.7
		c-0.1-0.3-0.3-0.6-0.4-0.9C93.5,38,93.4,38,93.2,38c-1,0-2,0-2.9,0c-1.9,0-3.8,0-5.7,0c-0.2,0-0.3,0.1-0.4,0.3
		c-0.1,0.3-0.2,0.5-0.4,0.8c-0.1,0.1-0.1,0.3-0.2,0.4c-0.4,0.5-0.9,0.6-1.4,0.4c-0.5-0.2-0.8-0.7-0.7-1.3c0-0.2,0.1-0.4,0.2-0.6
		c1.4-3.2,2.8-6.4,4.2-9.7c0.6-1.5,1.3-3,1.9-4.5c0.2-0.5,0.6-0.8,1.1-0.8c0.6,0,0.9,0.3,1.2,0.8c1.2,2.7,2.4,5.4,3.6,8.2
		c0.5,1.1,1,2.3,1.5,3.4c0.1,0.3,0.1,0.3,0.4,0.3c0.2,0,0.3,0,0.5,0c0.1,0,0.2,0,0.4,0c0.8,0.1,1.2,0.8,1,1.5
		c-0.1,0.4-0.4,0.6-0.8,0.7C96.4,37.8,96.3,37.8,96.1,37.8 M88.9,27.5C88.8,27.5,88.8,27.5,88.9,27.5c-1.2,2.7-2.4,5.3-3.6,8
		c0.4,0.1,6.9,0,7.1,0C91.2,32.8,90,30.2,88.9,27.5"></path> <path d="M64.4,22c-0.3,0-0.5,0.1-0.7,0.1c-3.4,0.6-6.4,1.9-9,4.2c-1,0.9-1.9,2-2.6,3.1c-0.3,0.6-0.6,1.2-0.7,1.8
		c-0.1,1-0.1,1.9,0.2,2.8c0.6,1.8,1.9,2.9,3.7,3.3c1.2,0.3,2.4,0.1,3.5-0.3c1.2-0.4,2.3-1,3.3-1.7c0.3-0.2,0.7-0.5,1-0.7
		c0.4-0.3,0.8-0.3,1.2-0.1c0.4,0.2,0.6,0.5,0.6,1c0,0.2-0.1,0.4-0.2,0.6c-0.1,0.2-0.3,0.5-0.5,0.7c-1.4,1.2-3,2.2-4.8,2.7
		c-1.2,0.4-2.5,0.5-3.7,0.4c-3.2-0.4-5.4-2.4-6.3-5.2c-0.3-1-0.4-2-0.3-3c0.1-0.9,0.4-1.8,0.7-2.6c0.7-1.6,1.8-3,3.1-4.2
		c1.4-1.3,3.1-2.3,4.8-3.3c1.9-1,4-1.7,6.2-2c0.7-0.1,1.5-0.1,2.2,0c0.2,0,0.3,0.1,0.5,0.1c0.2,0.1,0.3,0.3,0.4,0.5
		c0.1,0.8,0.1,1.5,0,2.3c0,0.2-0.1,0.4-0.2,0.6c-0.1,0.1-0.2,0.3-0.3,0.3c-0.3,0.1-0.6,0.2-0.9,0.1c-0.5-0.1-0.9-0.5-0.9-1.1
		C64.3,22.3,64.4,22.2,64.4,22"></path> <path d="M121.4,38.9c-0.1,0.1-0.2,0.1-0.3,0.2c-1.8,1.1-3.7,1.4-5.6,0.7c-2.3-0.8-3.7-2.4-4.1-4.7c-0.2-1.3,0-2.5,0.5-3.7
		c0.6-1.6,1.6-2.9,2.8-4c1.6-1.4,3.4-2.4,5.4-3.1c1.6-0.6,3.3-1,5-1.2c0.3,0,0.5,0,0.8,0.1c0.3,0.1,0.6,0.3,0.7,0.6
		c0.1,0.1,0.1,0.3,0.2,0.5c0.1,0.6,0.1,1.2,0,1.8c-0.1,0.7-0.8,1-1.5,0.8c-0.4-0.2-0.6-0.4-0.7-0.8c0-0.1-0.1-0.2-0.1-0.3
		c-0.2,0-0.3,0-0.4,0.1c-1.8,0.4-3.6,0.9-5.2,1.8c-1.4,0.8-2.7,1.8-3.7,3.1c-0.6,0.8-1,1.6-1.1,2.5c-0.5,2.5,1.5,4.3,3.4,4.5
		c1.4,0.1,2.6-0.4,3.5-1.5c0.3-0.3,0.5-0.7,0.7-1.1c0.1-0.2,0.1-0.4,0.2-0.5c0.2-0.4,0.6-0.6,1.1-0.5c0.5,0.1,0.8,0.4,0.9,0.8
		c0,0.2,0.1,0.3,0.1,0.5c0,2.7,0,5.4,0,8.2c0,0.3,0,0.5-0.1,0.8c-0.1,0.5-0.6,0.8-1.1,0.8c-0.5,0-1-0.3-1.1-0.8
		c-0.1-0.3-0.1-0.6-0.1-0.8c0-1.4,0-2.8,0-4.1C121.4,39.2,121.4,39.1,121.4,38.9"></path> <path d="M134.2,28.2c0.2,0,0.3,0,0.4,0c1.3-0.1,2.7,0,4,0.4c1.3,0.4,2.4,1,3.3,2c0.8,0.9,1.2,1.9,1.2,3.1c0,1.4-0.5,2.6-1.4,3.6
		c-1.1,1.2-2.4,2-4,2.5c-1.7,0.5-3.4,0.5-5.2,0.2c-0.7-0.1-1.4-0.4-2.2-0.6c-0.8-0.2-1.6-0.6-2.3-1.1c-0.4-0.2-0.7-0.5-1.1-0.7
		c-0.1-0.1-0.2-0.1-0.2-0.2c-0.4-0.3-0.5-0.8-0.3-1.3c0.2-0.5,0.6-0.7,1.1-0.7c0.3,0,0.5,0.1,0.8,0.2c0.2,0.1,0.4,0.2,0.6,0.4
		c1.2,0.9,2.6,1.4,4.1,1.6c1.5,0.2,3,0.1,4.4-0.4c0.9-0.3,1.7-0.8,2.3-1.6c0.5-0.6,0.8-1.4,0.7-2.2c0-0.6-0.3-1-0.7-1.4
		c-0.7-0.7-1.5-1.1-2.5-1.3c-1.3-0.2-2.6-0.2-3.9,0c-0.8,0.1-1.5,0.3-2.3,0.5c-0.5,0.1-0.9,0-1.2-0.4c-0.3-0.4-0.4-1-0.1-1.4
		c0.1-0.1,0.2-0.2,0.3-0.4c1.4-1.6,2.8-3.2,4.3-4.8c0.2-0.2,0.5-0.5,0.8-0.7c0.2-0.1,0.4-0.2,0.7-0.2c0.5-0.1,0.8,0.2,1,0.6
		c0.2,0.5,0.2,1-0.1,1.4c-0.2,0.3-0.4,0.5-0.7,0.8c-0.5,0.6-1.1,1.2-1.6,1.9C134.3,28.1,134.3,28.1,134.2,28.2"></path> <path d="M34,25v3.1c0.1,0,0.2,0,0.3,0c1.7,0,3.3,0,5,0c0.1,0,0.3,0,0.4,0c0.6,0.1,1,0.7,0.9,1.3c0,0.6-0.5,1.1-1.1,1.1
		c-0.1,0-0.2,0-0.3,0c-1.6,0-3.3,0-4.9,0H34c0,0.2,0,0.3,0,0.4c0,4,0,7.9,0,11.9c0,0.2,0,0.3,0,0.5c-0.1,0.6-0.6,1.1-1.2,1.1
		c-0.6,0-1.1-0.5-1.2-1.1c0-0.1,0-0.3,0-0.4c0-6.4,0-12.8,0-19.2c0-0.2,0-0.3,0.1-0.5c0.2-0.5,0.6-0.9,1.2-0.9c0.6,0,1.1,0,1.7,0
		c2.5,0,5,0,7.5,0c0.1,0,0.2,0,0.3,0c0.7,0,1.2,0.6,1.2,1.3c0,0.7-0.5,1.2-1.2,1.3c-0.2,0-0.3,0-0.5,0c-2.5,0-5,0-7.4,0H34z"></path> <path d="M130.8,21.4c0,0.6-0.2,1-0.6,1.4c-0.4,0.4-0.9,0.7-1.4,0.9c-0.2,0.1-0.3,0.1-0.4,0c-0.1-0.1-0.1-0.3-0.1-0.4
		c0.1-0.2,0.1-0.4,0.2-0.6c0.1-0.1,0.1-0.3-0.1-0.4c-0.2-0.2-0.3-0.5-0.4-0.8c-0.1-0.7,0.4-1.4,1.1-1.5c0.7-0.1,1.4,0.4,1.5,1.1
		C130.8,21.2,130.8,21.4,130.8,21.4"></path> <path d="M27.8,39.5c-0.7,0-1.3-0.6-1.3-1.2c0-0.7,0.6-1.3,1.3-1.3c0.7,0,1.3,0.6,1.3,1.2C29,39,28.5,39.5,27.8,39.5"></path> <path d="M43.2,38.3c0,0.7-0.6,1.2-1.3,1.2c-0.7,0-1.2-0.6-1.2-1.3c0-0.7,0.6-1.2,1.3-1.2C42.7,37,43.2,37.6,43.2,38.3"></path> <path d="M145.7,38c0,0.8-0.7,1.5-1.6,1.5c-0.8,0-1.5-0.7-1.5-1.6c0-0.8,0.7-1.5,1.6-1.5C145.1,36.5,145.7,37.2,145.7,38 M145.5,38
		c0-0.7-0.6-1.3-1.3-1.3c-0.7,0-1.3,0.6-1.3,1.3c0,0.7,0.6,1.4,1.3,1.4C144.9,39.3,145.5,38.7,145.5,38"></path> <path d="M144.5,37.9c0.3,0.2,0.2,0.5,0.3,0.8c-0.1,0.1-0.2,0.1-0.2-0.1c0-0.1,0-0.2,0-0.2c0-0.3-0.1-0.3-0.4-0.3
		c-0.1,0-0.1,0-0.2,0c0,0.2,0,0.4,0,0.6c0,0.1-0.1,0.2-0.2,0.2c-0.1-0.2-0.1-1.2,0-1.6c0.2,0,0.5,0,0.7,0c0.4,0.1,0.5,0.4,0.2,0.7
		C144.6,37.9,144.6,37.9,144.5,37.9z M143.9,37.9c0.2,0,0.3,0,0.5,0c0.1,0,0.2-0.1,0.2-0.2c0-0.1-0.1-0.2-0.2-0.2
		c-0.2,0-0.3,0-0.5,0V37.9z"></path> </g> </svg>