<svg xmlns="http://www.w3.org/2000/svg" viewBox="0 0 160 64" fill="#93A3B7" role="img"><title>Onfleet Customer Sweetgreen</title> <path d="M96.8,25.4c0-0.3-0.1-0.4-0.4-0.4c-0.4,0-0.9,0-1.3,0c-0.3,0-0.4,0.1-0.4,0.4c0,0.6,0,1.2,0,2c-3.1-3.6-7.6-3.1-10-0.8
			c-2.5,2.4-2.7,6.6-0.3,9.2c1.2,1.4,2.8,2,4.6,2.1c2.4,0.1,4.2-0.9,5.7-2.8c0,1,0.1,1.8-0.1,2.6c-0.3,1.7-1.5,3-3.2,3.5
			c-2.1,0.5-4.1,0.2-5.9-0.8c-0.4-0.2-0.8-0.8-1.2-0.6c-0.3,0.2-0.5,0.7-0.8,1.1c-0.2,0.3-0.1,0.5,0.2,0.7c2.3,1.4,4.8,1.9,7.5,1.6
			c3.3-0.4,5.4-2.6,5.5-5.9C96.9,33.3,96.8,29.3,96.8,25.4z M91.7,35.5c-2.3,1-5,0.1-6.1-2c-1.8-3.2,0.5-7,4.2-6.9
			c2.3,0,4.3,1.5,4.9,3.4C95.2,32.3,94.1,34.5,91.7,35.5z"></path> <path d="M37.4,25c-0.5,0-1.2-0.2-1.6,0.1c-0.3,0.3-0.4,0.9-0.6,1.4c-1,3.1-2,6.2-3.1,9.3C32,35.7,32,35.6,32,35.4
			c-1-3.1-2.1-6.2-3.1-9.3c-0.4-1.3-0.4-1.2-1.7-1.3c-0.4,0-0.6,0.1-0.7,0.5c-0.7,2.2-1.5,4.4-2.2,6.6c-0.4,1.3-0.8,2.5-1.3,3.8
			c0,0-0.1,0-0.1,0c-1-3-2-6.1-3-9.1c-0.2-0.5-0.2-1.3-0.6-1.6c-0.4-0.3-1.1-0.1-1.7-0.1c-0.5,0-0.5,0.1-0.4,0.5
			c1.4,4.1,2.8,8.1,4.2,12.2c0.5,1.3,0.5,1.3,1.9,1.3c0.4,0,0.6-0.2,0.7-0.5c1.1-3.2,2.2-6.4,3.3-9.5c0.1-0.2,0.1-0.4,0.3-0.5
			c0.1,0.2,0.1,0.4,0.2,0.6c1,3,2,6,3.1,9c0.4,1.1,0.4,1.1,1.5,1.1c0.6,0,0.8-0.2,1-0.7c1.5-4.3,3-8.5,4.5-12.8C38,25,38,25,37.4,25
			z"></path> <path d="M53.4,29.8c-0.8-3.9-4.8-6.1-8.5-4.7c-4.8,1.8-5.7,8.3-2.7,11.8c2.7,3.1,7.6,3.2,10.5,0.2c0.6-0.6,0.6-0.4,0-1
			c-0.2-0.2-0.4-0.3-0.5-0.4c-0.2-0.3-0.4-0.2-0.6,0c-0.9,0.9-1.9,1.4-3.2,1.6c-2.7,0.4-5.1-1.1-5.6-4.1c-0.1-0.4,0-0.5,0.4-0.5
			c1.7,0,3.4,0,5,0c1.7,0,3.3,0,5,0c0.4,0,0.6-0.1,0.5-0.5C53.6,31.4,53.6,30.6,53.4,29.8z M50,31.2c-1,0-1.9,0-2.9,0
			c-1.3,0-2.6,0-3.9,0c-0.3,0-0.5-0.1-0.4-0.4c0.3-1.9,1.6-3.7,3.5-4.1c2.1-0.5,4.1,0.7,4.9,2.9C51.7,31.2,51.7,31.2,50,31.2z"></path> <path d="M60.2,25.3c-2.7,1.4-4.2,4.5-3.7,7.8c0.4,2.6,1.8,4.6,4.3,5.6c2.6,1,5.1,0.6,7.3-1.1c1.3-1,1.2-1.1,0-2.1
			c-0.2-0.2-0.4-0.2-0.6,0c-0.3,0.3-0.6,0.6-0.9,0.8c-2.8,1.9-6.9,1-7.9-3c-0.2-0.7-0.1-0.7,0.6-0.7c1.6,0,3.2,0,4.9,0
			c1.6,0,3.3,0,4.9,0c0.5,0,0.6-0.2,0.6-0.6c0-1.1-0.2-2.3-0.6-3.3C67.7,25.2,63.6,23.6,60.2,25.3z M66.8,31.2c-1.3,0-2.6,0-3.9,0
			c-1.3,0-2.6,0-4,0c-0.3,0-0.4-0.1-0.4-0.4c0.3-1.9,1.5-3.7,3.5-4.1c2.1-0.5,4.1,0.7,4.9,2.9c0.1,0.3,0.2,0.7,0.3,1.1
			C67.4,31,67.3,31.2,66.8,31.2z"></path> <path d="M114.6,25.7c-2.7,1.8-3.5,4.4-3.1,7.4c0.3,2.7,1.8,4.7,4.3,5.6c2.6,1,5.1,0.6,7.3-1.2c1.1-0.9,1.1-0.9,0-1.9
			c0,0-0.1,0-0.1-0.1c-0.2-0.2-0.4-0.2-0.6,0c-0.4,0.5-0.9,0.8-1.5,1.1c-3.1,1.6-6.5,0.1-7.3-3.3c-0.1-0.6-0.1-0.7,0.5-0.7
			c1.7,0,3.3,0,5,0c1.7,0,3.3,0,5,0c0.4,0,0.5-0.1,0.5-0.5c0-1.2-0.2-2.3-0.6-3.4C122.7,25,118,23.4,114.6,25.7z M120.9,31.2
			c-1,0-1.9,0-2.9,0c-1.3,0-2.6,0-3.9,0c-0.3,0-0.5,0-0.4-0.4c0.3-1.9,1.5-3.7,3.5-4.1c2.1-0.5,4.1,0.7,4.9,2.9
			C122.6,31.2,122.6,31.2,120.9,31.2z"></path> <path d="M131.1,25.4c-2.6,1.3-3.7,3.6-3.8,6.4c-0.1,2.3,0.6,4.3,2.4,5.8c2.9,2.5,7.4,2.3,10.1-0.6c0.1-0.1,0.4-0.3,0.1-0.5
			c-0.4-0.3-0.7-0.9-1.3-0.9c-0.1,0-0.2,0.1-0.2,0.2c-0.4,0.4-0.9,0.7-1.4,1c-2.8,1.5-6.5,0.4-7.3-3.3c-0.2-0.7-0.1-0.7,0.5-0.7
			c1.6,0,3.2,0,4.9,0c1.7,0,3.4,0,5,0c0.4,0,0.5-0.1,0.5-0.5c0-1.2-0.1-2.3-0.6-3.4C138.4,24.6,134,23.8,131.1,25.4z M137.7,31.2
			c-1.3,0-2.6,0-3.9,0c-1.3,0-2.6,0-3.9,0c-0.2,0-0.5,0-0.5-0.4c0.3-1.8,1.4-3.6,3.4-4.2c2.2-0.6,4.2,0.6,5,2.9
			c0.1,0.3,0.2,0.7,0.3,1.1C138.3,31,138.3,31.2,137.7,31.2z"></path> <path d="M156.2,29.7c-0.1-2.6-1.8-4.6-4.4-4.9c-2.3-0.3-4.2,0.4-5.6,2.5c0-0.7,0-1.3,0-1.8c0-0.3-0.1-0.5-0.5-0.5
			c-0.4,0-0.9,0-1.3,0c-0.4,0-0.4,0.1-0.4,0.4c0,4.4,0,8.7,0,13.1c0,0.3,0.1,0.5,0.4,0.4c0.4,0,0.8,0,1.2,0c0.4,0,0.5-0.1,0.5-0.5
			c0-2.4,0-4.8,0-7.2c0-2.6,1.3-4.2,3.7-4.5c1.6-0.2,3.2,0.5,3.8,2.1c0.3,0.8,0.4,1.6,0.4,2.5c0,2.4,0,4.7,0,7.1
			c0,0.5,0.1,0.6,0.6,0.5c0.4,0,0.8,0,1.2,0c0.3,0,0.4,0,0.4-0.4C156.2,35.6,156.3,32.6,156.2,29.7z"></path> <path d="M12.4,31.8c-0.9-0.5-2-0.8-3-1.1c-0.8-0.3-1.6-0.5-2.2-1c-0.7-0.5-0.9-1.2-0.6-2c0.4-0.7,1-1,1.7-1.2
			c1.3-0.2,2.5,0.2,3.7,0.7c0.4,0.2,0.8,0.7,1.2,0.5c0.4-0.2,0.5-0.7,0.8-1.1c0.2-0.3,0.2-0.4-0.1-0.6c-1.2-0.7-2.4-1.1-3.8-1.3
			c-1.5-0.1-2.9,0-4.2,0.9c-1.8,1.3-2.3,4.7,0.4,6c0.7,0.4,1.5,0.7,2.3,0.9c0.9,0.3,1.8,0.5,2.7,0.9c0.5,0.3,0.9,0.6,1.1,1.2
			c0.3,1.1-0.5,2.2-1.8,2.5c-1.7,0.4-3.2-0.2-4.6-0.9c-0.4-0.2-0.8-0.8-1.2-0.6c-0.4,0.2-0.6,0.7-0.8,1.1C3.7,37,3.7,37.2,4,37.4
			c1.6,1.2,3.5,1.7,5.5,1.8c0.8-0.1,1.7-0.2,2.6-0.6c1.3-0.7,2.2-1.7,2.3-3.2C14.6,33.8,13.9,32.6,12.4,31.8z"></path> <path d="M76.4,26.9c0.9,0,1.7,0,2.6,0c1.4,0,1.4,0,1.4-1.4c0-0.4-0.1-0.5-0.5-0.5c-1.2,0-2.3,0-3.5,0c-0.3,0-0.4-0.1-0.4-0.4
			c0-0.7,0-1.4,0-2.1c0-0.5,0.2-1.2-0.1-1.6c-0.3-0.3-1,0-1.6-0.1c-0.4,0-0.5,0.1-0.5,0.5c0,1.1,0,2.2,0,3.2c0,0.4-0.1,0.5-0.4,0.4
			c-0.4,0-0.7,0-1.1,0c-0.3,0-0.3,0.1-0.4,0.4c-0.1,1.5-0.1,1.5,1.4,1.5c0,0,0,0,0.1,0c0.4-0.1,0.5,0.1,0.5,0.5c0,1.3,0,2.6,0,3.9
			c0,1.3,0,2.6,0,3.9c0,0.3,0,0.5,0.1,0.8c0.1,1.6,1,2.7,2.4,3.1c1.2,0.3,2.3,0.2,3.5-0.1c0.5-0.2,0.7-0.4,0.6-0.9
			c-0.1-0.4,0.2-0.9-0.1-1.1c-0.3-0.2-0.7,0.2-1,0.2C77.4,37.4,76,37,76,34.8c0-2.5,0-5,0-7.5C76,26.9,76.1,26.8,76.4,26.9z"></path> <path d="M109.2,25c0-0.2-0.1-0.3-0.3-0.3c-1,0-1.9,0.3-2.8,0.8c-1.1,0.6-1.9,1.6-2.6,2.6c0-0.9,0-1.8,0-2.7c0-0.3-0.1-0.5-0.4-0.4
			c-0.4,0-0.9,0-1.3,0c-0.3,0-0.4,0.1-0.4,0.4c0,4.4,0,8.8,0,13.2c0,0.3,0.1,0.4,0.4,0.4c0.4,0,0.8,0,1.2,0c0.5,0,0.6-0.1,0.6-0.6
			c0-2-0.1-3.9,0.1-5.9c0.2-3,2.2-5.4,5.3-5.4c0.2,0,0.3,0,0.3-0.3C109.2,26.2,109.2,25.6,109.2,25z"></path> </svg>