<svg xmlns="http://www.w3.org/2000/svg" viewBox="0 0 160 64" fill="#5C6D82" role="img"><title>Onfleet Customer Territory</title><path d="M56,32.56V14.66c0-.87.31-1.16,1.15-1.16h6.37a10.52,10.52,0,0,1,3.56.6A9.29,9.29,0,0,1,70,15.88a9.59,9.59,0,0,1,2.47,3.59,11.88,11.88,0,0,1,.82,3.32,17.72,17.72,0,0,1-.1,3.85,8.79,8.79,0,0,1-.39,1.59,11.14,11.14,0,0,1-1.23,2.64A8.66,8.66,0,0,1,69,33.43c-.7.47-.71.49-.38,1.28s.5,1.3.74,2c.39,1,.79,2,1.15,3,.26.7.48,1.42.78,2.1a19.82,19.82,0,0,0,.84,2.09,7.55,7.55,0,0,1,.29.84c.26.59.46,1.15.69,1.79.39,1,.81,2,1.14,3,.15.43.47.8.45,1.29a.74.74,0,0,1-.21.58.72.72,0,0,1-.57.21H69.29a.72.72,0,0,1-.81-.58c-.54-1.52-1-3-1.62-4.55-.27-.73-.52-1.48-.82-2.21s-.43-1.37-.7-2a17.64,17.64,0,0,0-.8-2.39,9,9,0,0,1-.31-1c-.38-1-.7-2-1.05-3,0-.14-.1-.28-.16-.42a.41.41,0,0,0-.53-.29c-.26.08-.45-.16-.58.1a1.26,1.26,0,0,0,0,.61V50.47a1.23,1.23,0,0,1-.22.91.75.75,0,0,1-.57.26H56.77a.77.77,0,0,1-.76-.7,3.38,3.38,0,0,1,0-.45Zm5.85-8.18v5.14c0,.46,0,.49.49.45h.74a5.13,5.13,0,0,0,2.28-.72,4.51,4.51,0,0,0,1.84-2.62,7.88,7.88,0,0,0,.34-2.1A9,9,0,0,0,67,21.29,3.75,3.75,0,0,0,64.68,19a6.83,6.83,0,0,0-2.29-.24c-.52,0-.53,0-.53.52C61.85,21,61.85,22.69,61.85,24.38Zm41.41,10.84V26.74a9.68,9.68,0,0,1,.56-3.06,8,8,0,0,1,2-3.23,7.34,7.34,0,0,1,2.8-1.67,9,9,0,0,1,3-.51,8.52,8.52,0,0,1,5.14,1.53A7.76,7.76,0,0,1,119,22.27a10.54,10.54,0,0,1,1.14,4.3c.11,1.16.06,2.32.06,3.48V42.57a14.74,14.74,0,0,1-.36,3.1,7.81,7.81,0,0,1-7.24,6.27,10.44,10.44,0,0,1-2.5-.09,7.56,7.56,0,0,1-4.72-2.51,7.93,7.93,0,0,1-1.43-2.41,11.58,11.58,0,0,1-.72-4.32C103.29,40.16,103.26,37.7,103.26,35.22Zm5.8-.14v8.45a4,4,0,0,0,.78,2.51,2.45,2.45,0,0,0,3.89-.24,4.87,4.87,0,0,0,.6-2.64V26.93a5,5,0,0,0-.34-2,2.31,2.31,0,0,0-1.8-1.51,2.48,2.48,0,0,0-2.65,1.16,4.54,4.54,0,0,0-.49,2.11c0,2.82,0,5.6,0,8.38Zm-72.68,0V19.51c0-.85.2-1.06,1-1.06h5.93a10.24,10.24,0,0,1,4,.72,7.38,7.38,0,0,1,3.23,2.56,9.12,9.12,0,0,1,1.52,4.09,10.36,10.36,0,0,1,.07,2.89,3.53,3.53,0,0,0,0,.46,3.4,3.4,0,0,1-.25,1.54.38.38,0,0,0,0,.15,4.91,4.91,0,0,1-.73,2A7.72,7.72,0,0,1,48.25,36c-.24.13-.24.33-.14.55.36.78.63,1.6.93,2.38s.73,1.86,1.14,2.79.69,2,1.15,2.91c.29.69.5,1.4.81,2.08s.46,1.23.7,1.84a14.5,14.5,0,0,0,.57,1.42,2.78,2.78,0,0,1,.24.93.63.63,0,0,1-.15.51.66.66,0,0,1-.49.22H48.43a.63.63,0,0,1-.6-.39,11.2,11.2,0,0,1-.52-1.36c-.47-1.3-.88-2.62-1.37-3.91s-.82-2.39-1.25-3.57c-.29-.76-.6-1.52-.86-2.32s-.55-1.64-.86-2.46a.86.86,0,0,0-1-.27c-.14.1-.1.25-.1.39v13c0,.7-.22.92-.92.92H37.25c-.68,0-.87-.2-.87-.88Zm5.29-7.19v4c0,.38.08.45.46.45H43a3.82,3.82,0,0,0,3.76-3.48,7.49,7.49,0,0,0,0-1.16,4.34,4.34,0,0,0-.58-2.23,3.49,3.49,0,0,0-2.54-1.74,7.42,7.42,0,0,0-1.56-.07c-.38,0-.42,0-.42.41Zm82.68,9.51V24.07c0-.69.33-1,1-1h4.47a18.17,18.17,0,0,1,3.13.22,7.51,7.51,0,0,1,2.17.73,7.93,7.93,0,0,1,2.43,1.84A7.75,7.75,0,0,1,138.9,28a7.63,7.63,0,0,1,.51,1.38,9.28,9.28,0,0,1,.35,2,11.52,11.52,0,0,1-.28,3.26,7.87,7.87,0,0,1-1.64,3.2,7.47,7.47,0,0,1-1.9,1.64.27.27,0,0,0-.15.18.26.26,0,0,0,0,.24c.5,1.05,1,2.1,1.49,3.14.16.33.37.66.51,1,.21.52.45,1,.69,1.54.37.83.77,1.63,1.14,2.45s.83,1.73,1.22,2.61a.69.69,0,0,1,0,.68.67.67,0,0,1-.61.31H135.9a.74.74,0,0,1-.71-.46c-.33-.69-.63-1.41-.94-2.11-.39-.89-.78-1.78-1.15-2.68s-.72-1.71-1.14-2.56c-.16-.39-.34-.78-.54-1.16a6.73,6.73,0,0,1-.38-1l-.1-.28a.81.81,0,0,0-.4-.52.84.84,0,0,0-.64-.05.24.24,0,0,0-.22.25,1.71,1.71,0,0,0,0,.32v9.38a.67.67,0,0,1-.66.8H125a.59.59,0,0,1-.59-.52,2.81,2.81,0,0,1-.07-.71Zm6.07-9.44h-.12c-.57,0-.6,0-.6.59V36c0,.21.08.34.29.34a5.24,5.24,0,0,0,2.58-.48,3.24,3.24,0,0,0,1.72-2.4,6.37,6.37,0,0,0-.34-3.71,2.83,2.83,0,0,0-1.44-1.47A5.14,5.14,0,0,0,130.42,27.94ZM97.66,35.29V50.42a3.84,3.84,0,0,1,0,.48.72.72,0,0,1-.74.72H92.55c-.47,0-.65-.17-.74-.63a2.54,2.54,0,0,1-.07-.61V19.82c0-.46,0-.51-.47-.51H86.75c-.61,0-.82-.18-.9-.8a9.14,9.14,0,0,1,0-1.48v-2a2.53,2.53,0,0,1,0-.55.67.67,0,0,1,.63-.59h15.84c1.08,0,1.22.16,1.22,1.25v3.23c0,.69-.25.95-.93.95H98.18c-.51,0-.55,0-.55.54Zm-78.6,1.88v-13c0-.75.35-1.07,1.14-1.07H31.57a.88.88,0,0,1,.74.24.87.87,0,0,1,.23.75v3c0,.75-.24,1-1,1h-6.4c-.6,0-.67.09-.6.68v5c0,.72,0,.72.71.72H30a.8.8,0,0,1,.67.22.82.82,0,0,1,.24.68v3.22a.79.79,0,0,1-.24.67.78.78,0,0,1-.66.23H25c-.49,0-.53,0-.48.52v6.26a.33.33,0,0,0,.09.27.32.32,0,0,0,.26.09h6.59a1.13,1.13,0,0,1,.83.24.8.8,0,0,1,.23.53v3.54a.72.72,0,0,1-.19.52.66.66,0,0,1-.51.2H20c-.63,0-.87-.24-.9-.87-.12-2.42,0-4.86,0-7.28C19.05,41.37,19.06,39.27,19.06,37.17Zm58.28-6.1V11.65c0-1,.1-1.16,1.14-1.16h3.94a.83.83,0,0,1,.6.22.82.82,0,0,1,.25.59V50.42a1.31,1.31,0,0,1-.25.94.62.62,0,0,1-.49.23H78.1a.65.65,0,0,1-.53-.19.75.75,0,0,1-.22-.53V31.07Zm70.39,16V44c0-.25,0-.51,0-.76a2.68,2.68,0,0,0-.4-1.7c-.67-1.16-1.22-2.41-1.84-3.61l-1.42-2.78c-.47-.91-.91-1.84-1.37-2.76s-.87-1.67-1.3-2.5,0-1.16.75-1.16h3.56a1.14,1.14,0,0,1,1.26.74c.23.59.49,1.16.75,1.74.48,1.08,1,2.16,1.47,3.24l1,2.17c0,.09,0,.26.18.25s.15-.14.2-.23l1-2.32c.58-1.3,1.15-2.6,1.74-3.91l.52-1.16a.88.88,0,0,1,.88-.61h3.92a.72.72,0,0,1,.74,1.08c-.09.22-.26.42-.38.66l-1.14,2.25c-.38.74-.79,1.54-1.15,2.32s-.66,1.39-1,2.07-.6,1.35-1,2c-.53.91-.93,1.88-1.45,2.79a1.84,1.84,0,0,0-.26,1v7.73a3.53,3.53,0,0,1,0,.46.68.68,0,0,1-.68.66h-3.7c-.47,0-.68-.25-.71-.72C147.69,49.53,147.76,48.18,147.73,47.05Zm-136-4.47v8.35a.71.71,0,0,1-.21.5.66.66,0,0,1-.5.19H7.09a.7.7,0,0,1-.49-.2.68.68,0,0,1-.22-.49V34.45c0-.49,0-.52-.52-.52H2.14c-.53,0-.68-.23-.68-.75V29.7c0-.41.13-.56.53-.63a2.81,2.81,0,0,1,.41,0H16a.74.74,0,0,1,.49.22.73.73,0,0,1,.19.5v3.48c0,.44-.31.71-.85.72H12.26c-.47,0-.5,0-.5.49v8.11Z"></path></svg>