<svg fill="#5C6D82" xmlns="http://www.w3.org/2000/svg" viewBox="0 0 160 64" role="img"><title>Onfleet Customer Thistle</title><path d="M40.53,36.18v8.07c0,.11,0,.23,0,.35a.58.58,0,0,0,.49.55,2.06,2.06,0,0,0,.35,0h3.37c.64,0,.84-.21.85-.84V23.79c0-.1,0-.2,0-.31a.62.62,0,0,0-.66-.67H41.17a.59.59,0,0,0-.64.63v8c-.6.1-8.9.07-9.23,0v-.47c0-2.43,0-4.86,0-7.29a.72.72,0,0,0-.83-.82c-1.08,0-2.16,0-3.24,0-.75,0-1,.17-1,1,0,6.8,0,13.6,0,20.41,0,.11,0,.23,0,.35a.62.62,0,0,0,.53.61h3.94a.62.62,0,0,0,.58-.61c0-.12,0-.24,0-.35V36.69c0-.17,0-.34,0-.52Zm109.24,0h7.15c.58,0,.78-.19.78-.76V32.9c0-.28,0-.56,0-.84a.58.58,0,0,0-.59-.59h-7.29a26,26,0,0,1,0-3.95h8.59c.69,0,.87-.18.87-.85V24.08c0-.22,0-.44,0-.66a.62.62,0,0,0-.63-.61H145.39c-.47,0-.68.21-.7.67V44.23c0,.12,0,.24,0,.36a.59.59,0,0,0,.56.58,2.64,2.64,0,0,0,.4,0h12.82c.59,0,.8-.21.81-.78s0-1.12,0-1.68,0-1,0-1.57a.61.61,0,0,0-.68-.68h-8.83ZM80.64,45.47h.49a8,8,0,0,0,4.81-1.65,6.21,6.21,0,0,0,.48-9.58,10.86,10.86,0,0,0-1.3-1.05,17.39,17.39,0,0,0-3.19-1.62,21.11,21.11,0,0,1-2.13-1.06,3.32,3.32,0,0,1-.9-.77,1.66,1.66,0,0,1,1-2.81l.22,0a4.51,4.51,0,0,1,2.29.4,14.29,14.29,0,0,1,2.52,1.37.73.73,0,0,0,1,0,1.85,1.85,0,0,0,.35-.39c.47-.68.92-1.37,1.37-2.05a1.89,1.89,0,0,0,.19-.3.77.77,0,0,0-.23-1,11.6,11.6,0,0,0-7.19-2.36,8.13,8.13,0,0,0-4.51,1.36,6,6,0,0,0-1.34,8.68,9,9,0,0,0,1.79,1.69,14.51,14.51,0,0,0,3.11,1.66,8.46,8.46,0,0,1,2.26,1.2,3.12,3.12,0,0,1,.91,1.07A1.91,1.91,0,0,1,81.2,41a3.87,3.87,0,0,1-1.59,0,10.42,10.42,0,0,1-3.19-1.39c-.12-.08-.24-.17-.37-.24a.82.82,0,0,0-1.21.32c-.47.81-.93,1.63-1.39,2.45-.27.48-.25.6.15,1a7.5,7.5,0,0,0,1.78,1.22A11.53,11.53,0,0,0,80.64,45.47ZM11.34,27.52h4.4c.62,0,.82-.21.82-.83V24.28c0-.28,0-.56,0-.84a.61.61,0,0,0-.65-.63H1.76c-.52,0-.76.2-.77.69,0,1.11,0,2.22,0,3.34,0,.45.24.66.7.68H6.21V44.44a.67.67,0,0,0,.75.73H10.6a.67.67,0,0,0,.74-.74V27.52Zm95.51,0h4.5c.51,0,.72-.22.73-.73,0-.2,0-.38,0-.57,0-.91,0-1.82,0-2.73,0-.45-.22-.66-.68-.68H97.11a.56.56,0,0,0-.57.6c0,1.17,0,2.34,0,3.52a.57.57,0,0,0,.5.58,2,2,0,0,0,.35,0h3.86l.5,0V44.13a3.23,3.23,0,0,0,0,.44.61.61,0,0,0,.55.59,2,2,0,0,0,.35,0c1,0,2.11,0,3.16,0,.72,0,1.05-.14,1.05-1q0-8,0-16.07Zm20,12.93v-17a.64.64,0,0,0-.69-.69c-1.24,0-2.48,0-3.72,0a.62.62,0,0,0-.67.66V44.18c0,.12,0,.23,0,.35a.62.62,0,0,0,.65.64h11.85c.69,0,.88-.19.88-.89V42.53c0-.46,0-.91,0-1.36a.66.66,0,0,0-.72-.72h-7.59ZM62.72,34V23.67c0-.66-.21-.86-.88-.86H58.47c-.67,0-.88.2-.88.85V44.32c0,.63.22.85.85.85H62a.67.67,0,0,0,.73-.71c0-.11,0-.23,0-.35C62.72,40.75,62.72,37.38,62.72,34Z"></path></svg>