<svg xmlns="http://www.w3.org/2000/svg" viewBox="0 0 160 64" fill="#5C6D82" role="img"><title>Onfleet Customer Veyo</title> <g> <path d="M129.8,7.2c-0.2-1.5-0.9-2.7-2.5-3.2c-1.7-0.5-3.4,0-4.6,1.5c-0.9,1.1-1.4,2.4-1.8,3.7c-0.9,2.7-1.6,5.4-2.4,8.1
		c-0.1-0.1-0.1-0.2-0.2-0.3c-0.5-1-1-2.1-1.5-3.2c-1-2.2-1.9-4.4-3.1-6.5c-0.5-1-1.2-1.9-2-2.7c-1.3-1.2-2.8-1.6-4.5-1.3
		c-2.2,0.4-3.5,1.9-4,3.9c-0.5,1.8-0.4,3.6,0,5.3c1,4.8,2.5,9.5,4.5,14c0.4,0.8,0.8,1.6,1.3,2.3c0.8,1,1.9,1.7,3.2,1.9
		c1.5,0.2,2.7-0.5,3.7-1.6c0.8-0.9,1.4-2,1.9-3.1c0.7-1.5,1.1-3.1,1.6-4.7c0.1-0.2,0.1-0.2,0.3-0.1c1.8,0.9,3.5,0.6,5-0.7
		c1.1-0.9,1.8-1.9,2.4-3.1c1-1.8,1.6-3.8,2.1-5.7C129.7,10.4,130,8.8,129.8,7.2z M117.8,20c-0.6,2.1-1.2,4.2-2.1,6.1
		c-0.3,0.7-0.7,1.3-1.3,1.9c-0.5,0.6-1.1,1-1.9,0.9c-0.6-0.1-1.1-0.3-1.5-0.7c-0.6-0.6-1-1.3-1.4-2.1c-1.9-4.4-3.4-9-4.4-13.7
		c-0.2-0.8-0.2-1.7-0.3-2.6c0-0.8,0.1-1.7,0.4-2.5c0.9-2.2,3.6-2.8,5.3-1c0.9,0.9,1.4,1.9,2,3c1.1,2.3,2.1,4.7,3.2,7
		c0.6,1.2,1.1,2.4,1.9,3.5C117.8,19.9,117.8,19.9,117.8,20z M127.9,8.3c0,1.1-0.3,2.3-0.6,3.3c-0.4,1.6-0.9,3.2-1.6,4.7
		c-0.5,1.1-1.2,2-2,2.8c-0.6,0.5-1.2,0.9-2,0.8c-0.5,0-1-0.2-1.5-0.5c-0.2-0.1-0.1-0.2,0-0.4c0.5-1.8,1-3.6,1.5-5.4
		c0.5-1.7,0.9-3.3,1.6-4.9c0.3-0.7,0.6-1.3,1-1.8c0.4-0.6,1-1,1.7-1c1.1,0,1.7,0.5,1.8,1.5C127.9,7.7,127.9,8,127.9,8.3z"></path> <path d="M66.4,33.5c-1.7-1.6-3.7-2.2-6-2.3c-4.2-0.1-7.6,2.1-9,6c-1.2,3.2-1.2,6.5,0.1,9.7c0.9,2.4,2.6,4.1,4.9,5.1
		c1.8,0.8,3.7,0.9,5.6,0.7c2.6-0.3,4.6-1.6,6.1-3.8c0.2-0.3,0.3-0.5,0.4-0.8c0.2-0.6,0-1.1-0.5-1.4c-0.9-0.6-1.7-0.4-2.3,0.4
		c-0.8,1.1-1.7,1.9-3,2.4c-1,0.4-2.1,0.4-3.2,0.3c-2.2-0.3-3.8-1.4-4.6-3.5c-0.4-0.9-0.5-1.9-0.5-2.9c0-0.2,0.1-0.3,0.3-0.3
		c2.3,0,4.5,0,6.8,0c1.3,0,2.5,0,3.8,0c1,0,2.1,0,3.1,0c0.9,0,1.4-0.5,1.4-1.5c0-1-0.1-2-0.3-3C68.6,36.5,67.8,34.8,66.4,33.5z
		 M65.7,39.9c-1.9,0-3.7,0-5.6,0c-1.9,0-3.7,0-5.6,0c-0.2,0-0.3,0-0.2-0.2c0.2-1.3,0.6-2.5,1.4-3.6c1.3-1.6,3-2.1,5-2
		c2.1,0.1,4.3,1.4,5,4.6c0.1,0.3,0.1,0.6,0.2,0.9C66,39.9,66,39.9,65.7,39.9z"></path> <path d="M103.4,31.8c-1.8-0.6-3.7-0.7-5.5-0.4c-3,0.5-5.2,2.1-6.6,4.8C90.3,38,90,39.9,90,42c0,1.1,0.1,2.4,0.4,3.6
		c0.8,2.8,2.3,5,5,6.3c1.9,0.9,3.9,1.1,5.9,0.8c3.4-0.5,5.9-2.2,7.3-5.4c1.4-3.4,1.4-6.9,0.2-10.3C107.8,34.4,106,32.7,103.4,31.8z
		 M105.3,46.1c-1,2.5-3,3.8-5.7,3.7c-2.2-0.1-3.9-1-4.9-2.9c-0.5-0.9-0.8-1.8-0.9-2.8c-0.1-0.7-0.2-1.4-0.2-2.1
		c0-1.6,0.2-3.1,0.9-4.5c1-2.1,2.7-3.2,5-3.3c1.3-0.1,2.5,0.1,3.6,0.8c1.3,0.8,2.1,2.1,2.5,3.6C106.3,41.1,106.3,43.6,105.3,46.1z"></path> <path d="M87.6,31.6c-0.6,0.1-0.8,0.5-1.1,1c0,0.1-0.1,0.1-0.1,0.2c-1.9,4.5-3.8,8.9-5.7,13.4c-0.2,0.4-0.3,0.8-0.5,1.2
		c0-0.1-0.1-0.2-0.1-0.2c-1.7-4.1-3.3-8.2-5-12.3c-0.3-0.8-0.6-1.6-1-2.3c-0.2-0.5-0.6-0.9-1.2-1c-0.6,0-1.1,0.1-1.6,0.5
		c-0.5,0.3-0.6,0.8-0.5,1.4c0.1,0.3,0.2,0.5,0.3,0.8c2.3,5.7,4.7,11.3,7,17c0.1,0.2,0.1,0.3,0,0.5c-0.7,1.5-1.4,3-2,4.6
		c-0.3,0.8-0.7,1.5-1,2.3c-0.3,0.9,0,1.6,0.8,1.9c0.7,0.3,1.7,0.3,2.2-0.7c0.1-0.1,0.2-0.3,0.2-0.5c3.4-7.8,6.8-15.7,10.2-23.5
		c0.3-0.8,0.7-1.5,1-2.3c0.2-0.5,0.2-1-0.1-1.4C89,31.7,88.3,31.6,87.6,31.6z"></path> <path d="M48,31.8c-1.1-0.4-1.7-0.1-2.2,1c-1,2.5-2.1,5.1-3.1,7.6c-1,2.5-2,5-3.1,7.5c-0.1-0.1-0.1-0.2-0.1-0.3
		c-1.6-4.1-3.3-8.1-4.9-12.2c-0.4-1-0.8-1.9-1.2-2.9c-0.3-0.7-0.8-1-1.5-0.9c-1.5,0.1-2.1,1.1-1.5,2.4c1.3,3.1,2.6,6.2,3.9,9.3
		c1.1,2.6,2.2,5.3,3.3,7.9c0.3,0.6,0.7,1,1.4,1.1c0.3,0,0.7,0,1,0c0.7,0,1.2-0.4,1.5-1.1c0.3-0.6,0.5-1.2,0.8-1.9
		c2.2-5.2,4.4-10.4,6.6-15.6C49.3,32.8,49,32.1,48,31.8z"></path> </g> </svg>